<svg viewBox="0 0 820 300" xmlns="http://www.w3.org/2000/svg" font-family="system-ui,sans-serif" font-size="12"><rect width="820" height="300" fill="#fcfcfb"/><rect x="439.0" y="20.0" width="77.5" height="234.0" fill="#d03b3b" fill-opacity="0.15"/><text x="477.8" y="14.0" text-anchor="middle" font-size="10.5" fill="#d03b3b">disagree (log=0, exact=1)</text><line x1="54.0" y1="20.0" x2="54.0" y2="254.0" stroke="#e1e0d9"/><text x="54.0" y="269.0" text-anchor="middle" font-size="10" fill="#898781">0.00</text><line x1="148.0" y1="20.0" x2="148.0" y2="254.0" stroke="#e1e0d9"/><text x="148.0" y="269.0" text-anchor="middle" font-size="10" fill="#898781">0.25</text><line x1="242.0" y1="20.0" x2="242.0" y2="254.0" stroke="#e1e0d9"/><text x="242.0" y="269.0" text-anchor="middle" font-size="10" fill="#898781">0.50</text><line x1="336.0" y1="20.0" x2="336.0" y2="254.0" stroke="#e1e0d9"/><text x="336.0" y="269.0" text-anchor="middle" font-size="10" fill="#898781">0.75</text><line x1="430.0" y1="20.0" x2="430.0" y2="254.0" stroke="#e1e0d9"/><text x="430.0" y="269.0" text-anchor="middle" font-size="10" fill="#898781">1.00</text><line x1="524.0" y1="20.0" x2="524.0" y2="254.0" stroke="#e1e0d9"/><text x="524.0" y="269.0" text-anchor="middle" font-size="10" fill="#898781">1.25</text><line x1="618.0" y1="20.0" x2="618.0" y2="254.0" stroke="#e1e0d9"/><text x="618.0" y="269.0" text-anchor="middle" font-size="10" fill="#898781">1.50</text><line x1="712.0" y1="20.0" x2="712.0" y2="254.0" stroke="#e1e0d9"/><text x="712.0" y="269.0" text-anchor="middle" font-size="10" fill="#898781">1.75</text><line x1="806.0" y1="20.0" x2="806.0" y2="254.0" stroke="#e1e0d9"/><text x="806.0" y="269.0" text-anchor="middle" font-size="10" fill="#898781">2.00</text><path d="M 54.0 48.1 H 54.8 V 48.1 H 55.5 V 48.1 H 56.3 V 48.1 H 57.0 V 48.1 H 57.8 V 48.1 H 58.5 V 48.1 H 59.3 V 48.1 H 60.0 V 48.1 H 60.8 V 48.1 H 61.5 V 48.1 H 62.3 V 48.1 H 63.0 V 48.1 H 63.8 V 48.1 H 64.5 V 48.1 H 65.3 V 48.1 H 66.0 V 48.1 H 66.8 V 48.1 H 67.5 V 48.1 H 68.3 V 48.1 H 69.0 V 48.1 H 69.8 V 48.1 H 70.5 V 48.1 H 71.3 V 48.1 H 72.0 V 48.1 H 72.8 V 48.1 H 73.6 V 48.1 H 74.3 V 48.1 H 75.1 V 48.1 H 75.8 V 48.1 H 76.6 V 48.1 H 77.3 V 48.1 H 78.1 V 48.1 H 78.8 V 48.1 H 79.6 V 48.1 H 80.3 V 48.1 H 81.1 V 48.1 H 81.8 V 48.1 H 82.6 V 48.1 H 83.3 V 48.1 H 84.1 V 48.1 H 84.8 V 48.1 H 85.6 V 48.1 H 86.3 V 48.1 H 87.1 V 48.1 H 87.8 V 48.1 H 88.6 V 48.1 H 89.3 V 48.1 H 90.1 V 48.1 H 90.8 V 48.1 H 91.6 V 48.1 H 92.4 V 48.1 H 93.1 V 48.1 H 93.9 V 48.1 H 94.6 V 48.1 H 95.4 V 48.1 H 96.1 V 48.1 H 96.9 V 48.1 H 97.6 V 48.1 H 98.4 V 48.1 H 99.1 V 48.1 H 99.9 V 48.1 H 100.6 V 48.1 H 101.4 V 48.1 H 102.1 V 48.1 H 102.9 V 48.1 H 103.6 V 48.1 H 104.4 V 48.1 H 105.1 V 48.1 H 105.9 V 48.1 H 106.6 V 48.1 H 107.4 V 48.1 H 108.1 V 48.1 H 108.9 V 48.1 H 109.6 V 48.1 H 110.4 V 48.1 H 111.2 V 48.1 H 111.9 V 48.1 H 112.7 V 48.1 H 113.4 V 48.1 H 114.2 V 48.1 H 114.9 V 48.1 H 115.7 V 48.1 H 116.4 V 48.1 H 117.2 V 48.1 H 117.9 V 48.1 H 118.7 V 48.1 H 119.4 V 48.1 H 120.2 V 48.1 H 120.9 V 48.1 H 121.7 V 48.1 H 122.4 V 48.1 H 123.2 V 48.1 H 123.9 V 48.1 H 124.7 V 48.1 H 125.4 V 48.1 H 126.2 V 48.1 H 126.9 V 48.1 H 127.7 V 48.1 H 128.4 V 48.1 H 129.2 V 48.1 H 130.0 V 48.1 H 130.7 V 48.1 H 131.5 V 48.1 H 132.2 V 48.1 H 133.0 V 48.1 H 133.7 V 48.1 H 134.5 V 48.1 H 135.2 V 48.1 H 136.0 V 48.1 H 136.7 V 48.1 H 137.5 V 48.1 H 138.2 V 48.1 H 139.0 V 48.1 H 139.7 V 48.1 H 140.5 V 48.1 H 141.2 V 48.1 H 142.0 V 48.1 H 142.7 V 48.1 H 143.5 V 48.1 H 144.2 V 48.1 H 145.0 V 48.1 H 145.7 V 48.1 H 146.5 V 48.1 H 147.2 V 48.1 H 148.0 V 48.1 H 148.8 V 48.1 H 149.5 V 48.1 H 150.3 V 48.1 H 151.0 V 48.1 H 151.8 V 48.1 H 152.5 V 48.1 H 153.3 V 48.1 H 154.0 V 48.1 H 154.8 V 48.1 H 155.5 V 48.1 H 156.3 V 48.1 H 157.0 V 48.1 H 157.8 V 48.1 H 158.5 V 48.1 H 159.3 V 48.1 H 160.0 V 48.1 H 160.8 V 48.1 H 161.5 V 48.1 H 162.3 V 48.1 H 163.0 V 48.1 H 163.8 V 48.1 H 164.5 V 48.1 H 165.3 V 48.1 H 166.0 V 48.1 H 166.8 V 48.1 H 167.6 V 48.1 H 168.3 V 48.1 H 169.1 V 48.1 H 169.8 V 48.1 H 170.6 V 48.1 H 171.3 V 48.1 H 172.1 V 48.1 H 172.8 V 48.1 H 173.6 V 48.1 H 174.3 V 48.1 H 175.1 V 48.1 H 175.8 V 48.1 H 176.6 V 48.1 H 177.3 V 48.1 H 178.1 V 48.1 H 178.8 V 48.1 H 179.6 V 48.1 H 180.3 V 48.1 H 181.1 V 48.1 H 181.8 V 48.1 H 182.6 V 48.1 H 183.3 V 48.1 H 184.1 V 48.1 H 184.8 V 48.1 H 185.6 V 48.1 H 186.4 V 48.1 H 187.1 V 48.1 H 187.9 V 48.1 H 188.6 V 48.1 H 189.4 V 48.1 H 190.1 V 48.1 H 190.9 V 48.1 H 191.6 V 48.1 H 192.4 V 48.1 H 193.1 V 48.1 H 193.9 V 48.1 H 194.6 V 48.1 H 195.4 V 48.1 H 196.1 V 48.1 H 196.9 V 48.1 H 197.6 V 48.1 H 198.4 V 48.1 H 199.1 V 48.1 H 199.9 V 48.1 H 200.6 V 48.1 H 201.4 V 48.1 H 202.1 V 48.1 H 202.9 V 48.1 H 203.6 V 48.1 H 204.4 V 48.1 H 205.2 V 48.1 H 205.9 V 48.1 H 206.7 V 48.1 H 207.4 V 48.1 H 208.2 V 48.1 H 208.9 V 48.1 H 209.7 V 48.1 H 210.4 V 48.1 H 211.2 V 48.1 H 211.9 V 48.1 H 212.7 V 48.1 H 213.4 V 48.1 H 214.2 V 48.1 H 214.9 V 48.1 H 215.7 V 48.1 H 216.4 V 48.1 H 217.2 V 48.1 H 217.9 V 48.1 H 218.7 V 48.1 H 219.4 V 48.1 H 220.2 V 48.1 H 220.9 V 48.1 H 221.7 V 48.1 H 222.4 V 48.1 H 223.2 V 48.1 H 224.0 V 48.1 H 224.7 V 48.1 H 225.5 V 48.1 H 226.2 V 48.1 H 227.0 V 48.1 H 227.7 V 48.1 H 228.5 V 48.1 H 229.2 V 48.1 H 230.0 V 48.1 H 230.7 V 48.1 H 231.5 V 48.1 H 232.2 V 48.1 H 233.0 V 48.1 H 233.7 V 48.1 H 234.5 V 48.1 H 235.2 V 48.1 H 236.0 V 48.1 H 236.7 V 48.1 H 237.5 V 48.1 H 238.2 V 48.1 H 239.0 V 48.1 H 239.7 V 48.1 H 240.5 V 48.1 H 241.2 V 48.1 H 242.0 V 48.1 H 242.8 V 48.1 H 243.5 V 48.1 H 244.3 V 48.1 H 245.0 V 48.1 H 245.8 V 48.1 H 246.5 V 48.1 H 247.3 V 48.1 H 248.0 V 48.1 H 248.8 V 48.1 H 249.5 V 48.1 H 250.3 V 48.1 H 251.0 V 48.1 H 251.8 V 48.1 H 252.5 V 48.1 H 253.3 V 48.1 H 254.0 V 48.1 H 254.8 V 48.1 H 255.5 V 48.1 H 256.3 V 48.1 H 257.0 V 48.1 H 257.8 V 48.1 H 258.5 V 48.1 H 259.3 V 48.1 H 260.0 V 48.1 H 260.8 V 48.1 H 261.6 V 48.1 H 262.3 V 48.1 H 263.1 V 48.1 H 263.8 V 48.1 H 264.6 V 48.1 H 265.3 V 48.1 H 266.1 V 48.1 H 266.8 V 48.1 H 267.6 V 48.1 H 268.3 V 48.1 H 269.1 V 48.1 H 269.8 V 48.1 H 270.6 V 48.1 H 271.3 V 48.1 H 272.1 V 48.1 H 272.8 V 48.1 H 273.6 V 48.1 H 274.3 V 48.1 H 275.1 V 48.1 H 275.8 V 48.1 H 276.6 V 48.1 H 277.3 V 48.1 H 278.1 V 48.1 H 278.8 V 48.1 H 279.6 V 48.1 H 280.4 V 48.1 H 281.1 V 48.1 H 281.9 V 48.1 H 282.6 V 48.1 H 283.4 V 48.1 H 284.1 V 48.1 H 284.9 V 48.1 H 285.6 V 48.1 H 286.4 V 48.1 H 287.1 V 48.1 H 287.9 V 48.1 H 288.6 V 48.1 H 289.4 V 48.1 H 290.1 V 48.1 H 290.9 V 48.1 H 291.6 V 48.1 H 292.4 V 48.1 H 293.1 V 48.1 H 293.9 V 48.1 H 294.6 V 48.1 H 295.4 V 48.1 H 296.1 V 48.1 H 296.9 V 48.1 H 297.6 V 48.1 H 298.4 V 48.1 H 299.2 V 48.1 H 299.9 V 48.1 H 300.7 V 48.1 H 301.4 V 48.1 H 302.2 V 48.1 H 302.9 V 48.1 H 303.7 V 48.1 H 304.4 V 48.1 H 305.2 V 48.1 H 305.9 V 48.1 H 306.7 V 48.1 H 307.4 V 48.1 H 308.2 V 48.1 H 308.9 V 48.1 H 309.7 V 48.1 H 310.4 V 48.1 H 311.2 V 48.1 H 311.9 V 48.1 H 312.7 V 48.1 H 313.4 V 48.1 H 314.2 V 48.1 H 314.9 V 48.1 H 315.7 V 48.1 H 316.4 V 48.1 H 317.2 V 48.1 H 318.0 V 48.1 H 318.7 V 48.1 H 319.5 V 48.1 H 320.2 V 48.1 H 321.0 V 48.1 H 321.7 V 48.1 H 322.5 V 48.1 H 323.2 V 48.1 H 324.0 V 48.1 H 324.7 V 48.1 H 325.5 V 48.1 H 326.2 V 48.1 H 327.0 V 48.1 H 327.7 V 48.1 H 328.5 V 48.1 H 329.2 V 48.1 H 330.0 V 48.1 H 330.7 V 48.1 H 331.5 V 48.1 H 332.2 V 48.1 H 333.0 V 48.1 H 333.7 V 48.1 H 334.5 V 48.1 H 335.2 V 48.1 H 336.0 V 48.1 H 336.8 V 48.1 H 337.5 V 48.1 H 338.3 V 48.1 H 339.0 V 48.1 H 339.8 V 48.1 H 340.5 V 48.1 H 341.3 V 48.1 H 342.0 V 48.1 H 342.8 V 48.1 H 343.5 V 48.1 H 344.3 V 48.1 H 345.0 V 48.1 H 345.8 V 48.1 H 346.5 V 48.1 H 347.3 V 48.1 H 348.0 V 48.1 H 348.8 V 48.1 H 349.5 V 48.1 H 350.3 V 48.1 H 351.0 V 48.1 H 351.8 V 48.1 H 352.5 V 48.1 H 353.3 V 48.1 H 354.0 V 48.1 H 354.8 V 48.1 H 355.6 V 48.1 H 356.3 V 48.1 H 357.1 V 48.1 H 357.8 V 48.1 H 358.6 V 48.1 H 359.3 V 48.1 H 360.1 V 48.1 H 360.8 V 48.1 H 361.6 V 48.1 H 362.3 V 48.1 H 363.1 V 48.1 H 363.8 V 48.1 H 364.6 V 48.1 H 365.3 V 48.1 H 366.1 V 48.1 H 366.8 V 48.1 H 367.6 V 48.1 H 368.3 V 48.1 H 369.1 V 48.1 H 369.8 V 48.1 H 370.6 V 48.1 H 371.3 V 48.1 H 372.1 V 48.1 H 372.8 V 48.1 H 373.6 V 48.1 H 374.4 V 48.1 H 375.1 V 48.1 H 375.9 V 48.1 H 376.6 V 48.1 H 377.4 V 48.1 H 378.1 V 48.1 H 378.9 V 48.1 H 379.6 V 48.1 H 380.4 V 48.1 H 381.1 V 48.1 H 381.9 V 48.1 H 382.6 V 48.1 H 383.4 V 48.1 H 384.1 V 48.1 H 384.9 V 48.1 H 385.6 V 48.1 H 386.4 V 48.1 H 387.1 V 48.1 H 387.9 V 48.1 H 388.6 V 48.1 H 389.4 V 48.1 H 390.1 V 48.1 H 390.9 V 48.1 H 391.6 V 48.1 H 392.4 V 48.1 H 393.2 V 48.1 H 393.9 V 48.1 H 394.7 V 48.1 H 395.4 V 48.1 H 396.2 V 48.1 H 396.9 V 48.1 H 397.7 V 48.1 H 398.4 V 48.1 H 399.2 V 48.1 H 399.9 V 48.1 H 400.7 V 48.1 H 401.4 V 48.1 H 402.2 V 48.1 H 402.9 V 48.1 H 403.7 V 48.1 H 404.4 V 48.1 H 405.2 V 48.1 H 405.9 V 48.1 H 406.7 V 48.1 H 407.4 V 48.1 H 408.2 V 48.1 H 408.9 V 48.1 H 409.7 V 48.1 H 410.4 V 48.1 H 411.2 V 48.1 H 412.0 V 48.1 H 412.7 V 48.1 H 413.5 V 48.1 H 414.2 V 48.1 H 415.0 V 48.1 H 415.7 V 48.1 H 416.5 V 48.1 H 417.2 V 48.1 H 418.0 V 48.1 H 418.7 V 48.1 H 419.5 V 48.1 H 420.2 V 48.1 H 421.0 V 48.1 H 421.7 V 48.1 H 422.5 V 48.1 H 423.2 V 48.1 H 424.0 V 48.1 H 424.7 V 48.1 H 425.5 V 48.1 H 426.2 V 48.1 H 427.0 V 48.1 H 427.7 V 48.1 H 428.5 V 48.1 H 429.2 V 48.1 H 430.0 V 48.1 H 430.8 V 48.1 H 431.5 V 48.1 H 432.3 V 48.1 H 433.0 V 48.1 H 433.8 V 48.1 H 434.5 V 48.1 H 435.3 V 48.1 H 436.0 V 48.1 H 436.8 V 48.1 H 437.5 V 48.1 H 438.3 V 48.1 H 439.0 V 48.1 H 439.0 V 48.1 H 439.0 V 48.1 H 439.0 V 48.1 H 439.0 V 48.1 H 439.0 V 48.1 H 439.0 V 48.1 H 439.1 V 48.1 H 439.1 V 48.1 H 439.2 V 48.1 H 439.4 V 48.1 H 439.8 V 48.1 H 440.5 V 48.1 H 441.3 V 48.1 H 442.0 V 48.1 H 442.8 V 48.1 H 443.6 V 48.1 H 444.3 V 48.1 H 445.1 V 48.1 H 445.8 V 48.1 H 446.6 V 48.1 H 447.3 V 48.1 H 448.1 V 48.1 H 448.8 V 48.1 H 449.6 V 48.1 H 450.3 V 48.1 H 451.1 V 48.1 H 451.8 V 48.1 H 452.6 V 48.1 H 453.3 V 48.1 H 454.1 V 48.1 H 454.8 V 48.1 H 455.6 V 48.1 H 456.3 V 48.1 H 457.1 V 48.1 H 457.8 V 48.1 H 458.6 V 48.1 H 459.3 V 48.1 H 460.1 V 48.1 H 460.8 V 48.1 H 461.6 V 48.1 H 462.4 V 48.1 H 463.1 V 48.1 H 463.9 V 48.1 H 464.6 V 48.1 H 465.4 V 48.1 H 466.1 V 48.1 H 466.9 V 48.1 H 467.6 V 48.1 H 468.4 V 48.1 H 469.1 V 48.1 H 469.9 V 48.1 H 470.6 V 48.1 H 471.4 V 48.1 H 472.1 V 48.1 H 472.9 V 48.1 H 473.6 V 48.1 H 474.4 V 48.1 H 475.1 V 48.1 H 475.9 V 48.1 H 476.6 V 48.1 H 477.4 V 48.1 H 478.1 V 48.1 H 478.9 V 48.1 H 479.6 V 48.1 H 480.4 V 48.1 H 481.2 V 48.1 H 481.9 V 48.1 H 482.7 V 48.1 H 483.4 V 48.1 H 484.2 V 48.1 H 484.9 V 48.1 H 485.7 V 48.1 H 486.4 V 48.1 H 487.2 V 48.1 H 487.9 V 48.1 H 488.7 V 48.1 H 489.4 V 48.1 H 490.2 V 48.1 H 490.9 V 48.1 H 491.7 V 48.1 H 492.4 V 48.1 H 493.2 V 48.1 H 493.9 V 48.1 H 494.7 V 48.1 H 495.4 V 48.1 H 496.2 V 48.1 H 496.9 V 48.1 H 497.7 V 48.1 H 498.4 V 48.1 H 499.2 V 48.1 H 500.0 V 48.1 H 500.7 V 48.1 H 501.5 V 48.1 H 502.2 V 48.1 H 503.0 V 48.1 H 503.7 V 48.1 H 504.5 V 48.1 H 505.2 V 48.1 H 506.0 V 48.1 H 506.7 V 48.1 H 507.5 V 48.1 H 508.2 V 48.1 H 509.0 V 48.1 H 509.7 V 48.1 H 510.5 V 48.1 H 511.2 V 48.1 H 512.0 V 48.1 H 512.7 V 48.1 H 513.5 V 48.1 H 514.2 V 48.1 H 515.0 V 48.1 H 515.7 V 48.1 H 516.5 V 48.1 H 516.5 V 104.2 H 516.5 V 104.2 H 516.5 V 104.2 H 516.5 V 104.2 H 516.5 V 104.2 H 516.5 V 104.2 H 516.5 V 104.2 H 516.6 V 104.2 H 516.7 V 104.2 H 516.9 V 104.2 H 517.3 V 104.2 H 518.0 V 104.2 H 518.8 V 104.2 H 519.5 V 104.2 H 520.3 V 104.2 H 521.0 V 104.2 H 521.8 V 104.2 H 522.5 V 104.2 H 523.3 V 104.2 H 524.0 V 104.2 H 524.8 V 104.2 H 525.5 V 104.2 H 526.3 V 104.2 H 527.0 V 104.2 H 527.8 V 104.2 H 528.5 V 104.2 H 529.3 V 104.2 H 530.1 V 104.2 H 530.8 V 104.2 H 531.6 V 104.2 H 532.3 V 104.2 H 533.1 V 104.2 H 533.8 V 104.2 H 534.6 V 104.2 H 535.3 V 104.2 H 536.1 V 104.2 H 536.8 V 104.2 H 537.6 V 104.2 H 538.3 V 104.2 H 539.1 V 104.2 H 539.8 V 104.2 H 540.6 V 104.2 H 541.3 V 104.2 H 542.1 V 104.2 H 542.8 V 104.2 H 543.6 V 104.2 H 544.3 V 104.2 H 545.1 V 104.2 H 545.8 V 104.2 H 546.6 V 104.2 H 547.3 V 104.2 H 548.1 V 104.2 H 548.9 V 104.2 H 549.6 V 104.2 H 550.4 V 104.2 H 551.1 V 104.2 H 551.9 V 104.2 H 552.6 V 104.2 H 553.4 V 104.2 H 554.1 V 104.2 H 554.9 V 104.2 H 555.6 V 104.2 H 556.4 V 104.2 H 557.1 V 104.2 H 557.9 V 104.2 H 558.6 V 104.2 H 559.4 V 104.2 H 560.1 V 104.2 H 560.9 V 104.2 H 561.6 V 104.2 H 562.4 V 104.2 H 563.1 V 104.2 H 563.9 V 104.2 H 564.6 V 104.2 H 565.4 V 104.2 H 566.1 V 104.2 H 566.9 V 104.2 H 567.7 V 104.2 H 568.4 V 104.2 H 569.2 V 104.2 H 569.9 V 104.2 H 570.7 V 104.2 H 571.4 V 104.2 H 572.2 V 104.2 H 572.9 V 104.2 H 573.7 V 104.2 H 574.4 V 104.2 H 575.2 V 104.2 H 575.9 V 104.2 H 576.7 V 104.2 H 577.4 V 104.2 H 578.2 V 104.2 H 578.9 V 104.2 H 579.7 V 104.2 H 580.4 V 104.2 H 581.2 V 104.2 H 581.9 V 104.2 H 582.7 V 104.2 H 583.4 V 104.2 H 584.2 V 104.2 H 584.9 V 104.2 H 585.7 V 104.2 H 586.5 V 104.2 H 587.2 V 104.2 H 588.0 V 104.2 H 588.7 V 104.2 H 589.5 V 104.2 H 590.2 V 104.2 H 591.0 V 104.2 H 591.7 V 104.2 H 592.5 V 104.2 H 593.2 V 104.2 H 594.0 V 104.2 H 594.7 V 104.2 H 595.5 V 104.2 H 596.2 V 104.2 H 597.0 V 104.2 H 597.7 V 104.2 H 598.5 V 104.2 H 599.2 V 104.2 H 600.0 V 104.2 H 600.7 V 104.2 H 601.5 V 104.2 H 602.2 V 104.2 H 603.0 V 104.2 H 603.7 V 104.2 H 604.5 V 104.2 H 605.3 V 104.2 H 606.0 V 104.2 H 606.8 V 104.2 H 607.5 V 104.2 H 608.3 V 104.2 H 609.0 V 104.2 H 609.8 V 104.2 H 610.5 V 104.2 H 611.3 V 104.2 H 612.0 V 104.2 H 612.8 V 104.2 H 613.5 V 104.2 H 614.3 V 104.2 H 615.0 V 104.2 H 615.8 V 104.2 H 616.5 V 104.2 H 617.3 V 104.2 H 618.0 V 104.2 H 618.8 V 104.2 H 619.5 V 104.2 H 620.3 V 104.2 H 621.0 V 104.2 H 621.8 V 104.2 H 622.5 V 104.2 H 623.3 V 104.2 H 624.1 V 104.2 H 624.8 V 104.2 H 625.6 V 104.2 H 626.3 V 104.2 H 627.1 V 104.2 H 627.8 V 104.2 H 628.6 V 104.2 H 629.3 V 104.2 H 630.1 V 104.2 H 630.8 V 104.2 H 631.6 V 104.2 H 632.3 V 104.2 H 633.1 V 104.2 H 633.8 V 104.2 H 634.6 V 104.2 H 635.3 V 104.2 H 636.1 V 104.2 H 636.8 V 104.2 H 637.6 V 104.2 H 638.3 V 104.2 H 639.1 V 104.2 H 639.8 V 104.2 H 640.6 V 104.2 H 641.3 V 104.2 H 642.1 V 104.2 H 642.9 V 104.2 H 643.6 V 104.2 H 644.4 V 104.2 H 645.1 V 104.2 H 645.9 V 104.2 H 646.6 V 104.2 H 647.4 V 104.2 H 648.1 V 104.2 H 648.9 V 104.2 H 649.6 V 104.2 H 650.4 V 104.2 H 651.1 V 104.2 H 651.9 V 104.2 H 652.6 V 104.2 H 653.4 V 104.2 H 654.1 V 104.2 H 654.9 V 104.2 H 655.6 V 104.2 H 656.4 V 104.2 H 657.1 V 104.2 H 657.9 V 104.2 H 658.6 V 104.2 H 659.4 V 104.2 H 660.1 V 104.2 H 660.9 V 104.2 H 661.7 V 104.2 H 662.4 V 104.2 H 663.2 V 104.2 H 663.9 V 104.2 H 664.7 V 104.2 H 665.4 V 104.2 H 666.2 V 104.2 H 666.9 V 104.2 H 667.7 V 104.2 H 668.4 V 104.2 H 669.2 V 104.2 H 669.9 V 104.2 H 670.7 V 104.2 H 671.4 V 104.2 H 672.2 V 104.2 H 672.9 V 104.2 H 673.7 V 104.2 H 674.4 V 104.2 H 675.2 V 104.2 H 675.9 V 104.2 H 676.7 V 104.2 H 677.4 V 104.2 H 678.2 V 104.2 H 678.9 V 104.2 H 679.7 V 104.2 H 680.5 V 104.2 H 681.2 V 104.2 H 682.0 V 104.2 H 682.7 V 104.2 H 683.5 V 104.2 H 684.2 V 104.2 H 685.0 V 104.2 H 685.7 V 104.2 H 686.5 V 104.2 H 687.2 V 104.2 H 688.0 V 104.2 H 688.7 V 104.2 H 689.5 V 104.2 H 690.2 V 104.2 H 691.0 V 104.2 H 691.7 V 104.2 H 692.5 V 104.2 H 693.2 V 104.2 H 694.0 V 104.2 H 694.7 V 104.2 H 695.5 V 104.2 H 696.2 V 104.2 H 697.0 V 104.2 H 697.7 V 104.2 H 698.5 V 104.2 H 699.3 V 104.2 H 700.0 V 104.2 H 700.8 V 104.2 H 701.5 V 104.2 H 702.3 V 104.2 H 703.0 V 104.2 H 703.8 V 104.2 H 704.5 V 104.2 H 705.3 V 104.2 H 706.0 V 104.2 H 706.8 V 104.2 H 707.5 V 104.2 H 708.3 V 104.2 H 709.0 V 104.2 H 709.8 V 104.2 H 710.5 V 104.2 H 711.3 V 104.2 H 712.0 V 104.2 H 712.8 V 104.2 H 713.5 V 104.2 H 714.3 V 104.2 H 715.0 V 104.2 H 715.8 V 104.2 H 716.5 V 104.2 H 717.3 V 104.2 H 718.1 V 104.2 H 718.8 V 104.2 H 719.6 V 104.2 H 720.3 V 104.2 H 721.1 V 104.2 H 721.8 V 104.2 H 722.6 V 104.2 H 723.3 V 104.2 H 724.1 V 104.2 H 724.8 V 104.2 H 725.6 V 104.2 H 726.3 V 104.2 H 727.1 V 104.2 H 727.8 V 104.2 H 728.6 V 104.2 H 729.3 V 104.2 H 730.1 V 104.2 H 730.8 V 104.2 H 731.6 V 104.2 H 732.3 V 104.2 H 733.1 V 104.2 H 733.8 V 104.2 H 734.6 V 104.2 H 735.3 V 104.2 H 736.1 V 104.2 H 736.9 V 104.2 H 737.6 V 104.2 H 738.4 V 104.2 H 739.1 V 104.2 H 739.9 V 104.2 H 740.6 V 104.2 H 741.4 V 104.2 H 742.1 V 104.2 H 742.9 V 104.2 H 743.6 V 104.2 H 744.4 V 104.2 H 745.1 V 104.2 H 745.9 V 104.2 H 746.6 V 104.2 H 747.4 V 104.2 H 748.1 V 104.2 H 748.9 V 104.2 H 749.6 V 104.2 H 750.4 V 104.2 H 751.1 V 104.2 H 751.9 V 104.2 H 752.6 V 104.2 H 753.4 V 104.2 H 754.1 V 104.2 H 754.9 V 104.2 H 755.7 V 104.2 H 756.4 V 104.2 H 757.2 V 104.2 H 757.9 V 104.2 H 758.7 V 104.2 H 759.4 V 104.2 H 760.2 V 104.2 H 760.9 V 104.2 H 761.7 V 104.2 H 762.4 V 104.2 H 763.2 V 104.2 H 763.9 V 104.2 H 764.7 V 104.2 H 765.4 V 104.2 H 766.2 V 104.2 H 766.9 V 104.2 H 767.7 V 104.2 H 768.4 V 104.2 H 769.2 V 104.2 H 769.9 V 104.2 H 770.7 V 104.2 H 771.4 V 104.2 H 772.2 V 104.2 H 772.9 V 104.2 H 773.7 V 104.2 H 774.5 V 104.2 H 775.2 V 104.2 H 776.0 V 104.2 H 776.7 V 104.2 H 777.5 V 104.2 H 778.2 V 104.2 H 779.0 V 104.2 H 779.7 V 104.2 H 780.5 V 104.2 H 781.2 V 104.2 H 782.0 V 104.2 H 782.7 V 104.2 H 783.5 V 104.2 H 784.2 V 104.2 H 785.0 V 104.2 H 785.7 V 104.2 H 786.5 V 104.2 H 787.2 V 104.2 H 788.0 V 104.2 H 788.7 V 104.2 H 789.5 V 104.2 H 790.2 V 104.2 H 791.0 V 104.2 H 791.7 V 104.2 H 792.5 V 104.2 H 793.3 V 104.2 H 794.0 V 104.2 H 794.8 V 104.2 H 795.5 V 104.2 H 796.3 V 104.2 H 797.0 V 104.2 H 797.8 V 104.2 H 798.5 V 104.2 H 799.3 V 104.2 H 800.0 V 104.2 H 800.8 V 104.2 H 801.5 V 104.2 H 802.3 V 104.2 H 803.0 V 104.2 H 803.8 V 104.2 H 804.5 V 104.2 H 805.3 V 104.2 H 806.0 V 104.2" fill="none" stroke="#2a78d6" stroke-width="2"/><text x="60.0" y="40.1" font-size="11.5" font-weight="600" fill="#2a78d6">outM  exact multiplier</text><text x="50.0" y="52.1" text-anchor="end" font-size="9.5" fill="#898781">1</text><text x="50.0" y="108.2" text-anchor="end" font-size="9.5" fill="#898781">0</text><path d="M 54.0 146.4 H 54.8 V 146.4 H 55.5 V 146.4 H 56.3 V 146.4 H 57.0 V 146.4 H 57.8 V 146.4 H 58.5 V 146.4 H 59.3 V 146.4 H 60.0 V 146.4 H 60.8 V 146.4 H 61.5 V 146.4 H 62.3 V 146.4 H 63.0 V 146.4 H 63.8 V 146.4 H 64.5 V 146.4 H 65.3 V 146.4 H 66.0 V 146.4 H 66.8 V 146.4 H 67.5 V 146.4 H 68.3 V 146.4 H 69.0 V 146.4 H 69.8 V 146.4 H 70.5 V 146.4 H 71.3 V 146.4 H 72.0 V 146.4 H 72.8 V 146.4 H 73.6 V 146.4 H 74.3 V 146.4 H 75.1 V 146.4 H 75.8 V 146.4 H 76.6 V 146.4 H 77.3 V 146.4 H 78.1 V 146.4 H 78.8 V 146.4 H 79.6 V 146.4 H 80.3 V 146.4 H 81.1 V 146.4 H 81.8 V 146.4 H 82.6 V 146.4 H 83.3 V 146.4 H 84.1 V 146.4 H 84.8 V 146.4 H 85.6 V 146.4 H 86.3 V 146.4 H 87.1 V 146.4 H 87.8 V 146.4 H 88.6 V 146.4 H 89.3 V 146.4 H 90.1 V 146.4 H 90.8 V 146.4 H 91.6 V 146.4 H 92.4 V 146.4 H 93.1 V 146.4 H 93.9 V 146.4 H 94.6 V 146.4 H 95.4 V 146.4 H 96.1 V 146.4 H 96.9 V 146.4 H 97.6 V 146.4 H 98.4 V 146.4 H 99.1 V 146.4 H 99.9 V 146.4 H 100.6 V 146.4 H 101.4 V 146.4 H 102.1 V 146.4 H 102.9 V 146.4 H 103.6 V 146.4 H 104.4 V 146.4 H 105.1 V 146.4 H 105.9 V 146.4 H 106.6 V 146.4 H 107.4 V 146.4 H 108.1 V 146.4 H 108.9 V 146.4 H 109.6 V 146.4 H 110.4 V 146.4 H 111.2 V 146.4 H 111.9 V 146.4 H 112.7 V 146.4 H 113.4 V 146.4 H 114.2 V 146.4 H 114.9 V 146.4 H 115.7 V 146.4 H 116.4 V 146.4 H 117.2 V 146.4 H 117.9 V 146.4 H 118.7 V 146.4 H 119.4 V 146.4 H 120.2 V 146.4 H 120.9 V 146.4 H 121.7 V 146.4 H 122.4 V 146.4 H 123.2 V 146.4 H 123.9 V 146.4 H 124.7 V 146.4 H 125.4 V 146.4 H 126.2 V 146.4 H 126.9 V 146.4 H 127.7 V 146.4 H 128.4 V 146.4 H 129.2 V 146.4 H 130.0 V 146.4 H 130.7 V 146.4 H 131.5 V 146.4 H 132.2 V 146.4 H 133.0 V 146.4 H 133.7 V 146.4 H 134.5 V 146.4 H 135.2 V 146.4 H 136.0 V 146.4 H 136.7 V 146.4 H 137.5 V 146.4 H 138.2 V 146.4 H 139.0 V 146.4 H 139.7 V 146.4 H 140.5 V 146.4 H 141.2 V 146.4 H 142.0 V 146.4 H 142.7 V 146.4 H 143.5 V 146.4 H 144.2 V 146.4 H 145.0 V 146.4 H 145.7 V 146.4 H 146.5 V 146.4 H 147.2 V 146.4 H 148.0 V 146.4 H 148.8 V 146.4 H 149.5 V 146.4 H 150.3 V 146.4 H 151.0 V 146.4 H 151.8 V 146.4 H 152.5 V 146.4 H 153.3 V 146.4 H 154.0 V 146.4 H 154.8 V 146.4 H 155.5 V 146.4 H 156.3 V 146.4 H 157.0 V 146.4 H 157.8 V 146.4 H 158.5 V 146.4 H 159.3 V 146.4 H 160.0 V 146.4 H 160.8 V 146.4 H 161.5 V 146.4 H 162.3 V 146.4 H 163.0 V 146.4 H 163.8 V 146.4 H 164.5 V 146.4 H 165.3 V 146.4 H 166.0 V 146.4 H 166.8 V 146.4 H 167.6 V 146.4 H 168.3 V 146.4 H 169.1 V 146.4 H 169.8 V 146.4 H 170.6 V 146.4 H 171.3 V 146.4 H 172.1 V 146.4 H 172.8 V 146.4 H 173.6 V 146.4 H 174.3 V 146.4 H 175.1 V 146.4 H 175.8 V 146.4 H 176.6 V 146.4 H 177.3 V 146.4 H 178.1 V 146.4 H 178.8 V 146.4 H 179.6 V 146.4 H 180.3 V 146.4 H 181.1 V 146.4 H 181.8 V 146.4 H 182.6 V 146.4 H 183.3 V 146.4 H 184.1 V 146.4 H 184.8 V 146.4 H 185.6 V 146.4 H 186.4 V 146.4 H 187.1 V 146.4 H 187.9 V 146.4 H 188.6 V 146.4 H 189.4 V 146.4 H 190.1 V 146.4 H 190.9 V 146.4 H 191.6 V 146.4 H 192.4 V 146.4 H 193.1 V 146.4 H 193.9 V 146.4 H 194.6 V 146.4 H 195.4 V 146.4 H 196.1 V 146.4 H 196.9 V 146.4 H 197.6 V 146.4 H 198.4 V 146.4 H 199.1 V 146.4 H 199.9 V 146.4 H 200.6 V 146.4 H 201.4 V 146.4 H 202.1 V 146.4 H 202.9 V 146.4 H 203.6 V 146.4 H 204.4 V 146.4 H 205.2 V 146.4 H 205.9 V 146.4 H 206.7 V 146.4 H 207.4 V 146.4 H 208.2 V 146.4 H 208.9 V 146.4 H 209.7 V 146.4 H 210.4 V 146.4 H 211.2 V 146.4 H 211.9 V 146.4 H 212.7 V 146.4 H 213.4 V 146.4 H 214.2 V 146.4 H 214.9 V 146.4 H 215.7 V 146.4 H 216.4 V 146.4 H 217.2 V 146.4 H 217.9 V 146.4 H 218.7 V 146.4 H 219.4 V 146.4 H 220.2 V 146.4 H 220.9 V 146.4 H 221.7 V 146.4 H 222.4 V 146.4 H 223.2 V 146.4 H 224.0 V 146.4 H 224.7 V 146.4 H 225.5 V 146.4 H 226.2 V 146.4 H 227.0 V 146.4 H 227.7 V 146.4 H 228.5 V 146.4 H 229.2 V 146.4 H 230.0 V 146.4 H 230.7 V 146.4 H 231.5 V 146.4 H 232.2 V 146.4 H 233.0 V 146.4 H 233.7 V 146.4 H 234.5 V 146.4 H 235.2 V 146.4 H 236.0 V 146.4 H 236.7 V 146.4 H 237.5 V 146.4 H 238.2 V 146.4 H 239.0 V 146.4 H 239.7 V 146.4 H 240.5 V 146.4 H 241.2 V 146.4 H 242.0 V 146.4 H 242.8 V 146.4 H 243.5 V 146.4 H 244.3 V 146.4 H 245.0 V 146.4 H 245.8 V 146.4 H 246.5 V 146.4 H 247.3 V 146.4 H 248.0 V 146.4 H 248.8 V 146.4 H 249.5 V 146.4 H 250.3 V 146.4 H 251.0 V 146.4 H 251.8 V 146.4 H 252.5 V 146.4 H 253.3 V 146.4 H 254.0 V 146.4 H 254.8 V 146.4 H 255.5 V 146.4 H 256.3 V 146.4 H 257.0 V 146.4 H 257.8 V 146.4 H 258.5 V 146.4 H 259.3 V 146.4 H 260.0 V 146.4 H 260.8 V 146.4 H 261.6 V 146.4 H 262.3 V 146.4 H 263.1 V 146.4 H 263.8 V 146.4 H 264.6 V 146.4 H 265.3 V 146.4 H 266.1 V 146.4 H 266.8 V 146.4 H 267.6 V 146.4 H 268.3 V 146.4 H 269.1 V 146.4 H 269.8 V 146.4 H 270.6 V 146.4 H 271.3 V 146.4 H 272.1 V 146.4 H 272.8 V 146.4 H 273.6 V 146.4 H 274.3 V 146.4 H 275.1 V 146.4 H 275.8 V 146.4 H 276.6 V 146.4 H 277.3 V 146.4 H 278.1 V 146.4 H 278.8 V 146.4 H 279.6 V 146.4 H 280.4 V 146.4 H 281.1 V 146.4 H 281.9 V 146.4 H 282.6 V 146.4 H 283.4 V 146.4 H 284.1 V 146.4 H 284.9 V 146.4 H 285.6 V 146.4 H 286.4 V 146.4 H 287.1 V 146.4 H 287.9 V 146.4 H 288.6 V 146.4 H 289.4 V 146.4 H 290.1 V 146.4 H 290.9 V 146.4 H 291.6 V 146.4 H 292.4 V 146.4 H 293.1 V 146.4 H 293.9 V 146.4 H 294.6 V 146.4 H 295.4 V 146.4 H 296.1 V 146.4 H 296.9 V 146.4 H 297.6 V 146.4 H 298.4 V 146.4 H 299.2 V 146.4 H 299.9 V 146.4 H 300.7 V 146.4 H 301.4 V 146.4 H 302.2 V 146.4 H 302.9 V 146.4 H 303.7 V 146.4 H 304.4 V 146.4 H 305.2 V 146.4 H 305.9 V 146.4 H 306.7 V 146.4 H 307.4 V 146.4 H 308.2 V 146.4 H 308.9 V 146.4 H 309.7 V 146.4 H 310.4 V 146.4 H 311.2 V 146.4 H 311.9 V 146.4 H 312.7 V 146.4 H 313.4 V 146.4 H 314.2 V 146.4 H 314.9 V 146.4 H 315.7 V 146.4 H 316.4 V 146.4 H 317.2 V 146.4 H 318.0 V 146.4 H 318.7 V 146.4 H 319.5 V 146.4 H 320.2 V 146.4 H 321.0 V 146.4 H 321.7 V 146.4 H 322.5 V 146.4 H 323.2 V 146.4 H 324.0 V 146.4 H 324.7 V 146.4 H 325.5 V 146.4 H 326.2 V 146.4 H 327.0 V 146.4 H 327.7 V 146.4 H 328.5 V 146.4 H 329.2 V 146.4 H 330.0 V 146.4 H 330.7 V 146.4 H 331.5 V 146.4 H 332.2 V 146.4 H 333.0 V 146.4 H 333.7 V 146.4 H 334.5 V 146.4 H 335.2 V 146.4 H 336.0 V 146.4 H 336.8 V 146.4 H 337.5 V 146.4 H 338.3 V 146.4 H 339.0 V 146.4 H 339.8 V 146.4 H 340.5 V 146.4 H 341.3 V 146.4 H 342.0 V 146.4 H 342.8 V 146.4 H 343.5 V 146.4 H 344.3 V 146.4 H 345.0 V 146.4 H 345.8 V 146.4 H 346.5 V 146.4 H 347.3 V 146.4 H 348.0 V 146.4 H 348.8 V 146.4 H 349.5 V 146.4 H 350.3 V 146.4 H 351.0 V 146.4 H 351.8 V 146.4 H 352.5 V 146.4 H 353.3 V 146.4 H 354.0 V 146.4 H 354.8 V 146.4 H 355.6 V 146.4 H 356.3 V 146.4 H 357.1 V 146.4 H 357.8 V 146.4 H 358.6 V 146.4 H 359.3 V 146.4 H 360.1 V 146.4 H 360.8 V 146.4 H 361.6 V 146.4 H 362.3 V 146.4 H 363.1 V 146.4 H 363.8 V 146.4 H 364.6 V 146.4 H 365.3 V 146.4 H 366.1 V 146.4 H 366.8 V 146.4 H 367.6 V 146.4 H 368.3 V 146.4 H 369.1 V 146.4 H 369.8 V 146.4 H 370.6 V 146.4 H 371.3 V 146.4 H 372.1 V 146.4 H 372.8 V 146.4 H 373.6 V 146.4 H 374.4 V 146.4 H 375.1 V 146.4 H 375.9 V 146.4 H 376.6 V 146.4 H 377.4 V 146.4 H 378.1 V 146.4 H 378.9 V 146.4 H 379.6 V 146.4 H 380.4 V 146.4 H 381.1 V 146.4 H 381.9 V 146.4 H 382.6 V 146.4 H 383.4 V 146.4 H 384.1 V 146.4 H 384.9 V 146.4 H 385.6 V 146.4 H 386.4 V 146.4 H 387.1 V 146.4 H 387.9 V 146.4 H 388.6 V 146.4 H 389.4 V 146.4 H 390.1 V 146.4 H 390.9 V 146.4 H 391.6 V 146.4 H 392.4 V 146.4 H 393.2 V 146.4 H 393.9 V 146.4 H 394.7 V 146.4 H 395.4 V 146.4 H 396.2 V 146.4 H 396.9 V 146.4 H 397.7 V 146.4 H 398.4 V 146.4 H 399.2 V 146.4 H 399.9 V 146.4 H 400.7 V 146.4 H 401.4 V 146.4 H 402.2 V 146.4 H 402.9 V 146.4 H 403.7 V 146.4 H 404.4 V 146.4 H 405.2 V 146.4 H 405.9 V 146.4 H 406.7 V 146.4 H 407.4 V 146.4 H 408.2 V 146.4 H 408.9 V 146.4 H 409.7 V 146.4 H 410.4 V 146.4 H 411.2 V 146.4 H 412.0 V 146.4 H 412.7 V 146.4 H 413.5 V 146.4 H 414.2 V 146.4 H 415.0 V 146.4 H 415.7 V 146.4 H 416.5 V 146.4 H 417.2 V 146.4 H 418.0 V 146.4 H 418.7 V 146.4 H 419.5 V 146.4 H 420.2 V 146.4 H 421.0 V 146.4 H 421.7 V 146.4 H 422.5 V 146.4 H 423.2 V 146.4 H 424.0 V 146.4 H 424.7 V 146.4 H 425.5 V 146.4 H 426.2 V 146.4 H 427.0 V 146.4 H 427.7 V 146.4 H 428.5 V 146.4 H 429.2 V 146.4 H 430.0 V 146.4 H 430.8 V 146.4 H 431.5 V 146.4 H 432.3 V 146.4 H 433.0 V 146.4 H 433.8 V 146.4 H 434.5 V 146.4 H 435.3 V 146.4 H 436.0 V 146.4 H 436.8 V 146.4 H 437.5 V 146.4 H 438.3 V 146.4 H 439.0 V 146.4 H 439.0 V 202.5 H 439.0 V 202.5 H 439.0 V 202.5 H 439.0 V 202.5 H 439.0 V 202.5 H 439.0 V 202.5 H 439.1 V 202.5 H 439.1 V 202.5 H 439.2 V 202.5 H 439.4 V 202.5 H 439.8 V 202.5 H 440.5 V 202.5 H 441.3 V 202.5 H 442.0 V 202.5 H 442.8 V 202.5 H 443.6 V 202.5 H 444.3 V 202.5 H 445.1 V 202.5 H 445.8 V 202.5 H 446.6 V 202.5 H 447.3 V 202.5 H 448.1 V 202.5 H 448.8 V 202.5 H 449.6 V 202.5 H 450.3 V 202.5 H 451.1 V 202.5 H 451.8 V 202.5 H 452.6 V 202.5 H 453.3 V 202.5 H 454.1 V 202.5 H 454.8 V 202.5 H 455.6 V 202.5 H 456.3 V 202.5 H 457.1 V 202.5 H 457.8 V 202.5 H 458.6 V 202.5 H 459.3 V 202.5 H 460.1 V 202.5 H 460.8 V 202.5 H 461.6 V 202.5 H 462.4 V 202.5 H 463.1 V 202.5 H 463.9 V 202.5 H 464.6 V 202.5 H 465.4 V 202.5 H 466.1 V 202.5 H 466.9 V 202.5 H 467.6 V 202.5 H 468.4 V 202.5 H 469.1 V 202.5 H 469.9 V 202.5 H 470.6 V 202.5 H 471.4 V 202.5 H 472.1 V 202.5 H 472.9 V 202.5 H 473.6 V 202.5 H 474.4 V 202.5 H 475.1 V 202.5 H 475.9 V 202.5 H 476.6 V 202.5 H 477.4 V 202.5 H 478.1 V 202.5 H 478.9 V 202.5 H 479.6 V 202.5 H 480.4 V 202.5 H 481.2 V 202.5 H 481.9 V 202.5 H 482.7 V 202.5 H 483.4 V 202.5 H 484.2 V 202.5 H 484.9 V 202.5 H 485.7 V 202.5 H 486.4 V 202.5 H 487.2 V 202.5 H 487.9 V 202.5 H 488.7 V 202.5 H 489.4 V 202.5 H 490.2 V 202.5 H 490.9 V 202.5 H 491.7 V 202.5 H 492.4 V 202.5 H 493.2 V 202.5 H 493.9 V 202.5 H 494.7 V 202.5 H 495.4 V 202.5 H 496.2 V 202.5 H 496.9 V 202.5 H 497.7 V 202.5 H 498.4 V 202.5 H 499.2 V 202.5 H 500.0 V 202.5 H 500.7 V 202.5 H 501.5 V 202.5 H 502.2 V 202.5 H 503.0 V 202.5 H 503.7 V 202.5 H 504.5 V 202.5 H 505.2 V 202.5 H 506.0 V 202.5 H 506.7 V 202.5 H 507.5 V 202.5 H 508.2 V 202.5 H 509.0 V 202.5 H 509.7 V 202.5 H 510.5 V 202.5 H 511.2 V 202.5 H 512.0 V 202.5 H 512.7 V 202.5 H 513.5 V 202.5 H 514.2 V 202.5 H 515.0 V 202.5 H 515.7 V 202.5 H 516.5 V 202.5 H 516.5 V 202.5 H 516.5 V 202.5 H 516.5 V 202.5 H 516.5 V 202.5 H 516.5 V 202.5 H 516.5 V 202.5 H 516.5 V 202.5 H 516.6 V 202.5 H 516.7 V 202.5 H 516.9 V 202.5 H 517.3 V 202.5 H 518.0 V 202.5 H 518.8 V 202.5 H 519.5 V 202.5 H 520.3 V 202.5 H 521.0 V 202.5 H 521.8 V 202.5 H 522.5 V 202.5 H 523.3 V 202.5 H 524.0 V 202.5 H 524.8 V 202.5 H 525.5 V 202.5 H 526.3 V 202.5 H 527.0 V 202.5 H 527.8 V 202.5 H 528.5 V 202.5 H 529.3 V 202.5 H 530.1 V 202.5 H 530.8 V 202.5 H 531.6 V 202.5 H 532.3 V 202.5 H 533.1 V 202.5 H 533.8 V 202.5 H 534.6 V 202.5 H 535.3 V 202.5 H 536.1 V 202.5 H 536.8 V 202.5 H 537.6 V 202.5 H 538.3 V 202.5 H 539.1 V 202.5 H 539.8 V 202.5 H 540.6 V 202.5 H 541.3 V 202.5 H 542.1 V 202.5 H 542.8 V 202.5 H 543.6 V 202.5 H 544.3 V 202.5 H 545.1 V 202.5 H 545.8 V 202.5 H 546.6 V 202.5 H 547.3 V 202.5 H 548.1 V 202.5 H 548.9 V 202.5 H 549.6 V 202.5 H 550.4 V 202.5 H 551.1 V 202.5 H 551.9 V 202.5 H 552.6 V 202.5 H 553.4 V 202.5 H 554.1 V 202.5 H 554.9 V 202.5 H 555.6 V 202.5 H 556.4 V 202.5 H 557.1 V 202.5 H 557.9 V 202.5 H 558.6 V 202.5 H 559.4 V 202.5 H 560.1 V 202.5 H 560.9 V 202.5 H 561.6 V 202.5 H 562.4 V 202.5 H 563.1 V 202.5 H 563.9 V 202.5 H 564.6 V 202.5 H 565.4 V 202.5 H 566.1 V 202.5 H 566.9 V 202.5 H 567.7 V 202.5 H 568.4 V 202.5 H 569.2 V 202.5 H 569.9 V 202.5 H 570.7 V 202.5 H 571.4 V 202.5 H 572.2 V 202.5 H 572.9 V 202.5 H 573.7 V 202.5 H 574.4 V 202.5 H 575.2 V 202.5 H 575.9 V 202.5 H 576.7 V 202.5 H 577.4 V 202.5 H 578.2 V 202.5 H 578.9 V 202.5 H 579.7 V 202.5 H 580.4 V 202.5 H 581.2 V 202.5 H 581.9 V 202.5 H 582.7 V 202.5 H 583.4 V 202.5 H 584.2 V 202.5 H 584.9 V 202.5 H 585.7 V 202.5 H 586.5 V 202.5 H 587.2 V 202.5 H 588.0 V 202.5 H 588.7 V 202.5 H 589.5 V 202.5 H 590.2 V 202.5 H 591.0 V 202.5 H 591.7 V 202.5 H 592.5 V 202.5 H 593.2 V 202.5 H 594.0 V 202.5 H 594.7 V 202.5 H 595.5 V 202.5 H 596.2 V 202.5 H 597.0 V 202.5 H 597.7 V 202.5 H 598.5 V 202.5 H 599.2 V 202.5 H 600.0 V 202.5 H 600.7 V 202.5 H 601.5 V 202.5 H 602.2 V 202.5 H 603.0 V 202.5 H 603.7 V 202.5 H 604.5 V 202.5 H 605.3 V 202.5 H 606.0 V 202.5 H 606.8 V 202.5 H 607.5 V 202.5 H 608.3 V 202.5 H 609.0 V 202.5 H 609.8 V 202.5 H 610.5 V 202.5 H 611.3 V 202.5 H 612.0 V 202.5 H 612.8 V 202.5 H 613.5 V 202.5 H 614.3 V 202.5 H 615.0 V 202.5 H 615.8 V 202.5 H 616.5 V 202.5 H 617.3 V 202.5 H 618.0 V 202.5 H 618.8 V 202.5 H 619.5 V 202.5 H 620.3 V 202.5 H 621.0 V 202.5 H 621.8 V 202.5 H 622.5 V 202.5 H 623.3 V 202.5 H 624.1 V 202.5 H 624.8 V 202.5 H 625.6 V 202.5 H 626.3 V 202.5 H 627.1 V 202.5 H 627.8 V 202.5 H 628.6 V 202.5 H 629.3 V 202.5 H 630.1 V 202.5 H 630.8 V 202.5 H 631.6 V 202.5 H 632.3 V 202.5 H 633.1 V 202.5 H 633.8 V 202.5 H 634.6 V 202.5 H 635.3 V 202.5 H 636.1 V 202.5 H 636.8 V 202.5 H 637.6 V 202.5 H 638.3 V 202.5 H 639.1 V 202.5 H 639.8 V 202.5 H 640.6 V 202.5 H 641.3 V 202.5 H 642.1 V 202.5 H 642.9 V 202.5 H 643.6 V 202.5 H 644.4 V 202.5 H 645.1 V 202.5 H 645.9 V 202.5 H 646.6 V 202.5 H 647.4 V 202.5 H 648.1 V 202.5 H 648.9 V 202.5 H 649.6 V 202.5 H 650.4 V 202.5 H 651.1 V 202.5 H 651.9 V 202.5 H 652.6 V 202.5 H 653.4 V 202.5 H 654.1 V 202.5 H 654.9 V 202.5 H 655.6 V 202.5 H 656.4 V 202.5 H 657.1 V 202.5 H 657.9 V 202.5 H 658.6 V 202.5 H 659.4 V 202.5 H 660.1 V 202.5 H 660.9 V 202.5 H 661.7 V 202.5 H 662.4 V 202.5 H 663.2 V 202.5 H 663.9 V 202.5 H 664.7 V 202.5 H 665.4 V 202.5 H 666.2 V 202.5 H 666.9 V 202.5 H 667.7 V 202.5 H 668.4 V 202.5 H 669.2 V 202.5 H 669.9 V 202.5 H 670.7 V 202.5 H 671.4 V 202.5 H 672.2 V 202.5 H 672.9 V 202.5 H 673.7 V 202.5 H 674.4 V 202.5 H 675.2 V 202.5 H 675.9 V 202.5 H 676.7 V 202.5 H 677.4 V 202.5 H 678.2 V 202.5 H 678.9 V 202.5 H 679.7 V 202.5 H 680.5 V 202.5 H 681.2 V 202.5 H 682.0 V 202.5 H 682.7 V 202.5 H 683.5 V 202.5 H 684.2 V 202.5 H 685.0 V 202.5 H 685.7 V 202.5 H 686.5 V 202.5 H 687.2 V 202.5 H 688.0 V 202.5 H 688.7 V 202.5 H 689.5 V 202.5 H 690.2 V 202.5 H 691.0 V 202.5 H 691.7 V 202.5 H 692.5 V 202.5 H 693.2 V 202.5 H 694.0 V 202.5 H 694.7 V 202.5 H 695.5 V 202.5 H 696.2 V 202.5 H 697.0 V 202.5 H 697.7 V 202.5 H 698.5 V 202.5 H 699.3 V 202.5 H 700.0 V 202.5 H 700.8 V 202.5 H 701.5 V 202.5 H 702.3 V 202.5 H 703.0 V 202.5 H 703.8 V 202.5 H 704.5 V 202.5 H 705.3 V 202.5 H 706.0 V 202.5 H 706.8 V 202.5 H 707.5 V 202.5 H 708.3 V 202.5 H 709.0 V 202.5 H 709.8 V 202.5 H 710.5 V 202.5 H 711.3 V 202.5 H 712.0 V 202.5 H 712.8 V 202.5 H 713.5 V 202.5 H 714.3 V 202.5 H 715.0 V 202.5 H 715.8 V 202.5 H 716.5 V 202.5 H 717.3 V 202.5 H 718.1 V 202.5 H 718.8 V 202.5 H 719.6 V 202.5 H 720.3 V 202.5 H 721.1 V 202.5 H 721.8 V 202.5 H 722.6 V 202.5 H 723.3 V 202.5 H 724.1 V 202.5 H 724.8 V 202.5 H 725.6 V 202.5 H 726.3 V 202.5 H 727.1 V 202.5 H 727.8 V 202.5 H 728.6 V 202.5 H 729.3 V 202.5 H 730.1 V 202.5 H 730.8 V 202.5 H 731.6 V 202.5 H 732.3 V 202.5 H 733.1 V 202.5 H 733.8 V 202.5 H 734.6 V 202.5 H 735.3 V 202.5 H 736.1 V 202.5 H 736.9 V 202.5 H 737.6 V 202.5 H 738.4 V 202.5 H 739.1 V 202.5 H 739.9 V 202.5 H 740.6 V 202.5 H 741.4 V 202.5 H 742.1 V 202.5 H 742.9 V 202.5 H 743.6 V 202.5 H 744.4 V 202.5 H 745.1 V 202.5 H 745.9 V 202.5 H 746.6 V 202.5 H 747.4 V 202.5 H 748.1 V 202.5 H 748.9 V 202.5 H 749.6 V 202.5 H 750.4 V 202.5 H 751.1 V 202.5 H 751.9 V 202.5 H 752.6 V 202.5 H 753.4 V 202.5 H 754.1 V 202.5 H 754.9 V 202.5 H 755.7 V 202.5 H 756.4 V 202.5 H 757.2 V 202.5 H 757.9 V 202.5 H 758.7 V 202.5 H 759.4 V 202.5 H 760.2 V 202.5 H 760.9 V 202.5 H 761.7 V 202.5 H 762.4 V 202.5 H 763.2 V 202.5 H 763.9 V 202.5 H 764.7 V 202.5 H 765.4 V 202.5 H 766.2 V 202.5 H 766.9 V 202.5 H 767.7 V 202.5 H 768.4 V 202.5 H 769.2 V 202.5 H 769.9 V 202.5 H 770.7 V 202.5 H 771.4 V 202.5 H 772.2 V 202.5 H 772.9 V 202.5 H 773.7 V 202.5 H 774.5 V 202.5 H 775.2 V 202.5 H 776.0 V 202.5 H 776.7 V 202.5 H 777.5 V 202.5 H 778.2 V 202.5 H 779.0 V 202.5 H 779.7 V 202.5 H 780.5 V 202.5 H 781.2 V 202.5 H 782.0 V 202.5 H 782.7 V 202.5 H 783.5 V 202.5 H 784.2 V 202.5 H 785.0 V 202.5 H 785.7 V 202.5 H 786.5 V 202.5 H 787.2 V 202.5 H 788.0 V 202.5 H 788.7 V 202.5 H 789.5 V 202.5 H 790.2 V 202.5 H 791.0 V 202.5 H 791.7 V 202.5 H 792.5 V 202.5 H 793.3 V 202.5 H 794.0 V 202.5 H 794.8 V 202.5 H 795.5 V 202.5 H 796.3 V 202.5 H 797.0 V 202.5 H 797.8 V 202.5 H 798.5 V 202.5 H 799.3 V 202.5 H 800.0 V 202.5 H 800.8 V 202.5 H 801.5 V 202.5 H 802.3 V 202.5 H 803.0 V 202.5 H 803.8 V 202.5 H 804.5 V 202.5 H 805.3 V 202.5 H 806.0 V 202.5" fill="none" stroke="#199e70" stroke-width="2"/><text x="60.0" y="138.4" font-size="11.5" font-weight="600" fill="#199e70">outL  log / LNS (K=2)</text><text x="50.0" y="150.4" text-anchor="end" font-size="9.5" fill="#898781">1</text><text x="50.0" y="206.5" text-anchor="end" font-size="9.5" fill="#898781">0</text><line x1="439.0" y1="20.0" x2="439.0" y2="254.0" stroke="#199e70" stroke-width="1" stroke-dasharray="3 2"/><line x1="516.5" y1="20.0" x2="516.5" y2="254.0" stroke="#2a78d6" stroke-width="1" stroke-dasharray="3 2"/><text x="439.0" y="284.0" text-anchor="middle" font-size="9.5" fill="#199e70">1.024 ms</text><text x="516.5" y="284.0" text-anchor="middle" font-size="9.5" fill="#2a78d6">1.230 ms</text><text x="430.0" y="296.0" text-anchor="middle" font-size="11" fill="#52514e">time (ms) — Vth ramps 0 to 2000 over 2 ms</text></svg>