<?xml version="1.0" encoding="UTF-8" standalone="no"?>
<!DOCTYPE svg PUBLIC "-//W3C//DTD SVG 1.1//EN"
 "http://www.w3.org/Graphics/SVG/1.1/DTD/svg11.dtd">
<!-- Generated by graphviz version 2.43.0 (0)
 -->
<!-- Title: L Pages: 1 -->
<svg width="454pt" height="293pt"
 viewBox="0.00 0.00 454.00 293.14" xmlns="http://www.w3.org/2000/svg" xmlns:xlink="http://www.w3.org/1999/xlink">
<g id="graph0" class="graph" transform="scale(1 1) rotate(0) translate(4 289.14)">
<title>L</title>
<polygon fill="#fcfcfb" stroke="transparent" points="-4,4 -4,-289.14 450,-289.14 450,4 -4,4"/>
<!-- d7 -->
<g id="node1" class="node">
<title>d7</title>
<path fill="none" stroke="#2a78d6" stroke-width="1.1" d="M44.5,-180C44.5,-180 14.5,-180 14.5,-180 8.5,-180 2.5,-174 2.5,-168 2.5,-168 2.5,-156 2.5,-156 2.5,-150 8.5,-144 14.5,-144 14.5,-144 44.5,-144 44.5,-144 50.5,-144 56.5,-150 56.5,-156 56.5,-156 56.5,-168 56.5,-168 56.5,-174 50.5,-180 44.5,-180"/>
<text text-anchor="middle" x="29.5" y="-159.2" font-family="Helvetica,sans-Serif" font-size="11.00" fill="#0b0b0b">d[7]</text>
</g>
<!-- or4 -->
<g id="node8" class="node">
<title>or4</title>
<path fill="#eaf1fd" stroke="#2a78d6" stroke-width="1.1" d="M141,-108C141,-108 111,-108 111,-108 105,-108 99,-102 99,-96 99,-96 99,-84 99,-84 99,-78 105,-72 111,-72 111,-72 141,-72 141,-72 147,-72 153,-78 153,-84 153,-84 153,-96 153,-96 153,-102 147,-108 141,-108"/>
<text text-anchor="middle" x="126" y="-93.2" font-family="Helvetica,sans-Serif" font-size="11.00" fill="#0b0b0b">or4_1</text>
<text text-anchor="middle" x="126" y="-81.2" font-family="Helvetica,sans-Serif" font-size="11.00" fill="#0b0b0b">(_0_)</text>
</g>
<!-- d7&#45;&gt;or4 -->
<g id="edge4" class="edge">
<title>d7&#45;&gt;or4</title>
<path fill="none" stroke="#8a897f" stroke-width="1.1" d="M54.35,-143.83C67.1,-134.11 82.91,-122.07 96.33,-111.84"/>
<polygon fill="#8a897f" stroke="#8a897f" stroke-width="1.1" points="97.66,-113.47 101.16,-108.16 95.12,-110.13 97.66,-113.47"/>
</g>
<!-- d6 -->
<g id="node2" class="node">
<title>d6</title>
<path fill="none" stroke="#2a78d6" stroke-width="1.1" d="M44.5,-132C44.5,-132 14.5,-132 14.5,-132 8.5,-132 2.5,-126 2.5,-120 2.5,-120 2.5,-108 2.5,-108 2.5,-102 8.5,-96 14.5,-96 14.5,-96 44.5,-96 44.5,-96 50.5,-96 56.5,-102 56.5,-108 56.5,-108 56.5,-120 56.5,-120 56.5,-126 50.5,-132 44.5,-132"/>
<text text-anchor="middle" x="29.5" y="-111.2" font-family="Helvetica,sans-Serif" font-size="11.00" fill="#0b0b0b">d[6]</text>
</g>
<!-- d6&#45;&gt;or4 -->
<g id="edge3" class="edge">
<title>d6&#45;&gt;or4</title>
<path fill="none" stroke="#8a897f" stroke-width="1.1" d="M56.57,-107.38C67.74,-104.54 80.89,-101.2 92.67,-98.21"/>
<polygon fill="#8a897f" stroke="#8a897f" stroke-width="1.1" points="93.39,-100.2 98.68,-96.68 92.35,-96.12 93.39,-100.2"/>
</g>
<!-- d5 -->
<g id="node3" class="node">
<title>d5</title>
<path fill="none" stroke="#2a78d6" stroke-width="1.1" d="M44.5,-84C44.5,-84 14.5,-84 14.5,-84 8.5,-84 2.5,-78 2.5,-72 2.5,-72 2.5,-60 2.5,-60 2.5,-54 8.5,-48 14.5,-48 14.5,-48 44.5,-48 44.5,-48 50.5,-48 56.5,-54 56.5,-60 56.5,-60 56.5,-72 56.5,-72 56.5,-78 50.5,-84 44.5,-84"/>
<text text-anchor="middle" x="29.5" y="-63.2" font-family="Helvetica,sans-Serif" font-size="11.00" fill="#0b0b0b">d[5]</text>
</g>
<!-- d5&#45;&gt;or4 -->
<g id="edge2" class="edge">
<title>d5&#45;&gt;or4</title>
<path fill="none" stroke="#8a897f" stroke-width="1.1" d="M56.57,-72.62C67.74,-75.46 80.89,-78.8 92.67,-81.79"/>
<polygon fill="#8a897f" stroke="#8a897f" stroke-width="1.1" points="92.35,-83.88 98.68,-83.32 93.39,-79.8 92.35,-83.88"/>
</g>
<!-- d4 -->
<g id="node4" class="node">
<title>d4</title>
<path fill="none" stroke="#2a78d6" stroke-width="1.1" d="M44.5,-36C44.5,-36 14.5,-36 14.5,-36 8.5,-36 2.5,-30 2.5,-24 2.5,-24 2.5,-12 2.5,-12 2.5,-6 8.5,0 14.5,0 14.5,0 44.5,0 44.5,0 50.5,0 56.5,-6 56.5,-12 56.5,-12 56.5,-24 56.5,-24 56.5,-30 50.5,-36 44.5,-36"/>
<text text-anchor="middle" x="29.5" y="-15.2" font-family="Helvetica,sans-Serif" font-size="11.00" fill="#0b0b0b">d[4]</text>
</g>
<!-- d4&#45;&gt;or4 -->
<g id="edge1" class="edge">
<title>d4&#45;&gt;or4</title>
<path fill="none" stroke="#8a897f" stroke-width="1.1" d="M54.35,-36.17C67.1,-45.89 82.91,-57.93 96.33,-68.16"/>
<polygon fill="#8a897f" stroke="#8a897f" stroke-width="1.1" points="95.12,-69.87 101.16,-71.84 97.66,-66.53 95.12,-69.87"/>
</g>
<!-- d3 -->
<g id="node5" class="node">
<title>d3</title>
<path fill="none" stroke="#2a78d6" stroke-width="1.1" d="M141,-156C141,-156 111,-156 111,-156 105,-156 99,-150 99,-144 99,-144 99,-132 99,-132 99,-126 105,-120 111,-120 111,-120 141,-120 141,-120 147,-120 153,-126 153,-132 153,-132 153,-144 153,-144 153,-150 147,-156 141,-156"/>
<text text-anchor="middle" x="126" y="-135.2" font-family="Helvetica,sans-Serif" font-size="11.00" fill="#0b0b0b">d[3]</text>
</g>
<!-- nor2a -->
<g id="node9" class="node">
<title>nor2a</title>
<path fill="#eaf1fd" stroke="#2a78d6" stroke-width="1.1" d="M235,-252C235,-252 205,-252 205,-252 199,-252 193,-246 193,-240 193,-240 193,-228 193,-228 193,-222 199,-216 205,-216 205,-216 235,-216 235,-216 241,-216 247,-222 247,-228 247,-228 247,-240 247,-240 247,-246 241,-252 235,-252"/>
<text text-anchor="middle" x="220" y="-237.2" font-family="Helvetica,sans-Serif" font-size="11.00" fill="#0b0b0b">nor2_1</text>
<text text-anchor="middle" x="220" y="-225.2" font-family="Helvetica,sans-Serif" font-size="11.00" fill="#0b0b0b">(_1_)</text>
</g>
<!-- d3&#45;&gt;nor2a -->
<g id="edge5" class="edge">
<title>d3&#45;&gt;nor2a</title>
<path fill="none" stroke="#8a897f" stroke-width="1.1" d="M147.13,-156.09C149.15,-158.05 151.14,-160.04 153,-162 172.13,-182.13 173.87,-189.87 193,-210 193.47,-210.49 193.94,-210.98 194.42,-211.47"/>
<polygon fill="#8a897f" stroke="#8a897f" stroke-width="1.1" points="193.14,-213.16 198.87,-215.91 196.11,-210.19 193.14,-213.16"/>
</g>
<!-- nor3 -->
<g id="node12" class="node">
<title>nor3</title>
<path fill="#eaf1fd" stroke="#2a78d6" stroke-width="1.1" d="M334.5,-93C334.5,-93 304.5,-93 304.5,-93 298.5,-93 292.5,-87 292.5,-81 292.5,-81 292.5,-69 292.5,-69 292.5,-63 298.5,-57 304.5,-57 304.5,-57 334.5,-57 334.5,-57 340.5,-57 346.5,-63 346.5,-69 346.5,-69 346.5,-81 346.5,-81 346.5,-87 340.5,-93 334.5,-93"/>
<text text-anchor="middle" x="319.5" y="-78.2" font-family="Helvetica,sans-Serif" font-size="11.00" fill="#0b0b0b">nor3_1</text>
<text text-anchor="middle" x="319.5" y="-66.2" font-family="Helvetica,sans-Serif" font-size="11.00" fill="#0b0b0b">→ f[1]</text>
</g>
<!-- d3&#45;&gt;nor3 -->
<g id="edge13" class="edge">
<title>d3&#45;&gt;nor3</title>
<path fill="none" stroke="#8a897f" stroke-width="1.1" d="M153.23,-128.14C165.3,-123.68 179.83,-118.44 193,-114 224.63,-103.34 261.08,-92.13 286.53,-84.48"/>
<polygon fill="#8a897f" stroke="#8a897f" stroke-width="1.1" points="287.28,-86.44 292.43,-82.71 286.07,-82.42 287.28,-86.44"/>
</g>
<!-- nor4 -->
<g id="node13" class="node">
<title>nor4</title>
<path fill="#eaf1fd" stroke="#2a78d6" stroke-width="1.1" d="M235,-156C235,-156 205,-156 205,-156 199,-156 193,-150 193,-144 193,-144 193,-132 193,-132 193,-126 199,-120 205,-120 205,-120 235,-120 235,-120 241,-120 247,-126 247,-132 247,-132 247,-144 247,-144 247,-150 241,-156 235,-156"/>
<text text-anchor="middle" x="220" y="-141.2" font-family="Helvetica,sans-Serif" font-size="11.00" fill="#0b0b0b">nor4_1</text>
<text text-anchor="middle" x="220" y="-129.2" font-family="Helvetica,sans-Serif" font-size="11.00" fill="#0b0b0b">→ f[2]</text>
</g>
<!-- d3&#45;&gt;nor4 -->
<g id="edge16" class="edge">
<title>d3&#45;&gt;nor4</title>
<path fill="none" stroke="#8a897f" stroke-width="1.1" d="M153.12,-138C163.51,-138 175.58,-138 186.52,-138"/>
<polygon fill="#8a897f" stroke="#8a897f" stroke-width="1.1" points="186.82,-140.1 192.82,-138 186.82,-135.9 186.82,-140.1"/>
</g>
<!-- d2 -->
<g id="node6" class="node">
<title>d2</title>
<path fill="none" stroke="#2a78d6" stroke-width="1.1" d="M141,-204C141,-204 111,-204 111,-204 105,-204 99,-198 99,-192 99,-192 99,-180 99,-180 99,-174 105,-168 111,-168 111,-168 141,-168 141,-168 147,-168 153,-174 153,-180 153,-180 153,-192 153,-192 153,-198 147,-204 141,-204"/>
<text text-anchor="middle" x="126" y="-183.2" font-family="Helvetica,sans-Serif" font-size="11.00" fill="#0b0b0b">d[2]</text>
</g>
<!-- nor2b -->
<g id="node10" class="node">
<title>nor2b</title>
<path fill="#eaf1fd" stroke="#2a78d6" stroke-width="1.1" d="M235,-204C235,-204 205,-204 205,-204 199,-204 193,-198 193,-192 193,-192 193,-180 193,-180 193,-174 199,-168 205,-168 205,-168 235,-168 235,-168 241,-168 247,-174 247,-180 247,-180 247,-192 247,-192 247,-198 241,-204 235,-204"/>
<text text-anchor="middle" x="220" y="-189.2" font-family="Helvetica,sans-Serif" font-size="11.00" fill="#0b0b0b">nor2_1</text>
<text text-anchor="middle" x="220" y="-177.2" font-family="Helvetica,sans-Serif" font-size="11.00" fill="#0b0b0b">(_2_)</text>
</g>
<!-- d2&#45;&gt;nor2b -->
<g id="edge7" class="edge">
<title>d2&#45;&gt;nor2b</title>
<path fill="none" stroke="#8a897f" stroke-width="1.1" d="M153.12,-186C163.51,-186 175.58,-186 186.52,-186"/>
<polygon fill="#8a897f" stroke="#8a897f" stroke-width="1.1" points="186.82,-188.1 192.82,-186 186.82,-183.9 186.82,-188.1"/>
</g>
<!-- aoi -->
<g id="node11" class="node">
<title>aoi</title>
<path fill="#eaf1fd" stroke="#2a78d6" stroke-width="1.1" d="M340,-270C340,-270 299,-270 299,-270 293,-270 287,-264 287,-258 287,-258 287,-246 287,-246 287,-240 293,-234 299,-234 299,-234 340,-234 340,-234 346,-234 352,-240 352,-246 352,-246 352,-258 352,-258 352,-264 346,-270 340,-270"/>
<text text-anchor="middle" x="319.5" y="-255.2" font-family="Helvetica,sans-Serif" font-size="11.00" fill="#0b0b0b">a211oi_1</text>
<text text-anchor="middle" x="319.5" y="-243.2" font-family="Helvetica,sans-Serif" font-size="11.00" fill="#0b0b0b">→ f[0]</text>
</g>
<!-- d2&#45;&gt;aoi -->
<g id="edge9" class="edge">
<title>d2&#45;&gt;aoi</title>
<path fill="none" stroke="#8a897f" stroke-width="1.1" d="M147.13,-204.09C149.15,-206.05 151.14,-208.04 153,-210 172.13,-230.13 167.85,-246.22 193,-258 220.34,-270.81 254.8,-268.01 280.69,-262.74"/>
<polygon fill="#8a897f" stroke="#8a897f" stroke-width="1.1" points="281.32,-264.75 286.74,-261.43 280.44,-260.65 281.32,-264.75"/>
</g>
<!-- d2&#45;&gt;nor4 -->
<g id="edge17" class="edge">
<title>d2&#45;&gt;nor4</title>
<path fill="none" stroke="#8a897f" stroke-width="1.1" d="M153.12,-172.37C163.8,-166.8 176.25,-160.3 187.44,-154.47"/>
<polygon fill="#8a897f" stroke="#8a897f" stroke-width="1.1" points="188.47,-156.3 192.82,-151.66 186.53,-152.57 188.47,-156.3"/>
</g>
<!-- d1 -->
<g id="node7" class="node">
<title>d1</title>
<path fill="none" stroke="#2a78d6" stroke-width="1.1" d="M141,-252C141,-252 111,-252 111,-252 105,-252 99,-246 99,-240 99,-240 99,-228 99,-228 99,-222 105,-216 111,-216 111,-216 141,-216 141,-216 147,-216 153,-222 153,-228 153,-228 153,-240 153,-240 153,-246 147,-252 141,-252"/>
<text text-anchor="middle" x="126" y="-231.2" font-family="Helvetica,sans-Serif" font-size="11.00" fill="#0b0b0b">d[1]</text>
</g>
<!-- d1&#45;&gt;nor2a -->
<g id="edge6" class="edge">
<title>d1&#45;&gt;nor2a</title>
<path fill="none" stroke="#8a897f" stroke-width="1.1" d="M153.12,-234C163.51,-234 175.58,-234 186.52,-234"/>
<polygon fill="#8a897f" stroke="#8a897f" stroke-width="1.1" points="186.82,-236.1 192.82,-234 186.82,-231.9 186.82,-236.1"/>
</g>
<!-- d1&#45;&gt;nor2b -->
<g id="edge8" class="edge">
<title>d1&#45;&gt;nor2b</title>
<path fill="none" stroke="#8a897f" stroke-width="1.1" d="M153.12,-220.37C163.8,-214.8 176.25,-208.3 187.44,-202.47"/>
<polygon fill="#8a897f" stroke="#8a897f" stroke-width="1.1" points="188.47,-204.3 192.82,-199.66 186.53,-200.57 188.47,-204.3"/>
</g>
<!-- d1&#45;&gt;aoi -->
<g id="edge10" class="edge">
<title>d1&#45;&gt;aoi</title>
<path fill="none" stroke="#8a897f" stroke-width="1.1" d="M145.73,-252.18C158.06,-262.84 175.18,-275.3 193,-281 222.21,-290.34 256.14,-281.35 281.35,-270.99"/>
<polygon fill="#8a897f" stroke="#8a897f" stroke-width="1.1" points="282.21,-272.91 286.91,-268.62 280.57,-269.04 282.21,-272.91"/>
</g>
<!-- d1&#45;&gt;nor4 -->
<g id="edge18" class="edge">
<title>d1&#45;&gt;nor4</title>
<path fill="none" stroke="#8a897f" stroke-width="1.1" d="M147.13,-215.91C149.15,-213.95 151.14,-211.96 153,-210 172.13,-189.87 173.87,-182.13 193,-162 193.47,-161.51 193.94,-161.02 194.42,-160.53"/>
<polygon fill="#8a897f" stroke="#8a897f" stroke-width="1.1" points="196.11,-161.81 198.87,-156.09 193.14,-158.84 196.11,-161.81"/>
</g>
<!-- or4&#45;&gt;aoi -->
<g id="edge11" class="edge">
<title>or4&#45;&gt;aoi</title>
<path fill="none" stroke="#8a897f" stroke-width="1.1" d="M153.02,-88.97C179.25,-89.24 219.67,-93.43 247,-114 284.8,-142.44 304.36,-196.65 312.93,-227.99"/>
<polygon fill="#8a897f" stroke="#8a897f" stroke-width="1.1" points="310.94,-228.68 314.5,-233.94 315,-227.6 310.94,-228.68"/>
</g>
<!-- or4&#45;&gt;nor3 -->
<g id="edge14" class="edge">
<title>or4&#45;&gt;nor3</title>
<path fill="none" stroke="#8a897f" stroke-width="1.1" d="M153.03,-77.65C164.93,-72.66 179.38,-67.49 193,-65 224.45,-59.24 260.93,-63.33 286.43,-67.89"/>
<polygon fill="#8a897f" stroke="#8a897f" stroke-width="1.1" points="286.06,-69.96 292.34,-68.99 286.83,-65.83 286.06,-69.96"/>
</g>
<!-- or4&#45;&gt;nor4 -->
<g id="edge19" class="edge">
<title>or4&#45;&gt;nor4</title>
<path fill="none" stroke="#8a897f" stroke-width="1.1" d="M153.12,-103.63C163.8,-109.2 176.25,-115.7 187.44,-121.53"/>
<polygon fill="#8a897f" stroke="#8a897f" stroke-width="1.1" points="186.53,-123.43 192.82,-124.34 188.47,-119.7 186.53,-123.43"/>
</g>
<!-- nor2a&#45;&gt;aoi -->
<g id="edge12" class="edge">
<title>nor2a&#45;&gt;aoi</title>
<path fill="none" stroke="#8a897f" stroke-width="1.1" d="M247.13,-238.82C257.41,-240.72 269.41,-242.94 280.61,-245.01"/>
<polygon fill="#8a897f" stroke="#8a897f" stroke-width="1.1" points="280.45,-247.11 286.74,-246.14 281.22,-242.98 280.45,-247.11"/>
</g>
<!-- nor2b&#45;&gt;nor3 -->
<g id="edge15" class="edge">
<title>nor2b&#45;&gt;nor3</title>
<path fill="none" stroke="#8a897f" stroke-width="1.1" d="M241.14,-167.93C243.16,-165.96 245.14,-163.97 247,-162 252.51,-156.16 280.4,-121.98 299.68,-98.24"/>
<polygon fill="#8a897f" stroke="#8a897f" stroke-width="1.1" points="301.5,-99.33 303.65,-93.35 298.24,-96.68 301.5,-99.33"/>
</g>
<!-- f0 -->
<g id="node14" class="node">
<title>f0</title>
<path fill="none" stroke="#0ca30c" stroke-width="1.1" d="M434,-270C434,-270 404,-270 404,-270 398,-270 392,-264 392,-258 392,-258 392,-246 392,-246 392,-240 398,-234 404,-234 404,-234 434,-234 434,-234 440,-234 446,-240 446,-246 446,-246 446,-258 446,-258 446,-264 440,-270 434,-270"/>
<text text-anchor="middle" x="419" y="-249.2" font-family="Helvetica,sans-Serif" font-size="11.00" fill="#0b0b0b">f[0]</text>
</g>
<!-- aoi&#45;&gt;f0 -->
<g id="edge20" class="edge">
<title>aoi&#45;&gt;f0</title>
<path fill="none" stroke="#8a897f" stroke-width="1.1" d="M352.16,-252C362.85,-252 374.79,-252 385.54,-252"/>
<polygon fill="#8a897f" stroke="#8a897f" stroke-width="1.1" points="385.72,-254.1 391.72,-252 385.72,-249.9 385.72,-254.1"/>
</g>
<!-- f1 -->
<g id="node15" class="node">
<title>f1</title>
<path fill="none" stroke="#0ca30c" stroke-width="1.1" d="M434,-93C434,-93 404,-93 404,-93 398,-93 392,-87 392,-81 392,-81 392,-69 392,-69 392,-63 398,-57 404,-57 404,-57 434,-57 434,-57 440,-57 446,-63 446,-69 446,-69 446,-81 446,-81 446,-87 440,-93 434,-93"/>
<text text-anchor="middle" x="419" y="-72.2" font-family="Helvetica,sans-Serif" font-size="11.00" fill="#0b0b0b">f[1]</text>
</g>
<!-- nor3&#45;&gt;f1 -->
<g id="edge21" class="edge">
<title>nor3&#45;&gt;f1</title>
<path fill="none" stroke="#8a897f" stroke-width="1.1" d="M346.63,-75C358.65,-75 373.03,-75 385.72,-75"/>
<polygon fill="#8a897f" stroke="#8a897f" stroke-width="1.1" points="385.8,-77.1 391.8,-75 385.8,-72.9 385.8,-77.1"/>
</g>
<!-- f2 -->
<g id="node16" class="node">
<title>f2</title>
<path fill="none" stroke="#0ca30c" stroke-width="1.1" d="M334.5,-156C334.5,-156 304.5,-156 304.5,-156 298.5,-156 292.5,-150 292.5,-144 292.5,-144 292.5,-132 292.5,-132 292.5,-126 298.5,-120 304.5,-120 304.5,-120 334.5,-120 334.5,-120 340.5,-120 346.5,-126 346.5,-132 346.5,-132 346.5,-144 346.5,-144 346.5,-150 340.5,-156 334.5,-156"/>
<text text-anchor="middle" x="319.5" y="-135.2" font-family="Helvetica,sans-Serif" font-size="11.00" fill="#0b0b0b">f[2]</text>
</g>
<!-- nor4&#45;&gt;f2 -->
<g id="edge22" class="edge">
<title>nor4&#45;&gt;f2</title>
<path fill="none" stroke="#8a897f" stroke-width="1.1" d="M247.13,-138C259.15,-138 273.53,-138 286.22,-138"/>
<polygon fill="#8a897f" stroke="#8a897f" stroke-width="1.1" points="286.3,-140.1 292.3,-138 286.3,-135.9 286.3,-140.1"/>
</g>
<!-- f3 -->
<g id="node17" class="node">
<title>f3</title>
<path fill="none" stroke="#0ca30c" stroke-width="1.1" d="M47,-228C47,-228 12,-228 12,-228 6,-228 0,-222 0,-216 0,-216 0,-204 0,-204 0,-198 6,-192 12,-192 12,-192 47,-192 47,-192 53,-192 59,-198 59,-204 59,-204 59,-216 59,-216 59,-222 53,-228 47,-228"/>
<text text-anchor="middle" x="29.5" y="-207.2" font-family="Helvetica,sans-Serif" font-size="11.00" fill="#0b0b0b">f[3] = 0</text>
</g>
</g>
</svg>
