<svg viewBox="0 0 606 627" width="100%" xmlns="http://www.w3.org/2000/svg" font-family="system-ui,-apple-system,Segoe UI,sans-serif">
<rect x="0" y="0" width="606" height="627" rx="10" fill="#141413"/>
<text x="62" y="24" fill="#ffffff" font-size="14" font-weight="600">Design 2 — log_detector (K=2)</text>
<rect x="62.0" y="40.0" width="520.0" height="522.7" fill="none" stroke="#57564f" stroke-width="1" stroke-dasharray="4 4"/>
<text x="582.0" y="575.7" fill="#8a897f" font-size="10.5" text-anchor="end">Design 1 footprint (same scale)</text>
<rect x="62.0" y="40.0" width="339.5" height="340.4" fill="#1f1f1d" stroke="#3a3a37" stroke-width="1"/>
<rect x="62.00" y="368.20" width="5.87" height="11.76" fill="#d95926"/>
<rect x="71.49" y="368.20" width="5.87" height="11.76" fill="#d95926"/>
<rect x="80.98" y="368.20" width="5.87" height="11.76" fill="#d95926"/>
<rect x="90.46" y="368.20" width="5.87" height="11.76" fill="#d95926"/>
<rect x="99.95" y="368.20" width="5.87" height="11.76" fill="#d95926"/>
<rect x="109.44" y="368.20" width="5.87" height="11.76" fill="#d95926"/>
<rect x="118.93" y="368.20" width="5.87" height="11.76" fill="#d95926"/>
<rect x="128.42" y="368.20" width="5.87" height="11.76" fill="#d95926"/>
<rect x="137.90" y="368.20" width="5.87" height="11.76" fill="#d95926"/>
<rect x="147.39" y="368.20" width="5.87" height="11.76" fill="#d95926"/>
<rect x="156.88" y="368.20" width="5.87" height="11.76" fill="#d95926"/>
<rect x="166.37" y="368.20" width="5.87" height="11.76" fill="#d95926"/>
<rect x="175.86" y="368.20" width="5.87" height="11.76" fill="#9085e9"/>
<rect x="185.34" y="368.20" width="9.98" height="11.76" fill="#9085e9"/>
<rect x="201.16" y="368.20" width="9.98" height="11.76" fill="#9085e9"/>
<rect x="216.97" y="368.20" width="5.87" height="11.76" fill="#9085e9"/>
<rect x="226.46" y="368.20" width="5.87" height="11.76" fill="#9085e9"/>
<rect x="235.95" y="368.20" width="7.92" height="11.76" fill="#9085e9"/>
<rect x="248.60" y="368.20" width="5.87" height="11.76" fill="#9085e9"/>
<rect x="258.08" y="368.20" width="5.87" height="11.76" fill="#9085e9"/>
<rect x="267.57" y="368.20" width="5.87" height="11.76" fill="#9085e9"/>
<rect x="277.06" y="368.20" width="7.92" height="11.76" fill="#9085e9"/>
<rect x="289.71" y="368.20" width="5.87" height="11.76" fill="#9085e9"/>
<rect x="299.20" y="368.20" width="14.09" height="11.76" fill="#9085e9"/>
<rect x="321.34" y="368.20" width="9.98" height="11.76" fill="#9085e9"/>
<rect x="337.15" y="368.20" width="5.87" height="11.76" fill="#9085e9"/>
<rect x="346.64" y="368.20" width="5.87" height="11.76" fill="#9085e9"/>
<rect x="356.13" y="368.20" width="5.87" height="11.76" fill="#9085e9"/>
<rect x="365.62" y="368.20" width="7.92" height="11.76" fill="#9085e9"/>
<rect x="378.27" y="368.20" width="5.87" height="11.76" fill="#9085e9"/>
<rect x="387.75" y="368.20" width="5.87" height="11.76" fill="#9085e9"/>
<rect x="62.00" y="356.05" width="5.87" height="11.76" fill="#9085e9"/>
<rect x="71.49" y="356.05" width="9.98" height="11.76" fill="#9085e9"/>
<rect x="87.30" y="356.05" width="12.03" height="11.76" fill="#9085e9"/>
<rect x="106.28" y="356.05" width="7.92" height="11.76" fill="#9085e9"/>
<rect x="118.93" y="356.05" width="9.98" height="11.76" fill="#9085e9"/>
<rect x="134.74" y="356.05" width="9.98" height="11.76" fill="#9085e9"/>
<rect x="150.55" y="356.05" width="5.87" height="11.76" fill="#9085e9"/>
<rect x="160.04" y="356.05" width="5.87" height="11.76" fill="#9085e9"/>
<rect x="169.53" y="356.05" width="9.98" height="11.76" fill="#d95926"/>
<rect x="185.34" y="356.05" width="5.87" height="11.76" fill="#9085e9"/>
<rect x="194.83" y="356.05" width="5.87" height="11.76" fill="#9085e9"/>
<rect x="204.32" y="356.05" width="12.03" height="11.76" fill="#9085e9"/>
<rect x="223.30" y="356.05" width="7.92" height="11.76" fill="#9085e9"/>
<rect x="235.95" y="356.05" width="9.98" height="11.76" fill="#9085e9"/>
<rect x="251.76" y="356.05" width="5.87" height="11.76" fill="#9085e9"/>
<rect x="261.25" y="356.05" width="12.03" height="11.76" fill="#9085e9"/>
<rect x="280.22" y="356.05" width="14.09" height="11.76" fill="#9085e9"/>
<rect x="302.36" y="356.05" width="5.87" height="11.76" fill="#9085e9"/>
<rect x="311.85" y="356.05" width="5.87" height="11.76" fill="#9085e9"/>
<rect x="321.34" y="356.05" width="9.98" height="11.76" fill="#9085e9"/>
<rect x="337.15" y="356.05" width="12.03" height="11.76" fill="#9085e9"/>
<rect x="356.13" y="356.05" width="7.92" height="11.76" fill="#9085e9"/>
<rect x="368.78" y="356.05" width="9.98" height="11.76" fill="#9085e9"/>
<rect x="384.59" y="356.05" width="9.98" height="11.76" fill="#d95926"/>
<rect x="62.00" y="343.89" width="5.87" height="11.76" fill="#9085e9"/>
<rect x="71.49" y="343.89" width="5.87" height="11.76" fill="#9085e9"/>
<rect x="80.98" y="343.89" width="9.98" height="11.76" fill="#d95926"/>
<rect x="96.79" y="343.89" width="5.87" height="11.76" fill="#9085e9"/>
<rect x="106.28" y="343.89" width="5.87" height="11.76" fill="#9085e9"/>
<rect x="115.77" y="343.89" width="9.98" height="11.76" fill="#9085e9"/>
<rect x="131.58" y="343.89" width="5.87" height="11.76" fill="#9085e9"/>
<rect x="141.07" y="343.89" width="7.92" height="11.76" fill="#9085e9"/>
<rect x="153.72" y="343.89" width="5.87" height="11.76" fill="#9085e9"/>
<rect x="163.21" y="343.89" width="12.03" height="11.76" fill="#9085e9"/>
<rect x="182.18" y="343.89" width="14.09" height="11.76" fill="#9085e9"/>
<rect x="204.32" y="343.89" width="5.87" height="11.76" fill="#9085e9"/>
<rect x="213.81" y="343.89" width="5.87" height="11.76" fill="#9085e9"/>
<rect x="223.30" y="343.89" width="5.87" height="11.76" fill="#9085e9"/>
<rect x="232.78" y="343.89" width="7.92" height="11.76" fill="#9085e9"/>
<rect x="245.43" y="343.89" width="5.87" height="11.76" fill="#9085e9"/>
<rect x="254.92" y="343.89" width="7.92" height="11.76" fill="#9085e9"/>
<rect x="267.57" y="343.89" width="9.98" height="11.76" fill="#9085e9"/>
<rect x="283.39" y="343.89" width="5.87" height="11.76" fill="#9085e9"/>
<rect x="292.87" y="343.89" width="7.92" height="11.76" fill="#9085e9"/>
<rect x="305.52" y="343.89" width="9.98" height="11.76" fill="#9085e9"/>
<rect x="321.34" y="343.89" width="5.87" height="11.76" fill="#9085e9"/>
<rect x="330.83" y="343.89" width="5.87" height="11.76" fill="#9085e9"/>
<rect x="340.31" y="343.89" width="5.87" height="11.76" fill="#9085e9"/>
<rect x="349.80" y="343.89" width="7.92" height="11.76" fill="#9085e9"/>
<rect x="362.45" y="343.89" width="5.87" height="11.76" fill="#9085e9"/>
<rect x="371.94" y="343.89" width="9.98" height="11.76" fill="#9085e9"/>
<rect x="62.00" y="331.73" width="9.98" height="11.76" fill="#9085e9"/>
<rect x="77.81" y="331.73" width="16.15" height="11.76" fill="#9085e9"/>
<rect x="103.11" y="331.73" width="5.87" height="11.76" fill="#9085e9"/>
<rect x="112.60" y="331.73" width="5.87" height="11.76" fill="#9085e9"/>
<rect x="122.09" y="331.73" width="5.87" height="11.76" fill="#9085e9"/>
<rect x="131.58" y="331.73" width="9.98" height="11.76" fill="#9085e9"/>
<rect x="147.39" y="331.73" width="7.92" height="11.76" fill="#9085e9"/>
<rect x="160.04" y="331.73" width="9.98" height="11.76" fill="#9085e9"/>
<rect x="175.86" y="331.73" width="5.87" height="11.76" fill="#d95926"/>
<rect x="185.34" y="331.73" width="7.92" height="11.76" fill="#9085e9"/>
<rect x="197.99" y="331.73" width="5.87" height="11.76" fill="#9085e9"/>
<rect x="207.48" y="331.73" width="9.98" height="11.76" fill="#9085e9"/>
<rect x="223.30" y="331.73" width="16.15" height="11.76" fill="#9085e9"/>
<rect x="248.60" y="331.73" width="7.92" height="11.76" fill="#9085e9"/>
<rect x="261.25" y="331.73" width="14.09" height="11.76" fill="#199e70"/>
<rect x="283.39" y="331.73" width="5.87" height="11.76" fill="#9085e9"/>
<rect x="292.87" y="331.73" width="9.98" height="11.76" fill="#d95926"/>
<rect x="308.69" y="331.73" width="14.09" height="11.76" fill="#9085e9"/>
<rect x="330.83" y="331.73" width="9.98" height="11.76" fill="#d95926"/>
<rect x="346.64" y="331.73" width="7.92" height="11.76" fill="#9085e9"/>
<rect x="359.29" y="331.73" width="12.03" height="11.76" fill="#9085e9"/>
<rect x="378.27" y="331.73" width="9.98" height="11.76" fill="#9085e9"/>
<rect x="62.00" y="319.58" width="7.92" height="11.76" fill="#9085e9"/>
<rect x="74.65" y="319.58" width="9.98" height="11.76" fill="#9085e9"/>
<rect x="90.46" y="319.58" width="9.98" height="11.76" fill="#d95926"/>
<rect x="106.28" y="319.58" width="14.09" height="11.76" fill="#9085e9"/>
<rect x="128.42" y="319.58" width="9.98" height="11.76" fill="#d95926"/>
<rect x="144.23" y="319.58" width="7.92" height="11.76" fill="#9085e9"/>
<rect x="156.88" y="319.58" width="12.03" height="11.76" fill="#9085e9"/>
<rect x="175.86" y="319.58" width="9.98" height="11.76" fill="#9085e9"/>
<rect x="191.67" y="319.58" width="7.92" height="11.76" fill="#9085e9"/>
<rect x="204.32" y="319.58" width="9.98" height="11.76" fill="#9085e9"/>
<rect x="220.13" y="319.58" width="5.87" height="11.76" fill="#9085e9"/>
<rect x="229.62" y="319.58" width="5.87" height="11.76" fill="#9085e9"/>
<rect x="239.11" y="319.58" width="7.92" height="11.76" fill="#9085e9"/>
<rect x="251.76" y="319.58" width="14.09" height="11.76" fill="#9085e9"/>
<rect x="273.90" y="319.58" width="16.15" height="11.76" fill="#c98500"/>
<rect x="299.20" y="319.58" width="7.92" height="11.76" fill="#9085e9"/>
<rect x="311.85" y="319.58" width="7.92" height="11.76" fill="#9085e9"/>
<rect x="324.50" y="319.58" width="12.03" height="11.76" fill="#9085e9"/>
<rect x="343.48" y="319.58" width="16.15" height="11.76" fill="#9085e9"/>
<rect x="368.78" y="319.58" width="14.09" height="11.76" fill="#9085e9"/>
<rect x="62.00" y="307.42" width="12.03" height="11.76" fill="#9085e9"/>
<rect x="80.98" y="307.42" width="7.92" height="11.76" fill="#9085e9"/>
<rect x="93.63" y="307.42" width="16.15" height="11.76" fill="#9085e9"/>
<rect x="118.93" y="307.42" width="7.92" height="11.76" fill="#9085e9"/>
<rect x="131.58" y="307.42" width="12.03" height="11.76" fill="#9085e9"/>
<rect x="150.55" y="307.42" width="7.92" height="11.76" fill="#9085e9"/>
<rect x="163.21" y="307.42" width="7.92" height="11.76" fill="#9085e9"/>
<rect x="175.86" y="307.42" width="12.03" height="11.76" fill="#9085e9"/>
<rect x="194.83" y="307.42" width="5.87" height="11.76" fill="#9085e9"/>
<rect x="204.32" y="307.42" width="9.98" height="11.76" fill="#9085e9"/>
<rect x="220.13" y="307.42" width="14.09" height="11.76" fill="#9085e9"/>
<rect x="242.27" y="307.42" width="14.09" height="11.76" fill="#9085e9"/>
<rect x="264.41" y="307.42" width="16.15" height="11.76" fill="#199e70"/>
<rect x="289.71" y="307.42" width="14.09" height="11.76" fill="#199e70"/>
<rect x="311.85" y="307.42" width="9.98" height="11.76" fill="#9085e9"/>
<rect x="327.66" y="307.42" width="9.98" height="11.76" fill="#9085e9"/>
<rect x="343.48" y="307.42" width="7.92" height="11.76" fill="#9085e9"/>
<rect x="356.13" y="307.42" width="7.92" height="11.76" fill="#9085e9"/>
<rect x="368.78" y="307.42" width="7.92" height="11.76" fill="#9085e9"/>
<rect x="381.43" y="307.42" width="7.92" height="11.76" fill="#9085e9"/>
<rect x="62.00" y="295.27" width="5.87" height="11.76" fill="#d95926"/>
<rect x="71.49" y="295.27" width="5.87" height="11.76" fill="#9085e9"/>
<rect x="80.98" y="295.27" width="5.87" height="11.76" fill="#9085e9"/>
<rect x="90.46" y="295.27" width="5.87" height="11.76" fill="#9085e9"/>
<rect x="99.95" y="295.27" width="9.98" height="11.76" fill="#d95926"/>
<rect x="115.77" y="295.27" width="5.87" height="11.76" fill="#d95926"/>
<rect x="125.25" y="295.27" width="5.87" height="11.76" fill="#9085e9"/>
<rect x="134.74" y="295.27" width="14.09" height="11.76" fill="#9085e9"/>
<rect x="156.88" y="295.27" width="14.09" height="11.76" fill="#199e70"/>
<rect x="179.02" y="295.27" width="5.87" height="11.76" fill="#9085e9"/>
<rect x="188.51" y="295.27" width="9.98" height="11.76" fill="#d95926"/>
<rect x="204.32" y="295.27" width="14.09" height="11.76" fill="#9085e9"/>
<rect x="226.46" y="295.27" width="9.98" height="11.76" fill="#d95926"/>
<rect x="242.27" y="295.27" width="7.92" height="11.76" fill="#9085e9"/>
<rect x="254.92" y="295.27" width="12.03" height="11.76" fill="#9085e9"/>
<rect x="273.90" y="295.27" width="9.98" height="11.76" fill="#9085e9"/>
<rect x="289.71" y="295.27" width="7.92" height="11.76" fill="#9085e9"/>
<rect x="302.36" y="295.27" width="9.98" height="11.76" fill="#d95926"/>
<rect x="318.18" y="295.27" width="14.09" height="11.76" fill="#9085e9"/>
<rect x="340.31" y="295.27" width="9.98" height="11.76" fill="#d95926"/>
<rect x="356.13" y="295.27" width="7.92" height="11.76" fill="#9085e9"/>
<rect x="368.78" y="295.27" width="12.03" height="11.76" fill="#9085e9"/>
<rect x="62.00" y="283.11" width="9.98" height="11.76" fill="#9085e9"/>
<rect x="77.81" y="283.11" width="7.92" height="11.76" fill="#9085e9"/>
<rect x="90.46" y="283.11" width="5.87" height="11.76" fill="#9085e9"/>
<rect x="99.95" y="283.11" width="5.87" height="11.76" fill="#9085e9"/>
<rect x="109.44" y="283.11" width="5.87" height="11.76" fill="#9085e9"/>
<rect x="118.93" y="283.11" width="7.92" height="11.76" fill="#9085e9"/>
<rect x="131.58" y="283.11" width="14.09" height="11.76" fill="#9085e9"/>
<rect x="153.72" y="283.11" width="16.15" height="11.76" fill="#c98500"/>
<rect x="179.02" y="283.11" width="14.09" height="11.76" fill="#9085e9"/>
<rect x="201.16" y="283.11" width="7.92" height="11.76" fill="#9085e9"/>
<rect x="213.81" y="283.11" width="12.03" height="11.76" fill="#9085e9"/>
<rect x="232.78" y="283.11" width="12.03" height="11.76" fill="#9085e9"/>
<rect x="251.76" y="283.11" width="14.09" height="11.76" fill="#199e70"/>
<rect x="273.90" y="283.11" width="7.92" height="11.76" fill="#9085e9"/>
<rect x="286.55" y="283.11" width="9.98" height="11.76" fill="#9085e9"/>
<rect x="302.36" y="283.11" width="12.03" height="11.76" fill="#9085e9"/>
<rect x="321.34" y="283.11" width="5.87" height="11.76" fill="#9085e9"/>
<rect x="330.83" y="283.11" width="9.98" height="11.76" fill="#9085e9"/>
<rect x="346.64" y="283.11" width="7.92" height="11.76" fill="#9085e9"/>
<rect x="359.29" y="283.11" width="12.03" height="11.76" fill="#9085e9"/>
<rect x="378.27" y="283.11" width="7.92" height="11.76" fill="#9085e9"/>
<rect x="62.00" y="270.96" width="7.92" height="11.76" fill="#9085e9"/>
<rect x="74.65" y="270.96" width="12.03" height="11.76" fill="#9085e9"/>
<rect x="93.63" y="270.96" width="5.87" height="11.76" fill="#9085e9"/>
<rect x="103.11" y="270.96" width="9.98" height="11.76" fill="#9085e9"/>
<rect x="118.93" y="270.96" width="9.98" height="11.76" fill="#9085e9"/>
<rect x="134.74" y="270.96" width="12.03" height="11.76" fill="#9085e9"/>
<rect x="153.72" y="270.96" width="16.15" height="11.76" fill="#199e70"/>
<rect x="179.02" y="270.96" width="14.09" height="11.76" fill="#199e70"/>
<rect x="201.16" y="270.96" width="5.87" height="11.76" fill="#9085e9"/>
<rect x="210.64" y="270.96" width="5.87" height="11.76" fill="#9085e9"/>
<rect x="220.13" y="270.96" width="9.98" height="11.76" fill="#9085e9"/>
<rect x="235.95" y="270.96" width="36.70" height="11.76" fill="#199e70"/>
<rect x="292.87" y="270.96" width="36.70" height="11.76" fill="#199e70"/>
<rect x="349.80" y="270.96" width="5.87" height="11.76" fill="#9085e9"/>
<rect x="359.29" y="270.96" width="14.09" height="11.76" fill="#199e70"/>
<rect x="381.43" y="270.96" width="5.87" height="11.76" fill="#d95926"/>
<rect x="62.00" y="258.80" width="14.09" height="11.76" fill="#199e70"/>
<rect x="84.14" y="258.80" width="14.09" height="11.76" fill="#199e70"/>
<rect x="106.28" y="258.80" width="5.87" height="11.76" fill="#9085e9"/>
<rect x="115.77" y="258.80" width="5.87" height="11.76" fill="#9085e9"/>
<rect x="125.25" y="258.80" width="16.15" height="11.76" fill="#199e70"/>
<rect x="150.55" y="258.80" width="7.92" height="11.76" fill="#9085e9"/>
<rect x="163.21" y="258.80" width="7.92" height="11.76" fill="#9085e9"/>
<rect x="175.86" y="258.80" width="5.87" height="11.76" fill="#d95926"/>
<rect x="185.34" y="258.80" width="9.98" height="11.76" fill="#9085e9"/>
<rect x="201.16" y="258.80" width="7.92" height="11.76" fill="#9085e9"/>
<rect x="213.81" y="258.80" width="5.87" height="11.76" fill="#d95926"/>
<rect x="223.30" y="258.80" width="16.15" height="11.76" fill="#199e70"/>
<rect x="248.60" y="258.80" width="14.09" height="11.76" fill="#199e70"/>
<rect x="270.74" y="258.80" width="16.15" height="11.76" fill="#199e70"/>
<rect x="296.04" y="258.80" width="9.98" height="11.76" fill="#9085e9"/>
<rect x="311.85" y="258.80" width="9.98" height="11.76" fill="#9085e9"/>
<rect x="327.66" y="258.80" width="7.92" height="11.76" fill="#9085e9"/>
<rect x="340.31" y="258.80" width="5.87" height="11.76" fill="#9085e9"/>
<rect x="349.80" y="258.80" width="5.87" height="11.76" fill="#9085e9"/>
<rect x="359.29" y="258.80" width="5.87" height="11.76" fill="#9085e9"/>
<rect x="368.78" y="258.80" width="9.98" height="11.76" fill="#9085e9"/>
<rect x="62.00" y="246.65" width="12.03" height="11.76" fill="#9085e9"/>
<rect x="80.98" y="246.65" width="5.87" height="11.76" fill="#9085e9"/>
<rect x="90.46" y="246.65" width="12.03" height="11.76" fill="#9085e9"/>
<rect x="109.44" y="246.65" width="9.98" height="11.76" fill="#9085e9"/>
<rect x="125.25" y="246.65" width="5.87" height="11.76" fill="#d95926"/>
<rect x="134.74" y="246.65" width="16.15" height="11.76" fill="#199e70"/>
<rect x="160.04" y="246.65" width="14.09" height="11.76" fill="#199e70"/>
<rect x="182.18" y="246.65" width="16.15" height="11.76" fill="#199e70"/>
<rect x="207.48" y="246.65" width="9.98" height="11.76" fill="#9085e9"/>
<rect x="223.30" y="246.65" width="5.87" height="11.76" fill="#9085e9"/>
<rect x="232.78" y="246.65" width="5.87" height="11.76" fill="#9085e9"/>
<rect x="242.27" y="246.65" width="14.09" height="11.76" fill="#199e70"/>
<rect x="264.41" y="246.65" width="14.09" height="11.76" fill="#199e70"/>
<rect x="286.55" y="246.65" width="9.98" height="11.76" fill="#9085e9"/>
<rect x="302.36" y="246.65" width="9.98" height="11.76" fill="#9085e9"/>
<rect x="318.18" y="246.65" width="9.98" height="11.76" fill="#9085e9"/>
<rect x="333.99" y="246.65" width="5.87" height="11.76" fill="#9085e9"/>
<rect x="343.48" y="246.65" width="14.09" height="11.76" fill="#199e70"/>
<rect x="365.62" y="246.65" width="12.03" height="11.76" fill="#9085e9"/>
<rect x="384.59" y="246.65" width="5.87" height="11.76" fill="#9085e9"/>
<rect x="62.00" y="234.49" width="12.03" height="11.76" fill="#9085e9"/>
<rect x="80.98" y="234.49" width="9.98" height="11.76" fill="#9085e9"/>
<rect x="96.79" y="234.49" width="12.03" height="11.76" fill="#9085e9"/>
<rect x="115.77" y="234.49" width="12.03" height="11.76" fill="#9085e9"/>
<rect x="134.74" y="234.49" width="9.98" height="11.76" fill="#9085e9"/>
<rect x="150.55" y="234.49" width="14.09" height="11.76" fill="#199e70"/>
<rect x="172.69" y="234.49" width="14.09" height="11.76" fill="#199e70"/>
<rect x="194.83" y="234.49" width="5.87" height="11.76" fill="#9085e9"/>
<rect x="204.32" y="234.49" width="5.87" height="11.76" fill="#9085e9"/>
<rect x="213.81" y="234.49" width="14.09" height="11.76" fill="#199e70"/>
<rect x="235.95" y="234.49" width="14.09" height="11.76" fill="#199e70"/>
<rect x="258.08" y="234.49" width="5.87" height="11.76" fill="#9085e9"/>
<rect x="267.57" y="234.49" width="9.98" height="11.76" fill="#d95926"/>
<rect x="283.39" y="234.49" width="9.98" height="11.76" fill="#9085e9"/>
<rect x="299.20" y="234.49" width="14.09" height="11.76" fill="#199e70"/>
<rect x="321.34" y="234.49" width="14.09" height="11.76" fill="#199e70"/>
<rect x="343.48" y="234.49" width="5.87" height="11.76" fill="#9085e9"/>
<rect x="352.96" y="234.49" width="14.09" height="11.76" fill="#199e70"/>
<rect x="375.10" y="234.49" width="9.98" height="11.76" fill="#9085e9"/>
<rect x="62.00" y="222.33" width="12.03" height="11.76" fill="#9085e9"/>
<rect x="80.98" y="222.33" width="14.09" height="11.76" fill="#9085e9"/>
<rect x="103.11" y="222.33" width="5.87" height="11.76" fill="#9085e9"/>
<rect x="112.60" y="222.33" width="14.09" height="11.76" fill="#9085e9"/>
<rect x="134.74" y="222.33" width="5.87" height="11.76" fill="#9085e9"/>
<rect x="144.23" y="222.33" width="14.09" height="11.76" fill="#9085e9"/>
<rect x="166.37" y="222.33" width="7.92" height="11.76" fill="#9085e9"/>
<rect x="179.02" y="222.33" width="9.98" height="11.76" fill="#9085e9"/>
<rect x="194.83" y="222.33" width="5.87" height="11.76" fill="#9085e9"/>
<rect x="204.32" y="222.33" width="9.98" height="11.76" fill="#d95926"/>
<rect x="220.13" y="222.33" width="16.15" height="11.76" fill="#c98500"/>
<rect x="245.43" y="222.33" width="14.09" height="11.76" fill="#199e70"/>
<rect x="267.57" y="222.33" width="5.87" height="11.76" fill="#9085e9"/>
<rect x="277.06" y="222.33" width="7.92" height="11.76" fill="#9085e9"/>
<rect x="289.71" y="222.33" width="16.15" height="11.76" fill="#c98500"/>
<rect x="315.01" y="222.33" width="14.09" height="11.76" fill="#199e70"/>
<rect x="337.15" y="222.33" width="9.98" height="11.76" fill="#9085e9"/>
<rect x="352.96" y="222.33" width="5.87" height="11.76" fill="#9085e9"/>
<rect x="362.45" y="222.33" width="7.92" height="11.76" fill="#9085e9"/>
<rect x="375.10" y="222.33" width="16.15" height="11.76" fill="#9085e9"/>
<rect x="62.00" y="210.18" width="5.87" height="11.76" fill="#9085e9"/>
<rect x="71.49" y="210.18" width="7.92" height="11.76" fill="#9085e9"/>
<rect x="84.14" y="210.18" width="12.03" height="11.76" fill="#9085e9"/>
<rect x="103.11" y="210.18" width="16.15" height="11.76" fill="#9085e9"/>
<rect x="128.42" y="210.18" width="16.15" height="11.76" fill="#c98500"/>
<rect x="153.72" y="210.18" width="14.09" height="11.76" fill="#199e70"/>
<rect x="175.86" y="210.18" width="16.15" height="11.76" fill="#c98500"/>
<rect x="201.16" y="210.18" width="14.09" height="11.76" fill="#199e70"/>
<rect x="223.30" y="210.18" width="7.92" height="11.76" fill="#9085e9"/>
<rect x="235.95" y="210.18" width="7.92" height="11.76" fill="#9085e9"/>
<rect x="248.60" y="210.18" width="16.15" height="11.76" fill="#c98500"/>
<rect x="273.90" y="210.18" width="14.09" height="11.76" fill="#199e70"/>
<rect x="296.04" y="210.18" width="7.92" height="11.76" fill="#9085e9"/>
<rect x="308.69" y="210.18" width="5.87" height="11.76" fill="#9085e9"/>
<rect x="318.18" y="210.18" width="7.92" height="11.76" fill="#9085e9"/>
<rect x="330.83" y="210.18" width="9.98" height="11.76" fill="#9085e9"/>
<rect x="346.64" y="210.18" width="5.87" height="11.76" fill="#9085e9"/>
<rect x="356.13" y="210.18" width="7.92" height="11.76" fill="#9085e9"/>
<rect x="368.78" y="210.18" width="9.98" height="11.76" fill="#9085e9"/>
<rect x="384.59" y="210.18" width="5.87" height="11.76" fill="#9085e9"/>
<rect x="62.00" y="198.02" width="9.98" height="11.76" fill="#d95926"/>
<rect x="77.81" y="198.02" width="12.03" height="11.76" fill="#9085e9"/>
<rect x="96.79" y="198.02" width="14.09" height="11.76" fill="#9085e9"/>
<rect x="118.93" y="198.02" width="12.03" height="11.76" fill="#9085e9"/>
<rect x="137.90" y="198.02" width="14.09" height="11.76" fill="#199e70"/>
<rect x="160.04" y="198.02" width="7.92" height="11.76" fill="#9085e9"/>
<rect x="172.69" y="198.02" width="5.87" height="11.76" fill="#9085e9"/>
<rect x="182.18" y="198.02" width="7.92" height="11.76" fill="#9085e9"/>
<rect x="194.83" y="198.02" width="9.98" height="11.76" fill="#9085e9"/>
<rect x="210.64" y="198.02" width="7.92" height="11.76" fill="#9085e9"/>
<rect x="223.30" y="198.02" width="7.92" height="11.76" fill="#9085e9"/>
<rect x="235.95" y="198.02" width="7.92" height="11.76" fill="#9085e9"/>
<rect x="248.60" y="198.02" width="7.92" height="11.76" fill="#9085e9"/>
<rect x="261.25" y="198.02" width="7.92" height="11.76" fill="#9085e9"/>
<rect x="273.90" y="198.02" width="5.87" height="11.76" fill="#9085e9"/>
<rect x="283.39" y="198.02" width="9.98" height="11.76" fill="#9085e9"/>
<rect x="299.20" y="198.02" width="5.87" height="11.76" fill="#9085e9"/>
<rect x="308.69" y="198.02" width="5.87" height="11.76" fill="#9085e9"/>
<rect x="318.18" y="198.02" width="7.92" height="11.76" fill="#9085e9"/>
<rect x="330.83" y="198.02" width="5.87" height="11.76" fill="#9085e9"/>
<rect x="340.31" y="198.02" width="9.98" height="11.76" fill="#d95926"/>
<rect x="356.13" y="198.02" width="5.87" height="11.76" fill="#9085e9"/>
<rect x="365.62" y="198.02" width="9.98" height="11.76" fill="#9085e9"/>
<rect x="381.43" y="198.02" width="9.98" height="11.76" fill="#9085e9"/>
<rect x="62.00" y="185.87" width="14.09" height="11.76" fill="#9085e9"/>
<rect x="84.14" y="185.87" width="7.92" height="11.76" fill="#9085e9"/>
<rect x="96.79" y="185.87" width="7.92" height="11.76" fill="#9085e9"/>
<rect x="109.44" y="185.87" width="12.03" height="11.76" fill="#9085e9"/>
<rect x="128.42" y="185.87" width="7.92" height="11.76" fill="#9085e9"/>
<rect x="141.07" y="185.87" width="14.09" height="11.76" fill="#9085e9"/>
<rect x="163.21" y="185.87" width="7.92" height="11.76" fill="#9085e9"/>
<rect x="175.86" y="185.87" width="5.87" height="11.76" fill="#9085e9"/>
<rect x="185.34" y="185.87" width="7.92" height="11.76" fill="#9085e9"/>
<rect x="197.99" y="185.87" width="7.92" height="11.76" fill="#9085e9"/>
<rect x="210.64" y="185.87" width="14.09" height="11.76" fill="#9085e9"/>
<rect x="232.78" y="185.87" width="5.87" height="11.76" fill="#9085e9"/>
<rect x="242.27" y="185.87" width="7.92" height="11.76" fill="#9085e9"/>
<rect x="254.92" y="185.87" width="7.92" height="11.76" fill="#9085e9"/>
<rect x="267.57" y="185.87" width="7.92" height="11.76" fill="#9085e9"/>
<rect x="280.22" y="185.87" width="7.92" height="11.76" fill="#9085e9"/>
<rect x="292.87" y="185.87" width="5.87" height="11.76" fill="#9085e9"/>
<rect x="302.36" y="185.87" width="5.87" height="11.76" fill="#9085e9"/>
<rect x="311.85" y="185.87" width="7.92" height="11.76" fill="#9085e9"/>
<rect x="324.50" y="185.87" width="9.98" height="11.76" fill="#d95926"/>
<rect x="340.31" y="185.87" width="18.20" height="11.76" fill="#9085e9"/>
<rect x="368.78" y="185.87" width="7.92" height="11.76" fill="#9085e9"/>
<rect x="381.43" y="185.87" width="5.87" height="11.76" fill="#9085e9"/>
<rect x="62.00" y="173.71" width="12.03" height="11.76" fill="#9085e9"/>
<rect x="80.98" y="173.71" width="5.87" height="11.76" fill="#9085e9"/>
<rect x="90.46" y="173.71" width="9.98" height="11.76" fill="#9085e9"/>
<rect x="106.28" y="173.71" width="14.09" height="11.76" fill="#9085e9"/>
<rect x="128.42" y="173.71" width="7.92" height="11.76" fill="#9085e9"/>
<rect x="141.07" y="173.71" width="7.92" height="11.76" fill="#9085e9"/>
<rect x="153.72" y="173.71" width="12.03" height="11.76" fill="#9085e9"/>
<rect x="172.69" y="173.71" width="7.92" height="11.76" fill="#9085e9"/>
<rect x="185.34" y="173.71" width="12.03" height="11.76" fill="#9085e9"/>
<rect x="204.32" y="173.71" width="16.15" height="11.76" fill="#c98500"/>
<rect x="229.62" y="173.71" width="9.98" height="11.76" fill="#9085e9"/>
<rect x="245.43" y="173.71" width="16.15" height="11.76" fill="#c98500"/>
<rect x="270.74" y="173.71" width="7.92" height="11.76" fill="#9085e9"/>
<rect x="283.39" y="173.71" width="5.87" height="11.76" fill="#9085e9"/>
<rect x="292.87" y="173.71" width="9.98" height="11.76" fill="#9085e9"/>
<rect x="308.69" y="173.71" width="7.92" height="11.76" fill="#9085e9"/>
<rect x="321.34" y="173.71" width="7.92" height="11.76" fill="#9085e9"/>
<rect x="333.99" y="173.71" width="9.98" height="11.76" fill="#9085e9"/>
<rect x="349.80" y="173.71" width="7.92" height="11.76" fill="#9085e9"/>
<rect x="362.45" y="173.71" width="7.92" height="11.76" fill="#9085e9"/>
<rect x="375.10" y="173.71" width="9.98" height="11.76" fill="#9085e9"/>
<rect x="390.92" y="173.71" width="5.87" height="11.76" fill="#9085e9"/>
<rect x="62.00" y="161.56" width="5.87" height="11.76" fill="#9085e9"/>
<rect x="71.49" y="161.56" width="14.09" height="11.76" fill="#9085e9"/>
<rect x="93.63" y="161.56" width="7.92" height="11.76" fill="#9085e9"/>
<rect x="106.28" y="161.56" width="9.98" height="11.76" fill="#9085e9"/>
<rect x="122.09" y="161.56" width="7.92" height="11.76" fill="#9085e9"/>
<rect x="134.74" y="161.56" width="7.92" height="11.76" fill="#9085e9"/>
<rect x="147.39" y="161.56" width="7.92" height="11.76" fill="#9085e9"/>
<rect x="160.04" y="161.56" width="5.87" height="11.76" fill="#9085e9"/>
<rect x="169.53" y="161.56" width="7.92" height="11.76" fill="#9085e9"/>
<rect x="182.18" y="161.56" width="9.98" height="11.76" fill="#9085e9"/>
<rect x="197.99" y="161.56" width="9.98" height="11.76" fill="#9085e9"/>
<rect x="213.81" y="161.56" width="14.09" height="11.76" fill="#9085e9"/>
<rect x="235.95" y="161.56" width="12.03" height="11.76" fill="#9085e9"/>
<rect x="254.92" y="161.56" width="12.03" height="11.76" fill="#9085e9"/>
<rect x="273.90" y="161.56" width="7.92" height="11.76" fill="#9085e9"/>
<rect x="286.55" y="161.56" width="7.92" height="11.76" fill="#9085e9"/>
<rect x="299.20" y="161.56" width="7.92" height="11.76" fill="#9085e9"/>
<rect x="311.85" y="161.56" width="5.87" height="11.76" fill="#9085e9"/>
<rect x="321.34" y="161.56" width="16.15" height="11.76" fill="#199e70"/>
<rect x="346.64" y="161.56" width="16.15" height="11.76" fill="#199e70"/>
<rect x="371.94" y="161.56" width="14.09" height="11.76" fill="#9085e9"/>
<rect x="62.00" y="149.40" width="5.87" height="11.76" fill="#9085e9"/>
<rect x="71.49" y="149.40" width="9.98" height="11.76" fill="#9085e9"/>
<rect x="87.30" y="149.40" width="5.87" height="11.76" fill="#9085e9"/>
<rect x="96.79" y="149.40" width="7.92" height="11.76" fill="#9085e9"/>
<rect x="109.44" y="149.40" width="9.98" height="11.76" fill="#9085e9"/>
<rect x="125.25" y="149.40" width="7.92" height="11.76" fill="#9085e9"/>
<rect x="137.90" y="149.40" width="5.87" height="11.76" fill="#9085e9"/>
<rect x="147.39" y="149.40" width="5.87" height="11.76" fill="#9085e9"/>
<rect x="156.88" y="149.40" width="14.09" height="11.76" fill="#9085e9"/>
<rect x="179.02" y="149.40" width="7.92" height="11.76" fill="#9085e9"/>
<rect x="191.67" y="149.40" width="7.92" height="11.76" fill="#9085e9"/>
<rect x="204.32" y="149.40" width="7.92" height="11.76" fill="#9085e9"/>
<rect x="216.97" y="149.40" width="12.03" height="11.76" fill="#9085e9"/>
<rect x="235.95" y="149.40" width="7.92" height="11.76" fill="#9085e9"/>
<rect x="248.60" y="149.40" width="14.09" height="11.76" fill="#9085e9"/>
<rect x="270.74" y="149.40" width="16.15" height="11.76" fill="#c98500"/>
<rect x="296.04" y="149.40" width="9.98" height="11.76" fill="#9085e9"/>
<rect x="311.85" y="149.40" width="12.03" height="11.76" fill="#9085e9"/>
<rect x="330.83" y="149.40" width="5.87" height="11.76" fill="#9085e9"/>
<rect x="340.31" y="149.40" width="5.87" height="11.76" fill="#9085e9"/>
<rect x="349.80" y="149.40" width="14.09" height="11.76" fill="#9085e9"/>
<rect x="371.94" y="149.40" width="7.92" height="11.76" fill="#9085e9"/>
<rect x="384.59" y="149.40" width="5.87" height="11.76" fill="#9085e9"/>
<rect x="62.00" y="137.24" width="14.09" height="11.76" fill="#9085e9"/>
<rect x="84.14" y="137.24" width="7.92" height="11.76" fill="#9085e9"/>
<rect x="96.79" y="137.24" width="7.92" height="11.76" fill="#9085e9"/>
<rect x="109.44" y="137.24" width="7.92" height="11.76" fill="#9085e9"/>
<rect x="122.09" y="137.24" width="7.92" height="11.76" fill="#9085e9"/>
<rect x="134.74" y="137.24" width="32.59" height="11.76" fill="#3987e5"/>
<rect x="185.34" y="137.24" width="32.59" height="11.76" fill="#3987e5"/>
<rect x="235.95" y="137.24" width="32.59" height="11.76" fill="#3987e5"/>
<rect x="286.55" y="137.24" width="32.59" height="11.76" fill="#3987e5"/>
<rect x="337.15" y="137.24" width="32.59" height="11.76" fill="#3987e5"/>
<rect x="62.00" y="125.09" width="32.59" height="11.76" fill="#3987e5"/>
<rect x="112.60" y="125.09" width="32.59" height="11.76" fill="#3987e5"/>
<rect x="163.21" y="125.09" width="32.59" height="11.76" fill="#3987e5"/>
<rect x="213.81" y="125.09" width="32.59" height="11.76" fill="#3987e5"/>
<rect x="264.41" y="125.09" width="32.59" height="11.76" fill="#3987e5"/>
<rect x="315.01" y="125.09" width="32.59" height="11.76" fill="#3987e5"/>
<rect x="62.00" y="112.93" width="32.59" height="11.76" fill="#3987e5"/>
<rect x="112.60" y="112.93" width="32.59" height="11.76" fill="#3987e5"/>
<rect x="163.21" y="112.93" width="32.59" height="11.76" fill="#3987e5"/>
<rect x="213.81" y="112.93" width="32.59" height="11.76" fill="#3987e5"/>
<rect x="264.41" y="112.93" width="32.59" height="11.76" fill="#3987e5"/>
<rect x="315.01" y="112.93" width="32.59" height="11.76" fill="#3987e5"/>
<rect x="62.00" y="100.78" width="32.59" height="11.76" fill="#3987e5"/>
<rect x="112.60" y="100.78" width="32.59" height="11.76" fill="#3987e5"/>
<rect x="163.21" y="100.78" width="32.59" height="11.76" fill="#3987e5"/>
<rect x="213.81" y="100.78" width="32.59" height="11.76" fill="#3987e5"/>
<rect x="264.41" y="100.78" width="32.59" height="11.76" fill="#3987e5"/>
<rect x="315.01" y="100.78" width="32.59" height="11.76" fill="#3987e5"/>
<rect x="62.00" y="88.62" width="32.59" height="11.76" fill="#3987e5"/>
<rect x="112.60" y="88.62" width="32.59" height="11.76" fill="#3987e5"/>
<rect x="163.21" y="88.62" width="32.59" height="11.76" fill="#3987e5"/>
<rect x="213.81" y="88.62" width="32.59" height="11.76" fill="#3987e5"/>
<rect x="264.41" y="88.62" width="32.59" height="11.76" fill="#3987e5"/>
<rect x="315.01" y="88.62" width="32.59" height="11.76" fill="#3987e5"/>
<rect x="62.00" y="76.47" width="32.59" height="11.76" fill="#3987e5"/>
<rect x="112.60" y="76.47" width="32.59" height="11.76" fill="#3987e5"/>
<rect x="163.21" y="76.47" width="32.59" height="11.76" fill="#3987e5"/>
<rect x="213.81" y="76.47" width="32.59" height="11.76" fill="#3987e5"/>
<rect x="264.41" y="76.47" width="32.59" height="11.76" fill="#3987e5"/>
<rect x="315.01" y="76.47" width="32.59" height="11.76" fill="#3987e5"/>
<rect x="62.00" y="64.31" width="32.59" height="11.76" fill="#3987e5"/>
<rect x="112.60" y="64.31" width="32.59" height="11.76" fill="#3987e5"/>
<rect x="163.21" y="64.31" width="32.59" height="11.76" fill="#3987e5"/>
<rect x="213.81" y="64.31" width="32.59" height="11.76" fill="#3987e5"/>
<rect x="264.41" y="64.31" width="32.59" height="11.76" fill="#3987e5"/>
<rect x="315.01" y="64.31" width="32.59" height="11.76" fill="#3987e5"/>
<rect x="62.00" y="52.16" width="32.59" height="11.76" fill="#3987e5"/>
<rect x="112.60" y="52.16" width="32.59" height="11.76" fill="#3987e5"/>
<rect x="163.21" y="52.16" width="32.59" height="11.76" fill="#3987e5"/>
<rect x="213.81" y="52.16" width="32.59" height="11.76" fill="#3987e5"/>
<rect x="264.41" y="52.16" width="32.59" height="11.76" fill="#3987e5"/>
<rect x="315.01" y="52.16" width="32.59" height="11.76" fill="#3987e5"/>
<rect x="62.00" y="40.00" width="32.59" height="11.76" fill="#3987e5"/>
<rect x="112.60" y="40.00" width="32.59" height="11.76" fill="#3987e5"/>
<rect x="163.21" y="40.00" width="32.59" height="11.76" fill="#3987e5"/>
<rect x="213.81" y="40.00" width="32.59" height="11.76" fill="#3987e5"/>
<rect x="264.41" y="40.00" width="32.59" height="11.76" fill="#3987e5"/>
<rect x="315.01" y="40.00" width="32.59" height="11.76" fill="#3987e5"/>
<rect x="62.00" y="40.00" width="32.59" height="11.76" fill="#3987e5"/>
<rect x="112.60" y="40.00" width="32.59" height="11.76" fill="#3987e5"/>
<rect x="163.21" y="40.00" width="32.59" height="11.76" fill="#3987e5"/>
<rect x="213.81" y="40.00" width="32.59" height="11.76" fill="#3987e5"/>
<rect x="264.41" y="40.00" width="32.59" height="11.76" fill="#3987e5"/>
<rect x="315.01" y="40.00" width="32.59" height="11.76" fill="#3987e5"/>
<rect x="62.00" y="40.00" width="32.59" height="11.76" fill="#3987e5"/>
<rect x="112.60" y="40.00" width="32.59" height="11.76" fill="#3987e5"/>
<rect x="163.21" y="40.00" width="32.59" height="11.76" fill="#3987e5"/>
<line x1="62.0" y1="584.7" x2="401.5" y2="584.7" stroke="#c3c2b7" stroke-width="1"/>
<line x1="62.0" y1="580.7" x2="62.0" y2="588.7" stroke="#c3c2b7" stroke-width="1"/>
<line x1="401.5" y1="580.7" x2="401.5" y2="588.7" stroke="#c3c2b7" stroke-width="1"/>
<text x="231.8" y="602.7" fill="#e8e8e2" font-size="12.5" text-anchor="middle" font-weight="600">x = 76.0 µm</text>
<line x1="46.0" y1="40.0" x2="46.0" y2="380.4" stroke="#c3c2b7" stroke-width="1"/>
<line x1="42.0" y1="40.0" x2="50.0" y2="40.0" stroke="#c3c2b7" stroke-width="1"/>
<line x1="42.0" y1="380.4" x2="50.0" y2="380.4" stroke="#c3c2b7" stroke-width="1"/>
<text x="38.0" y="210.2" fill="#e8e8e2" font-size="12.5" text-anchor="middle" font-weight="600" transform="rotate(-90 38.0 210.2)">y = 76.2 µm</text>
<text x="62" y="619" fill="#898781" font-size="11">28 rows · die 76 × 76 = 5786 µm² · cells 3761 µm² @ 65% util</text>
</svg>