<svg xmlns="http://www.w3.org/2000/svg" width="1414" height="838" font-family="system-ui,sans-serif"><rect width="1414" height="838" fill="#0d0d10"/><rect x="10.0" y="256.7" width="556.6" height="525.3" fill="none" stroke="#e8c15a" stroke-width="1.5"/><rect x="76.64" y="354.72" width="11.76" height="27.44" fill="#3d7fd6"/><rect x="354.96" y="711.44" width="11.76" height="27.44" fill="#3d7fd6"/><rect x="237.36" y="574.24" width="11.76" height="27.44" fill="#3d7fd6"/><rect x="119.76" y="711.44" width="11.76" height="27.44" fill="#3d7fd6"/><rect x="60.96" y="546.80" width="11.76" height="27.44" fill="#3d7fd6"/><rect x="88.40" y="409.60" width="15.68" height="27.44" fill="#3d7fd6"/><rect x="108.00" y="464.48" width="19.60" height="27.44" fill="#3d7fd6"/><rect x="151.12" y="437.04" width="15.68" height="27.44" fill="#3d7fd6"/><rect x="76.64" y="437.04" width="23.52" height="27.44" fill="#3d7fd6"/><rect x="64.88" y="327.28" width="31.36" height="27.44" fill="#3d7fd6"/><rect x="221.68" y="354.72" width="15.68" height="27.44" fill="#3d7fd6"/><rect x="233.44" y="327.28" width="15.68" height="27.44" fill="#3d7fd6"/><rect x="119.76" y="437.04" width="27.44" height="27.44" fill="#3d7fd6"/><rect x="88.40" y="354.72" width="19.60" height="27.44" fill="#3d7fd6"/><rect x="100.16" y="437.04" width="19.60" height="27.44" fill="#3d7fd6"/><rect x="123.68" y="409.60" width="35.28" height="27.44" fill="#3d7fd6"/><rect x="104.08" y="299.84" width="19.60" height="27.44" fill="#3d7fd6"/><rect x="108.00" y="354.72" width="43.12" height="27.44" fill="#3d7fd6"/><rect x="96.24" y="327.28" width="23.52" height="27.44" fill="#3d7fd6"/><rect x="68.80" y="299.84" width="35.28" height="27.44" fill="#3d7fd6"/><rect x="237.36" y="354.72" width="11.76" height="27.44" fill="#3d7fd6"/><rect x="178.56" y="327.28" width="31.36" height="27.44" fill="#3d7fd6"/><rect x="249.12" y="327.28" width="23.52" height="27.44" fill="#3d7fd6"/><rect x="155.04" y="684.00" width="15.68" height="27.44" fill="#3d7fd6"/><rect x="60.96" y="656.56" width="23.52" height="27.44" fill="#3d7fd6"/><rect x="104.08" y="601.68" width="23.52" height="27.44" fill="#3d7fd6"/><rect x="158.96" y="574.24" width="19.60" height="27.44" fill="#3d7fd6"/><rect x="96.24" y="684.00" width="31.36" height="27.44" fill="#3d7fd6"/><rect x="131.52" y="711.44" width="19.60" height="27.44" fill="#3d7fd6"/><rect x="92.32" y="711.44" width="27.44" height="27.44" fill="#3d7fd6"/><rect x="127.60" y="684.00" width="27.44" height="27.44" fill="#3d7fd6"/><rect x="127.60" y="601.68" width="31.36" height="27.44" fill="#3d7fd6"/><rect x="119.76" y="574.24" width="15.68" height="27.44" fill="#3d7fd6"/><rect x="72.72" y="574.24" width="19.60" height="27.44" fill="#3d7fd6"/><rect x="135.44" y="574.24" width="23.52" height="27.44" fill="#3d7fd6"/><rect x="60.96" y="519.36" width="31.36" height="27.44" fill="#3d7fd6"/><rect x="186.40" y="464.48" width="15.68" height="27.44" fill="#3d7fd6"/><rect x="72.72" y="546.80" width="31.36" height="27.44" fill="#3d7fd6"/><rect x="202.08" y="464.48" width="15.68" height="27.44" fill="#3d7fd6"/><rect x="139.36" y="546.80" width="35.28" height="27.44" fill="#3d7fd6"/><rect x="366.72" y="711.44" width="15.68" height="27.44" fill="#3d7fd6"/><rect x="217.76" y="656.56" width="23.52" height="27.44" fill="#3d7fd6"/><rect x="241.28" y="656.56" width="23.52" height="27.44" fill="#3d7fd6"/><rect x="249.12" y="574.24" width="19.60" height="27.44" fill="#3d7fd6"/><rect x="304.00" y="684.00" width="31.36" height="27.44" fill="#3d7fd6"/><rect x="362.80" y="684.00" width="19.60" height="27.44" fill="#3d7fd6"/><rect x="335.36" y="684.00" width="27.44" height="27.44" fill="#3d7fd6"/><rect x="327.52" y="711.44" width="27.44" height="27.44" fill="#3d7fd6"/><rect x="209.92" y="684.00" width="31.36" height="27.44" fill="#3d7fd6"/><rect x="264.80" y="684.00" width="15.68" height="27.44" fill="#3d7fd6"/><rect x="256.96" y="629.12" width="15.68" height="27.44" fill="#3d7fd6"/><rect x="237.36" y="629.12" width="19.60" height="27.44" fill="#3d7fd6"/><rect x="264.80" y="656.56" width="23.52" height="27.44" fill="#3d7fd6"/><rect x="206.00" y="574.24" width="31.36" height="27.44" fill="#3d7fd6"/><rect x="260.88" y="519.36" width="15.68" height="27.44" fill="#3d7fd6"/><rect x="221.68" y="601.68" width="31.36" height="27.44" fill="#3d7fd6"/><rect x="327.52" y="574.24" width="19.60" height="27.44" fill="#3d7fd6"/><rect x="249.12" y="491.92" width="15.68" height="27.44" fill="#3d7fd6"/><rect x="256.96" y="546.80" width="35.28" height="27.44" fill="#3d7fd6"/><rect x="217.76" y="464.48" width="31.36" height="27.44" fill="#3d7fd6"/><rect x="249.12" y="464.48" width="23.52" height="27.44" fill="#3d7fd6"/><rect x="272.64" y="409.60" width="19.60" height="27.44" fill="#3d7fd6"/><rect x="253.04" y="409.60" width="19.60" height="27.44" fill="#3d7fd6"/><rect x="347.12" y="437.04" width="19.60" height="27.44" fill="#3d7fd6"/><rect x="339.28" y="656.56" width="19.60" height="27.44" fill="#3d7fd6"/><rect x="331.44" y="629.12" width="19.60" height="27.44" fill="#3d7fd6"/><rect x="143.28" y="656.56" width="23.52" height="27.44" fill="#3d7fd6"/><rect x="147.20" y="629.12" width="19.60" height="27.44" fill="#3d7fd6"/><rect x="174.64" y="629.12" width="15.68" height="27.44" fill="#3d7fd6"/><rect x="339.28" y="601.68" width="19.60" height="27.44" fill="#3d7fd6"/><rect x="174.64" y="546.80" width="23.52" height="27.44" fill="#3d7fd6"/><rect x="307.92" y="546.80" width="15.68" height="27.44" fill="#3d7fd6"/><rect x="319.68" y="656.56" width="19.60" height="27.44" fill="#3d7fd6"/><rect x="319.68" y="601.68" width="19.60" height="27.44" fill="#3d7fd6"/><rect x="304.00" y="574.24" width="23.52" height="27.44" fill="#3d7fd6"/><rect x="131.52" y="491.92" width="15.68" height="27.44" fill="#3d7fd6"/><rect x="123.68" y="656.56" width="19.60" height="27.44" fill="#3d7fd6"/><rect x="135.44" y="519.36" width="19.60" height="27.44" fill="#3d7fd6"/><rect x="147.20" y="491.92" width="23.52" height="27.44" fill="#3d7fd6"/><rect x="162.88" y="464.48" width="23.52" height="27.44" fill="#3d7fd6"/><rect x="60.96" y="601.68" width="19.60" height="27.44" fill="#3d7fd6"/><rect x="53.12" y="684.00" width="19.60" height="27.44" fill="#3d7fd6"/><rect x="72.72" y="684.00" width="23.52" height="27.44" fill="#3d7fd6"/><rect x="80.56" y="601.68" width="23.52" height="27.44" fill="#3d7fd6"/><rect x="100.16" y="519.36" width="23.52" height="27.44" fill="#3d7fd6"/><rect x="139.36" y="464.48" width="23.52" height="27.44" fill="#3d7fd6"/><rect x="237.36" y="519.36" width="23.52" height="27.44" fill="#3d7fd6"/><rect x="253.04" y="601.68" width="19.60" height="27.44" fill="#3d7fd6"/><rect x="217.76" y="711.44" width="19.60" height="27.44" fill="#3d7fd6"/><rect x="237.36" y="711.44" width="23.52" height="27.44" fill="#3d7fd6"/><rect x="241.28" y="684.00" width="23.52" height="27.44" fill="#3d7fd6"/><rect x="268.72" y="574.24" width="23.52" height="27.44" fill="#3d7fd6"/><rect x="225.60" y="546.80" width="31.36" height="27.44" fill="#3d7fd6"/><rect x="272.64" y="464.48" width="31.36" height="27.44" fill="#3d7fd6"/><rect x="304.00" y="464.48" width="35.28" height="27.44" fill="#3d7fd6"/><rect x="304.00" y="491.92" width="31.36" height="27.44" fill="#3d7fd6"/><rect x="323.60" y="546.80" width="35.28" height="27.44" fill="#3d7fd6"/><rect x="358.88" y="546.80" width="31.36" height="27.44" fill="#3d7fd6"/><rect x="358.88" y="656.56" width="35.28" height="27.44" fill="#3d7fd6"/><rect x="394.16" y="656.56" width="31.36" height="27.44" fill="#3d7fd6"/><rect x="429.44" y="711.44" width="66.64" height="27.44" fill="#3d7fd6"/><rect x="488.24" y="684.00" width="15.68" height="27.44" fill="#3d7fd6"/><rect x="398.08" y="684.00" width="90.16" height="27.44" fill="#3d7fd6"/><rect x="358.88" y="601.68" width="35.28" height="27.44" fill="#3d7fd6"/><rect x="104.08" y="409.60" width="19.60" height="27.44" fill="#3d7fd6"/><rect x="217.76" y="382.16" width="27.44" height="27.44" fill="#3d7fd6"/><rect x="413.76" y="574.24" width="15.68" height="27.44" fill="#3d7fd6"/><rect x="347.12" y="574.24" width="66.64" height="27.44" fill="#3d7fd6"/><rect x="339.28" y="464.48" width="35.28" height="27.44" fill="#3d7fd6"/><rect x="249.12" y="354.72" width="19.60" height="27.44" fill="#3d7fd6"/><rect x="311.84" y="409.60" width="35.28" height="27.44" fill="#3d7fd6"/><rect x="202.08" y="382.16" width="15.68" height="27.44" fill="#3d7fd6"/><rect x="206.00" y="354.72" width="15.68" height="27.44" fill="#3d7fd6"/><rect x="194.24" y="409.60" width="35.28" height="27.44" fill="#3d7fd6"/><rect x="347.12" y="409.60" width="15.68" height="27.44" fill="#3d7fd6"/><rect x="284.40" y="382.16" width="66.64" height="27.44" fill="#3d7fd6"/><rect x="229.52" y="437.04" width="66.64" height="27.44" fill="#3d7fd6"/><rect x="217.76" y="299.84" width="15.68" height="27.44" fill="#3d7fd6"/><rect x="57.04" y="464.48" width="19.60" height="27.44" fill="#3d7fd6"/><rect x="53.12" y="437.04" width="23.52" height="27.44" fill="#3d7fd6"/><rect x="209.92" y="327.28" width="23.52" height="27.44" fill="#3d7fd6"/><rect x="119.76" y="327.28" width="35.28" height="27.44" fill="#3d7fd6"/><rect x="194.24" y="299.84" width="23.52" height="27.44" fill="#3d7fd6"/><rect x="296.16" y="299.84" width="35.28" height="27.44" fill="#3d7fd6"/><rect x="304.00" y="354.72" width="31.36" height="27.44" fill="#3d7fd6"/><rect x="351.04" y="382.16" width="31.36" height="27.44" fill="#3d7fd6"/><rect x="374.56" y="464.48" width="31.36" height="27.44" fill="#3d7fd6"/><rect x="394.16" y="601.68" width="31.36" height="27.44" fill="#3d7fd6"/><rect x="492.16" y="656.56" width="31.36" height="27.44" fill="#3d7fd6"/><rect x="425.52" y="656.56" width="31.36" height="27.44" fill="#3d7fd6"/><rect x="476.48" y="491.92" width="15.68" height="27.44" fill="#3d7fd6"/><rect x="335.36" y="491.92" width="66.64" height="27.44" fill="#3d7fd6"/><rect x="370.64" y="354.72" width="15.68" height="27.44" fill="#3d7fd6"/><rect x="405.92" y="464.48" width="23.52" height="27.44" fill="#3d7fd6"/><rect x="452.96" y="574.24" width="15.68" height="27.44" fill="#3d7fd6"/><rect x="476.48" y="546.80" width="19.60" height="27.44" fill="#3d7fd6"/><rect x="300.08" y="327.28" width="31.36" height="27.44" fill="#3d7fd6"/><rect x="351.04" y="354.72" width="19.60" height="27.44" fill="#3d7fd6"/><rect x="398.08" y="437.04" width="19.60" height="27.44" fill="#3d7fd6"/><rect x="366.72" y="437.04" width="31.36" height="27.44" fill="#3d7fd6"/><rect x="394.16" y="519.36" width="23.52" height="27.44" fill="#3d7fd6"/><rect x="417.68" y="519.36" width="19.60" height="27.44" fill="#3d7fd6"/><rect x="437.28" y="519.36" width="19.60" height="27.44" fill="#3d7fd6"/><rect x="441.20" y="601.68" width="19.60" height="27.44" fill="#3d7fd6"/><rect x="460.80" y="601.68" width="19.60" height="27.44" fill="#3d7fd6"/><rect x="480.40" y="601.68" width="23.52" height="27.44" fill="#3d7fd6"/><rect x="437.28" y="546.80" width="39.20" height="27.44" fill="#3d7fd6"/><rect x="468.64" y="629.12" width="19.60" height="27.44" fill="#3d7fd6"/><rect x="402.00" y="546.80" width="35.28" height="27.44" fill="#3d7fd6"/><rect x="496.08" y="546.80" width="23.52" height="27.44" fill="#3d7fd6"/><rect x="456.88" y="656.56" width="35.28" height="27.44" fill="#3d7fd6"/><rect x="488.24" y="629.12" width="23.52" height="27.44" fill="#3d7fd6"/><rect x="503.92" y="519.36" width="15.68" height="27.44" fill="#3d7fd6"/><rect x="480.40" y="519.36" width="19.60" height="27.44" fill="#3d7fd6"/><rect x="331.44" y="327.28" width="35.28" height="27.44" fill="#3d7fd6"/><rect x="449.04" y="354.72" width="19.60" height="27.44" fill="#3d7fd6"/><rect x="366.72" y="327.28" width="35.28" height="27.44" fill="#3d7fd6"/><rect x="413.76" y="327.28" width="31.36" height="27.44" fill="#3d7fd6"/><rect x="366.72" y="299.84" width="35.28" height="27.44" fill="#3d7fd6"/><rect x="331.44" y="299.84" width="35.28" height="27.44" fill="#3d7fd6"/><rect x="417.68" y="299.84" width="35.28" height="27.44" fill="#3d7fd6"/><rect x="382.40" y="409.60" width="35.28" height="27.44" fill="#3d7fd6"/><rect x="362.80" y="409.60" width="19.60" height="27.44" fill="#3d7fd6"/><rect x="417.68" y="409.60" width="35.28" height="27.44" fill="#3d7fd6"/><rect x="452.96" y="409.60" width="31.36" height="27.44" fill="#3d7fd6"/><rect x="472.56" y="327.28" width="11.76" height="27.44" fill="#3d7fd6"/><rect x="472.56" y="299.84" width="31.36" height="27.44" fill="#3d7fd6"/><rect x="468.64" y="437.04" width="19.60" height="27.44" fill="#3d7fd6"/><rect x="433.36" y="437.04" width="35.28" height="27.44" fill="#3d7fd6"/><rect x="452.96" y="299.84" width="19.60" height="27.44" fill="#3d7fd6"/><rect x="484.32" y="327.28" width="19.60" height="27.44" fill="#3d7fd6"/><rect x="468.64" y="354.72" width="27.44" height="27.44" fill="#3d7fd6"/><rect x="449.04" y="382.16" width="66.64" height="27.44" fill="#3d7fd6"/><rect x="484.32" y="409.60" width="31.36" height="27.44" fill="#3d7fd6"/><rect x="445.12" y="327.28" width="27.44" height="27.44" fill="#3d7fd6"/><rect x="488.24" y="437.04" width="35.28" height="27.44" fill="#3d7fd6"/><rect x="480.40" y="464.48" width="27.44" height="27.44" fill="#3d7fd6"/><rect x="449.04" y="464.48" width="31.36" height="27.44" fill="#3d7fd6"/><rect x="507.84" y="464.48" width="15.68" height="27.44" fill="#3d7fd6"/><text x="10.0" y="822" fill="#e6e6e6" font-size="15" font-weight="600">vth_prime  (log)</text><text x="10.0" y="836" fill="#9a9a9a" font-size="12">80×75 µm</text><rect x="606.6" y="9.8" width="787.9" height="772.2" fill="none" stroke="#e8c15a" stroke-width="1.5"/><rect x="1163.28" y="409.60" width="15.68" height="27.44" fill="#3d7fd6"/><rect x="1112.32" y="382.16" width="19.60" height="27.44" fill="#3d7fd6"/><rect x="1147.60" y="382.16" width="23.52" height="27.44" fill="#3d7fd6"/><rect x="1092.72" y="437.04" width="15.68" height="27.44" fill="#3d7fd6"/><rect x="1135.84" y="519.36" width="15.68" height="27.44" fill="#3d7fd6"/><rect x="1128.00" y="464.48" width="15.68" height="27.44" fill="#3d7fd6"/><rect x="1175.04" y="382.16" width="66.64" height="27.44" fill="#3d7fd6"/><rect x="1249.52" y="382.16" width="15.68" height="27.44" fill="#3d7fd6"/><rect x="1194.64" y="409.60" width="31.36" height="27.44" fill="#3d7fd6"/><rect x="1104.48" y="519.36" width="15.68" height="27.44" fill="#3d7fd6"/><rect x="1112.32" y="629.12" width="15.68" height="27.44" fill="#3d7fd6"/><rect x="1096.64" y="491.92" width="15.68" height="27.44" fill="#3d7fd6"/><rect x="1128.00" y="491.92" width="66.64" height="27.44" fill="#3d7fd6"/><rect x="1155.44" y="464.48" width="19.60" height="27.44" fill="#3d7fd6"/><rect x="1182.88" y="464.48" width="66.64" height="27.44" fill="#3d7fd6"/><rect x="1253.44" y="464.48" width="15.68" height="27.44" fill="#3d7fd6"/><rect x="1198.56" y="491.92" width="31.36" height="27.44" fill="#3d7fd6"/><rect x="1069.20" y="574.24" width="15.68" height="27.44" fill="#3d7fd6"/><rect x="1104.48" y="546.80" width="23.52" height="27.44" fill="#3d7fd6"/><rect x="1151.52" y="546.80" width="23.52" height="27.44" fill="#3d7fd6"/><rect x="1194.64" y="546.80" width="19.60" height="27.44" fill="#3d7fd6"/><rect x="1167.20" y="519.36" width="31.36" height="27.44" fill="#3d7fd6"/><rect x="1135.84" y="574.24" width="15.68" height="27.44" fill="#3d7fd6"/><rect x="1006.48" y="656.56" width="15.68" height="27.44" fill="#3d7fd6"/><rect x="877.12" y="656.56" width="15.68" height="27.44" fill="#3d7fd6"/><rect x="1112.32" y="601.68" width="66.64" height="27.44" fill="#3d7fd6"/><rect x="1163.28" y="574.24" width="66.64" height="27.44" fill="#3d7fd6"/><rect x="1249.52" y="519.36" width="15.68" height="27.44" fill="#3d7fd6"/><rect x="1237.76" y="491.92" width="35.28" height="27.44" fill="#3d7fd6"/><rect x="1280.88" y="519.36" width="19.60" height="27.44" fill="#3d7fd6"/><rect x="1280.88" y="491.92" width="15.68" height="27.44" fill="#3d7fd6"/><rect x="1284.80" y="437.04" width="15.68" height="27.44" fill="#3d7fd6"/><rect x="1182.88" y="601.68" width="31.36" height="27.44" fill="#3d7fd6"/><rect x="1041.76" y="601.68" width="15.68" height="27.44" fill="#3d7fd6"/><rect x="1100.56" y="574.24" width="15.68" height="27.44" fill="#3d7fd6"/><rect x="900.64" y="574.24" width="15.68" height="27.44" fill="#3d7fd6"/><rect x="1037.84" y="656.56" width="66.64" height="27.44" fill="#3d7fd6"/><rect x="1143.68" y="656.56" width="31.36" height="27.44" fill="#3d7fd6"/><rect x="810.48" y="656.56" width="15.68" height="27.44" fill="#3d7fd6"/><rect x="841.84" y="656.56" width="15.68" height="27.44" fill="#3d7fd6"/><rect x="720.32" y="629.12" width="15.68" height="27.44" fill="#3d7fd6"/><rect x="822.24" y="684.00" width="66.64" height="27.44" fill="#3d7fd6"/><rect x="1139.76" y="684.00" width="66.64" height="27.44" fill="#3d7fd6"/><rect x="1226.00" y="629.12" width="35.28" height="27.44" fill="#3d7fd6"/><rect x="1222.08" y="601.68" width="35.28" height="27.44" fill="#3d7fd6"/><rect x="1261.28" y="601.68" width="15.68" height="27.44" fill="#3d7fd6"/><rect x="1222.08" y="546.80" width="66.64" height="27.44" fill="#3d7fd6"/><rect x="1296.56" y="546.80" width="15.68" height="27.44" fill="#3d7fd6"/><rect x="1316.16" y="519.36" width="35.28" height="27.44" fill="#3d7fd6"/><rect x="1186.80" y="656.56" width="31.36" height="27.44" fill="#3d7fd6"/><rect x="1104.48" y="684.00" width="31.36" height="27.44" fill="#3d7fd6"/><rect x="834.00" y="711.44" width="31.36" height="27.44" fill="#3d7fd6"/><rect x="649.76" y="684.00" width="15.68" height="27.44" fill="#3d7fd6"/><rect x="657.60" y="629.12" width="15.68" height="27.44" fill="#3d7fd6"/><rect x="751.68" y="656.56" width="15.68" height="27.44" fill="#3d7fd6"/><rect x="696.80" y="711.44" width="66.64" height="27.44" fill="#3d7fd6"/><rect x="932.00" y="574.24" width="15.68" height="27.44" fill="#3d7fd6"/><rect x="904.56" y="601.68" width="15.68" height="27.44" fill="#3d7fd6"/><rect x="790.88" y="574.24" width="15.68" height="27.44" fill="#3d7fd6"/><rect x="900.64" y="656.56" width="66.64" height="27.44" fill="#3d7fd6"/><rect x="869.28" y="711.44" width="66.64" height="27.44" fill="#3d7fd6"/><rect x="998.64" y="464.48" width="15.68" height="27.44" fill="#3d7fd6"/><rect x="1069.20" y="601.68" width="31.36" height="27.44" fill="#3d7fd6"/><rect x="1041.76" y="684.00" width="19.60" height="27.44" fill="#3d7fd6"/><rect x="1065.28" y="684.00" width="35.28" height="27.44" fill="#3d7fd6"/><rect x="1135.84" y="711.44" width="66.64" height="27.44" fill="#3d7fd6"/><rect x="1210.32" y="684.00" width="15.68" height="27.44" fill="#3d7fd6"/><rect x="1100.56" y="711.44" width="31.36" height="27.44" fill="#3d7fd6"/><rect x="908.48" y="437.04" width="15.68" height="27.44" fill="#3d7fd6"/><rect x="928.08" y="491.92" width="15.68" height="27.44" fill="#3d7fd6"/><rect x="955.52" y="491.92" width="23.52" height="27.44" fill="#3d7fd6"/><rect x="959.44" y="574.24" width="19.60" height="27.44" fill="#3d7fd6"/><rect x="928.08" y="601.68" width="31.36" height="27.44" fill="#3d7fd6"/><rect x="971.20" y="656.56" width="19.60" height="27.44" fill="#3d7fd6"/><rect x="994.72" y="601.68" width="11.76" height="27.44" fill="#3d7fd6"/><rect x="932.00" y="684.00" width="35.28" height="27.44" fill="#3d7fd6"/><rect x="896.72" y="684.00" width="31.36" height="27.44" fill="#3d7fd6"/><rect x="763.44" y="574.24" width="15.68" height="27.44" fill="#3d7fd6"/><rect x="783.04" y="629.12" width="15.68" height="27.44" fill="#3d7fd6"/><rect x="685.04" y="519.36" width="15.68" height="27.44" fill="#3d7fd6"/><rect x="767.36" y="601.68" width="66.64" height="27.44" fill="#3d7fd6"/><rect x="743.84" y="684.00" width="31.36" height="27.44" fill="#3d7fd6"/><rect x="685.04" y="629.12" width="15.68" height="27.44" fill="#3d7fd6"/><rect x="657.60" y="656.56" width="15.68" height="27.44" fill="#3d7fd6"/><rect x="657.60" y="519.36" width="15.68" height="27.44" fill="#3d7fd6"/><rect x="669.36" y="684.00" width="66.64" height="27.44" fill="#3d7fd6"/><rect x="763.44" y="711.44" width="66.64" height="27.44" fill="#3d7fd6"/><rect x="935.92" y="711.44" width="90.16" height="27.44" fill="#3d7fd6"/><rect x="1026.08" y="711.44" width="66.64" height="27.44" fill="#3d7fd6"/><rect x="1245.60" y="711.44" width="15.68" height="27.44" fill="#3d7fd6"/><rect x="1269.12" y="711.44" width="35.28" height="27.44" fill="#3d7fd6"/><rect x="1308.32" y="711.44" width="11.76" height="27.44" fill="#3d7fd6"/><rect x="1206.40" y="711.44" width="35.28" height="27.44" fill="#3d7fd6"/><rect x="1327.92" y="711.44" width="11.76" height="27.44" fill="#3d7fd6"/><rect x="1284.80" y="601.68" width="31.36" height="27.44" fill="#3d7fd6"/><rect x="1316.16" y="656.56" width="15.68" height="27.44" fill="#3d7fd6"/><rect x="1316.16" y="601.68" width="35.28" height="27.44" fill="#3d7fd6"/><rect x="1002.56" y="684.00" width="31.36" height="27.44" fill="#3d7fd6"/><rect x="967.28" y="684.00" width="31.36" height="27.44" fill="#3d7fd6"/><rect x="837.92" y="382.16" width="15.68" height="27.44" fill="#3d7fd6"/><rect x="884.96" y="409.60" width="15.68" height="27.44" fill="#3d7fd6"/><rect x="775.20" y="437.04" width="15.68" height="27.44" fill="#3d7fd6"/><rect x="853.60" y="491.92" width="66.64" height="27.44" fill="#3d7fd6"/><rect x="814.40" y="574.24" width="31.36" height="27.44" fill="#3d7fd6"/><rect x="830.08" y="546.80" width="66.64" height="27.44" fill="#3d7fd6"/><rect x="786.96" y="684.00" width="31.36" height="27.44" fill="#3d7fd6"/><rect x="657.60" y="546.80" width="15.68" height="27.44" fill="#3d7fd6"/><rect x="720.32" y="546.80" width="15.68" height="27.44" fill="#3d7fd6"/><rect x="661.52" y="327.28" width="15.68" height="27.44" fill="#3d7fd6"/><rect x="649.76" y="574.24" width="66.64" height="27.44" fill="#3d7fd6"/><rect x="681.12" y="656.56" width="31.36" height="27.44" fill="#3d7fd6"/><rect x="661.52" y="437.04" width="15.68" height="27.44" fill="#3d7fd6"/><rect x="661.52" y="409.60" width="15.68" height="27.44" fill="#3d7fd6"/><rect x="732.08" y="244.96" width="19.60" height="27.44" fill="#3d7fd6"/><rect x="661.52" y="217.52" width="15.68" height="27.44" fill="#3d7fd6"/><rect x="657.60" y="491.92" width="66.64" height="27.44" fill="#3d7fd6"/><rect x="700.72" y="601.68" width="66.64" height="27.44" fill="#3d7fd6"/><rect x="834.00" y="601.68" width="66.64" height="27.44" fill="#3d7fd6"/><rect x="967.28" y="601.68" width="11.76" height="27.44" fill="#3d7fd6"/><rect x="986.88" y="574.24" width="66.64" height="27.44" fill="#3d7fd6"/><rect x="1018.24" y="546.80" width="15.68" height="27.44" fill="#3d7fd6"/><rect x="975.12" y="629.12" width="90.16" height="27.44" fill="#3d7fd6"/><rect x="1237.76" y="684.00" width="19.60" height="27.44" fill="#3d7fd6"/><rect x="1265.20" y="684.00" width="19.60" height="27.44" fill="#3d7fd6"/><rect x="1284.80" y="684.00" width="66.64" height="27.44" fill="#3d7fd6"/><rect x="1273.04" y="629.12" width="23.52" height="27.44" fill="#3d7fd6"/><rect x="1006.48" y="437.04" width="15.68" height="27.44" fill="#3d7fd6"/><rect x="971.20" y="546.80" width="31.36" height="27.44" fill="#3d7fd6"/><rect x="881.04" y="519.36" width="31.36" height="27.44" fill="#3d7fd6"/><rect x="920.24" y="519.36" width="11.76" height="27.44" fill="#3d7fd6"/><rect x="857.52" y="574.24" width="31.36" height="27.44" fill="#3d7fd6"/><rect x="865.36" y="464.48" width="31.36" height="27.44" fill="#3d7fd6"/><rect x="739.92" y="437.04" width="15.68" height="27.44" fill="#3d7fd6"/><rect x="802.64" y="382.16" width="15.68" height="27.44" fill="#3d7fd6"/><rect x="802.64" y="244.96" width="15.68" height="27.44" fill="#3d7fd6"/><rect x="736.00" y="464.48" width="66.64" height="27.44" fill="#3d7fd6"/><rect x="681.12" y="546.80" width="31.36" height="27.44" fill="#3d7fd6"/><rect x="810.48" y="519.36" width="35.28" height="27.44" fill="#3d7fd6"/><rect x="845.76" y="519.36" width="35.28" height="27.44" fill="#3d7fd6"/><rect x="724.24" y="574.24" width="31.36" height="27.44" fill="#3d7fd6"/><rect x="657.60" y="244.96" width="15.68" height="27.44" fill="#3d7fd6"/><rect x="704.64" y="217.52" width="15.68" height="27.44" fill="#3d7fd6"/><rect x="661.52" y="52.88" width="15.68" height="27.44" fill="#3d7fd6"/><rect x="653.68" y="299.84" width="66.64" height="27.44" fill="#3d7fd6"/><rect x="692.88" y="437.04" width="31.36" height="27.44" fill="#3d7fd6"/><rect x="657.60" y="135.20" width="15.68" height="27.44" fill="#3d7fd6"/><rect x="661.52" y="354.72" width="15.68" height="27.44" fill="#3d7fd6"/><rect x="649.76" y="190.08" width="66.64" height="27.44" fill="#3d7fd6"/><rect x="681.12" y="382.16" width="66.64" height="27.44" fill="#3d7fd6"/><rect x="747.76" y="519.36" width="15.68" height="27.44" fill="#3d7fd6"/><rect x="716.40" y="519.36" width="15.68" height="27.44" fill="#3d7fd6"/><rect x="747.76" y="546.80" width="66.64" height="27.44" fill="#3d7fd6"/><rect x="896.72" y="546.80" width="66.64" height="27.44" fill="#3d7fd6"/><rect x="979.04" y="491.92" width="66.64" height="27.44" fill="#3d7fd6"/><rect x="1057.44" y="491.92" width="35.28" height="27.44" fill="#3d7fd6"/><rect x="1206.40" y="519.36" width="35.28" height="27.44" fill="#3d7fd6"/><rect x="1053.52" y="519.36" width="31.36" height="27.44" fill="#3d7fd6"/><rect x="1022.16" y="464.48" width="31.36" height="27.44" fill="#3d7fd6"/><rect x="939.84" y="409.60" width="15.68" height="27.44" fill="#3d7fd6"/><rect x="939.84" y="519.36" width="31.36" height="27.44" fill="#3d7fd6"/><rect x="818.32" y="464.48" width="31.36" height="27.44" fill="#3d7fd6"/><rect x="783.04" y="519.36" width="19.60" height="27.44" fill="#3d7fd6"/><rect x="759.52" y="409.60" width="31.36" height="27.44" fill="#3d7fd6"/><rect x="826.16" y="354.72" width="15.68" height="27.44" fill="#3d7fd6"/><rect x="865.36" y="244.96" width="15.68" height="27.44" fill="#3d7fd6"/><rect x="771.28" y="107.76" width="15.68" height="27.44" fill="#3d7fd6"/><rect x="802.64" y="272.40" width="66.64" height="27.44" fill="#3d7fd6"/><rect x="685.04" y="244.96" width="31.36" height="27.44" fill="#3d7fd6"/><rect x="763.44" y="272.40" width="35.28" height="27.44" fill="#3d7fd6"/><rect x="728.16" y="272.40" width="35.28" height="27.44" fill="#3d7fd6"/><rect x="688.96" y="354.72" width="31.36" height="27.44" fill="#3d7fd6"/><rect x="728.16" y="327.28" width="11.76" height="27.44" fill="#3d7fd6"/><rect x="657.60" y="80.32" width="15.68" height="27.44" fill="#3d7fd6"/><rect x="704.64" y="135.20" width="15.68" height="27.44" fill="#3d7fd6"/><rect x="739.92" y="107.76" width="15.68" height="27.44" fill="#3d7fd6"/><rect x="665.44" y="107.76" width="66.64" height="27.44" fill="#3d7fd6"/><rect x="653.68" y="162.64" width="31.36" height="27.44" fill="#3d7fd6"/><rect x="767.36" y="244.96" width="23.52" height="27.44" fill="#3d7fd6"/><rect x="743.84" y="217.52" width="23.52" height="27.44" fill="#3d7fd6"/><rect x="716.40" y="190.08" width="66.64" height="27.44" fill="#3d7fd6"/><rect x="739.92" y="354.72" width="66.64" height="27.44" fill="#3d7fd6"/><rect x="869.28" y="382.16" width="11.76" height="27.44" fill="#3d7fd6"/><rect x="806.56" y="437.04" width="66.64" height="27.44" fill="#3d7fd6"/><rect x="928.08" y="437.04" width="66.64" height="27.44" fill="#3d7fd6"/><rect x="1033.92" y="437.04" width="11.76" height="27.44" fill="#3d7fd6"/><rect x="1037.84" y="409.60" width="66.64" height="27.44" fill="#3d7fd6"/><rect x="1053.52" y="464.48" width="31.36" height="27.44" fill="#3d7fd6"/><rect x="967.28" y="409.60" width="31.36" height="27.44" fill="#3d7fd6"/><rect x="916.32" y="409.60" width="15.68" height="27.44" fill="#3d7fd6"/><rect x="861.44" y="354.72" width="31.36" height="27.44" fill="#3d7fd6"/><rect x="896.72" y="354.72" width="11.76" height="27.44" fill="#3d7fd6"/><rect x="790.88" y="327.28" width="31.36" height="27.44" fill="#3d7fd6"/><rect x="751.68" y="327.28" width="31.36" height="27.44" fill="#3d7fd6"/><rect x="826.16" y="244.96" width="31.36" height="27.44" fill="#3d7fd6"/><rect x="802.64" y="217.52" width="15.68" height="27.44" fill="#3d7fd6"/><rect x="881.04" y="80.32" width="15.68" height="27.44" fill="#3d7fd6"/><rect x="904.56" y="80.32" width="15.68" height="27.44" fill="#3d7fd6"/><rect x="763.44" y="52.88" width="66.64" height="27.44" fill="#3d7fd6"/><rect x="685.04" y="80.32" width="31.36" height="27.44" fill="#3d7fd6"/><rect x="818.32" y="135.20" width="35.28" height="27.44" fill="#3d7fd6"/><rect x="798.72" y="162.64" width="35.28" height="27.44" fill="#3d7fd6"/><rect x="728.16" y="162.64" width="31.36" height="27.44" fill="#3d7fd6"/><rect x="834.00" y="190.08" width="11.76" height="27.44" fill="#3d7fd6"/><rect x="700.72" y="52.88" width="15.68" height="27.44" fill="#3d7fd6"/><rect x="794.80" y="135.20" width="15.68" height="27.44" fill="#3d7fd6"/><rect x="998.64" y="135.20" width="15.68" height="27.44" fill="#3d7fd6"/><rect x="728.16" y="80.32" width="66.64" height="27.44" fill="#3d7fd6"/><rect x="692.88" y="162.64" width="19.60" height="27.44" fill="#3d7fd6"/><rect x="759.52" y="162.64" width="35.28" height="27.44" fill="#3d7fd6"/><rect x="826.16" y="217.52" width="66.64" height="27.44" fill="#3d7fd6"/><rect x="892.80" y="244.96" width="11.76" height="27.44" fill="#3d7fd6"/><rect x="849.68" y="327.28" width="66.64" height="27.44" fill="#3d7fd6"/><rect x="884.96" y="382.16" width="66.64" height="27.44" fill="#3d7fd6"/><rect x="1018.24" y="409.60" width="15.68" height="27.44" fill="#3d7fd6"/><rect x="959.44" y="382.16" width="15.68" height="27.44" fill="#3d7fd6"/><rect x="1037.84" y="382.16" width="66.64" height="27.44" fill="#3d7fd6"/><rect x="986.88" y="382.16" width="19.60" height="27.44" fill="#3d7fd6"/><rect x="912.40" y="354.72" width="31.36" height="27.44" fill="#3d7fd6"/><rect x="951.60" y="244.96" width="15.68" height="27.44" fill="#3d7fd6"/><rect x="873.20" y="299.84" width="31.36" height="27.44" fill="#3d7fd6"/><rect x="943.76" y="272.40" width="11.76" height="27.44" fill="#3d7fd6"/><rect x="834.00" y="162.64" width="31.36" height="27.44" fill="#3d7fd6"/><rect x="853.60" y="190.08" width="31.36" height="27.44" fill="#3d7fd6"/><rect x="802.64" y="80.32" width="31.36" height="27.44" fill="#3d7fd6"/><rect x="900.64" y="107.76" width="15.68" height="27.44" fill="#3d7fd6"/><rect x="935.92" y="80.32" width="15.68" height="27.44" fill="#3d7fd6"/><rect x="1041.76" y="80.32" width="15.68" height="27.44" fill="#3d7fd6"/><rect x="869.28" y="52.88" width="66.64" height="27.44" fill="#3d7fd6"/><rect x="724.24" y="52.88" width="31.36" height="27.44" fill="#3d7fd6"/><rect x="834.00" y="52.88" width="35.28" height="27.44" fill="#3d7fd6"/><rect x="861.44" y="135.20" width="35.28" height="27.44" fill="#3d7fd6"/><rect x="790.88" y="190.08" width="31.36" height="27.44" fill="#3d7fd6"/><rect x="967.28" y="80.32" width="15.68" height="27.44" fill="#3d7fd6"/><rect x="932.00" y="135.20" width="15.68" height="27.44" fill="#3d7fd6"/><rect x="939.84" y="162.64" width="66.64" height="27.44" fill="#3d7fd6"/><rect x="869.28" y="162.64" width="66.64" height="27.44" fill="#3d7fd6"/><rect x="935.92" y="217.52" width="19.60" height="27.44" fill="#3d7fd6"/><rect x="896.72" y="217.52" width="35.28" height="27.44" fill="#3d7fd6"/><rect x="904.56" y="272.40" width="35.28" height="27.44" fill="#3d7fd6"/><rect x="916.32" y="327.28" width="66.64" height="27.44" fill="#3d7fd6"/><rect x="943.76" y="354.72" width="66.64" height="27.44" fill="#3d7fd6"/><rect x="982.96" y="327.28" width="31.36" height="27.44" fill="#3d7fd6"/><rect x="963.36" y="272.40" width="31.36" height="27.44" fill="#3d7fd6"/><rect x="998.64" y="272.40" width="11.76" height="27.44" fill="#3d7fd6"/><rect x="982.96" y="244.96" width="15.68" height="27.44" fill="#3d7fd6"/><rect x="916.32" y="244.96" width="23.52" height="27.44" fill="#3d7fd6"/><rect x="845.76" y="80.32" width="31.36" height="27.44" fill="#3d7fd6"/><rect x="888.88" y="190.08" width="31.36" height="27.44" fill="#3d7fd6"/><rect x="939.84" y="52.88" width="31.36" height="27.44" fill="#3d7fd6"/><rect x="1030.00" y="107.76" width="15.68" height="27.44" fill="#3d7fd6"/><rect x="1065.28" y="80.32" width="15.68" height="27.44" fill="#3d7fd6"/><rect x="1041.76" y="52.88" width="66.64" height="27.44" fill="#3d7fd6"/><rect x="959.44" y="135.20" width="31.36" height="27.44" fill="#3d7fd6"/><rect x="1006.48" y="52.88" width="35.28" height="27.44" fill="#3d7fd6"/><rect x="971.20" y="52.88" width="35.28" height="27.44" fill="#3d7fd6"/><rect x="1010.40" y="162.64" width="15.68" height="27.44" fill="#3d7fd6"/><rect x="1061.36" y="162.64" width="19.60" height="27.44" fill="#3d7fd6"/><rect x="1077.04" y="135.20" width="11.76" height="27.44" fill="#3d7fd6"/><rect x="1033.92" y="135.20" width="23.52" height="27.44" fill="#3d7fd6"/><rect x="1037.84" y="162.64" width="15.68" height="27.44" fill="#3d7fd6"/><rect x="1041.76" y="190.08" width="15.68" height="27.44" fill="#3d7fd6"/><rect x="994.72" y="190.08" width="35.28" height="27.44" fill="#3d7fd6"/><rect x="928.08" y="190.08" width="66.64" height="27.44" fill="#3d7fd6"/><rect x="998.64" y="217.52" width="66.64" height="27.44" fill="#3d7fd6"/><rect x="1010.40" y="354.72" width="66.64" height="27.44" fill="#3d7fd6"/><rect x="1018.24" y="327.28" width="31.36" height="27.44" fill="#3d7fd6"/><rect x="1014.32" y="272.40" width="31.36" height="27.44" fill="#3d7fd6"/><rect x="1026.08" y="299.84" width="15.68" height="27.44" fill="#3d7fd6"/><rect x="1053.52" y="327.28" width="11.76" height="27.44" fill="#3d7fd6"/><rect x="959.44" y="217.52" width="31.36" height="27.44" fill="#3d7fd6"/><rect x="990.80" y="80.32" width="31.36" height="27.44" fill="#3d7fd6"/><rect x="1088.80" y="80.32" width="31.36" height="27.44" fill="#3d7fd6"/><rect x="1116.24" y="52.88" width="15.68" height="27.44" fill="#3d7fd6"/><rect x="1131.92" y="80.32" width="15.68" height="27.44" fill="#3d7fd6"/><rect x="1163.28" y="80.32" width="31.36" height="27.44" fill="#3d7fd6"/><rect x="1178.96" y="52.88" width="19.60" height="27.44" fill="#3d7fd6"/><rect x="1135.84" y="52.88" width="35.28" height="27.44" fill="#3d7fd6"/><rect x="1092.72" y="135.20" width="35.28" height="27.44" fill="#3d7fd6"/><rect x="1084.88" y="162.64" width="35.28" height="27.44" fill="#3d7fd6"/><rect x="1104.48" y="190.08" width="19.60" height="27.44" fill="#3d7fd6"/><rect x="1061.36" y="190.08" width="35.28" height="27.44" fill="#3d7fd6"/><rect x="1057.44" y="244.96" width="66.64" height="27.44" fill="#3d7fd6"/><rect x="1045.68" y="299.84" width="66.64" height="27.44" fill="#3d7fd6"/><rect x="1077.04" y="354.72" width="66.64" height="27.44" fill="#3d7fd6"/><rect x="1108.40" y="327.28" width="31.36" height="27.44" fill="#3d7fd6"/><rect x="1069.20" y="327.28" width="31.36" height="27.44" fill="#3d7fd6"/><rect x="1120.16" y="272.40" width="15.68" height="27.44" fill="#3d7fd6"/><rect x="1077.04" y="217.52" width="31.36" height="27.44" fill="#3d7fd6"/><rect x="1120.16" y="162.64" width="31.36" height="27.44" fill="#3d7fd6"/><rect x="1218.16" y="52.88" width="23.52" height="27.44" fill="#3d7fd6"/><rect x="1202.48" y="80.32" width="15.68" height="27.44" fill="#3d7fd6"/><rect x="1233.84" y="80.32" width="15.68" height="27.44" fill="#3d7fd6"/><rect x="1253.44" y="52.88" width="66.64" height="27.44" fill="#3d7fd6"/><rect x="1229.92" y="190.08" width="15.68" height="27.44" fill="#3d7fd6"/><rect x="1206.40" y="162.64" width="35.28" height="27.44" fill="#3d7fd6"/><rect x="1190.72" y="162.64" width="11.76" height="27.44" fill="#3d7fd6"/><rect x="1124.08" y="190.08" width="66.64" height="27.44" fill="#3d7fd6"/><rect x="1116.24" y="217.52" width="15.68" height="27.44" fill="#3d7fd6"/><rect x="1147.60" y="217.52" width="19.60" height="27.44" fill="#3d7fd6"/><rect x="1143.68" y="244.96" width="15.68" height="27.44" fill="#3d7fd6"/><rect x="1139.76" y="327.28" width="35.28" height="27.44" fill="#3d7fd6"/><rect x="1143.68" y="354.72" width="66.64" height="27.44" fill="#3d7fd6"/><rect x="1175.04" y="327.28" width="31.36" height="27.44" fill="#3d7fd6"/><rect x="1147.60" y="299.84" width="23.52" height="27.44" fill="#3d7fd6"/><rect x="1175.04" y="244.96" width="15.68" height="27.44" fill="#3d7fd6"/><rect x="1155.44" y="162.64" width="31.36" height="27.44" fill="#3d7fd6"/><rect x="1218.16" y="217.52" width="11.76" height="27.44" fill="#3d7fd6"/><rect x="1257.36" y="80.32" width="31.36" height="27.44" fill="#3d7fd6"/><rect x="1186.80" y="135.20" width="15.68" height="27.44" fill="#3d7fd6"/><rect x="1139.76" y="135.20" width="31.36" height="27.44" fill="#3d7fd6"/><rect x="1218.16" y="135.20" width="19.60" height="27.44" fill="#3d7fd6"/><rect x="1253.44" y="107.76" width="19.60" height="27.44" fill="#3d7fd6"/><rect x="1241.68" y="162.64" width="35.28" height="27.44" fill="#3d7fd6"/><rect x="1261.28" y="190.08" width="19.60" height="27.44" fill="#3d7fd6"/><rect x="1237.76" y="217.52" width="35.28" height="27.44" fill="#3d7fd6"/><rect x="1178.96" y="272.40" width="66.64" height="27.44" fill="#3d7fd6"/><rect x="1218.16" y="299.84" width="15.68" height="27.44" fill="#3d7fd6"/><rect x="1214.24" y="327.28" width="15.68" height="27.44" fill="#3d7fd6"/><rect x="1210.32" y="354.72" width="66.64" height="27.44" fill="#3d7fd6"/><rect x="1245.60" y="327.28" width="19.60" height="27.44" fill="#3d7fd6"/><rect x="1206.40" y="244.96" width="31.36" height="27.44" fill="#3d7fd6"/><rect x="1194.64" y="190.08" width="15.68" height="27.44" fill="#3d7fd6"/><rect x="1304.40" y="80.32" width="19.60" height="27.44" fill="#3d7fd6"/><rect x="1316.16" y="107.76" width="35.28" height="27.44" fill="#3d7fd6"/><rect x="1280.88" y="135.20" width="66.64" height="27.44" fill="#3d7fd6"/><rect x="1249.52" y="244.96" width="15.68" height="27.44" fill="#3d7fd6"/><rect x="1245.60" y="299.84" width="35.28" height="27.44" fill="#3d7fd6"/><rect x="1276.96" y="354.72" width="35.28" height="27.44" fill="#3d7fd6"/><rect x="1280.88" y="299.84" width="19.60" height="27.44" fill="#3d7fd6"/><rect x="1288.72" y="190.08" width="31.36" height="27.44" fill="#3d7fd6"/><rect x="1186.80" y="217.52" width="15.68" height="27.44" fill="#3d7fd6"/><rect x="1288.72" y="107.76" width="19.60" height="27.44" fill="#3d7fd6"/><rect x="1276.96" y="244.96" width="19.60" height="27.44" fill="#3d7fd6"/><rect x="1273.04" y="217.52" width="35.28" height="27.44" fill="#3d7fd6"/><rect x="1327.92" y="190.08" width="19.60" height="27.44" fill="#3d7fd6"/><rect x="1324.00" y="217.52" width="19.60" height="27.44" fill="#3d7fd6"/><rect x="1284.80" y="272.40" width="66.64" height="27.44" fill="#3d7fd6"/><rect x="1316.16" y="244.96" width="27.44" height="27.44" fill="#3d7fd6"/><rect x="1284.80" y="574.24" width="66.64" height="27.44" fill="#3d7fd6"/><rect x="1120.16" y="409.60" width="23.52" height="27.44" fill="#3d7fd6"/><rect x="1241.68" y="437.04" width="15.68" height="27.44" fill="#3d7fd6"/><rect x="1273.04" y="382.16" width="35.28" height="27.44" fill="#3d7fd6"/><rect x="1269.12" y="409.60" width="35.28" height="27.44" fill="#3d7fd6"/><text x="606.6" y="822" fill="#e6e6e6" font-size="15" font-weight="600">mult_cd  (multiplier)</text><text x="606.6" y="836" fill="#9a9a9a" font-size="12">113×110 µm</text></svg>