<svg xmlns="http://www.w3.org/2000/svg" width="900" height="923" font-family="system-ui,sans-serif"><rect width="900" height="923" fill="#0d0d10"/><rect x="43.4" y="42.5" width="813.3" height="797.1" fill="none" stroke="#e8c15a" stroke-width="1.5"/><rect x="617.92" y="455.25" width="16.18" height="28.32" fill="#3d7fd6" stroke="#0d0d10" stroke-width="0.25"/><rect x="565.32" y="426.93" width="20.23" height="28.32" fill="#3d7fd6" stroke="#0d0d10" stroke-width="0.25"/><rect x="601.73" y="426.93" width="24.28" height="28.32" fill="#3d7fd6" stroke="#0d0d10" stroke-width="0.25"/><rect x="545.09" y="483.58" width="16.18" height="28.32" fill="#3d7fd6" stroke="#0d0d10" stroke-width="0.25"/><rect x="589.60" y="568.55" width="16.18" height="28.32" fill="#3d7fd6" stroke="#0d0d10" stroke-width="0.25"/><rect x="581.50" y="511.90" width="16.18" height="28.32" fill="#3d7fd6" stroke="#0d0d10" stroke-width="0.25"/><rect x="630.06" y="426.93" width="68.79" height="28.32" fill="#3d7fd6" stroke="#0d0d10" stroke-width="0.25"/><rect x="706.94" y="426.93" width="16.18" height="28.32" fill="#3d7fd6" stroke="#0d0d10" stroke-width="0.25"/><rect x="650.29" y="455.25" width="32.37" height="28.32" fill="#3d7fd6" stroke="#0d0d10" stroke-width="0.25"/><rect x="557.23" y="568.55" width="16.18" height="28.32" fill="#3d7fd6" stroke="#0d0d10" stroke-width="0.25"/><rect x="565.32" y="681.84" width="16.18" height="28.32" fill="#3d7fd6" stroke="#0d0d10" stroke-width="0.25"/><rect x="549.13" y="540.23" width="16.18" height="28.32" fill="#3d7fd6" stroke="#0d0d10" stroke-width="0.25"/><rect x="581.50" y="540.23" width="68.79" height="28.32" fill="#3d7fd6" stroke="#0d0d10" stroke-width="0.25"/><rect x="609.83" y="511.90" width="20.23" height="28.32" fill="#3d7fd6" stroke="#0d0d10" stroke-width="0.25"/><rect x="638.15" y="511.90" width="68.79" height="28.32" fill="#3d7fd6" stroke="#0d0d10" stroke-width="0.25"/><rect x="710.98" y="511.90" width="16.18" height="28.32" fill="#3d7fd6" stroke="#0d0d10" stroke-width="0.25"/><rect x="654.34" y="540.23" width="32.37" height="28.32" fill="#3d7fd6" stroke="#0d0d10" stroke-width="0.25"/><rect x="520.81" y="625.20" width="16.18" height="28.32" fill="#3d7fd6" stroke="#0d0d10" stroke-width="0.25"/><rect x="557.23" y="596.87" width="24.28" height="28.32" fill="#3d7fd6" stroke="#0d0d10" stroke-width="0.25"/><rect x="605.78" y="596.87" width="24.28" height="28.32" fill="#3d7fd6" stroke="#0d0d10" stroke-width="0.25"/><rect x="650.29" y="596.87" width="20.23" height="28.32" fill="#3d7fd6" stroke="#0d0d10" stroke-width="0.25"/><rect x="621.97" y="568.55" width="32.37" height="28.32" fill="#3d7fd6" stroke="#0d0d10" stroke-width="0.25"/><rect x="589.60" y="625.20" width="16.18" height="28.32" fill="#3d7fd6" stroke="#0d0d10" stroke-width="0.25"/><rect x="456.07" y="710.17" width="16.18" height="28.32" fill="#3d7fd6" stroke="#0d0d10" stroke-width="0.25"/><rect x="322.54" y="710.17" width="16.18" height="28.32" fill="#3d7fd6" stroke="#0d0d10" stroke-width="0.25"/><rect x="565.32" y="653.52" width="68.79" height="28.32" fill="#3d7fd6" stroke="#0d0d10" stroke-width="0.25"/><rect x="617.92" y="625.20" width="68.79" height="28.32" fill="#3d7fd6" stroke="#0d0d10" stroke-width="0.25"/><rect x="706.94" y="568.55" width="16.18" height="28.32" fill="#3d7fd6" stroke="#0d0d10" stroke-width="0.25"/><rect x="694.80" y="540.23" width="36.42" height="28.32" fill="#3d7fd6" stroke="#0d0d10" stroke-width="0.25"/><rect x="739.31" y="568.55" width="20.23" height="28.32" fill="#3d7fd6" stroke="#0d0d10" stroke-width="0.25"/><rect x="739.31" y="540.23" width="16.18" height="28.32" fill="#3d7fd6" stroke="#0d0d10" stroke-width="0.25"/><rect x="743.35" y="483.58" width="16.18" height="28.32" fill="#3d7fd6" stroke="#0d0d10" stroke-width="0.25"/><rect x="638.15" y="653.52" width="32.37" height="28.32" fill="#3d7fd6" stroke="#0d0d10" stroke-width="0.25"/><rect x="492.49" y="653.52" width="16.18" height="28.32" fill="#3d7fd6" stroke="#0d0d10" stroke-width="0.25"/><rect x="553.18" y="625.20" width="16.18" height="28.32" fill="#3d7fd6" stroke="#0d0d10" stroke-width="0.25"/><rect x="346.82" y="625.20" width="16.18" height="28.32" fill="#3d7fd6" stroke="#0d0d10" stroke-width="0.25"/><rect x="488.44" y="710.17" width="68.79" height="28.32" fill="#3d7fd6" stroke="#0d0d10" stroke-width="0.25"/><rect x="597.69" y="710.17" width="32.37" height="28.32" fill="#3d7fd6" stroke="#0d0d10" stroke-width="0.25"/><rect x="253.76" y="710.17" width="16.18" height="28.32" fill="#3d7fd6" stroke="#0d0d10" stroke-width="0.25"/><rect x="286.13" y="710.17" width="16.18" height="28.32" fill="#3d7fd6" stroke="#0d0d10" stroke-width="0.25"/><rect x="160.69" y="681.84" width="16.18" height="28.32" fill="#3d7fd6" stroke="#0d0d10" stroke-width="0.25"/><rect x="265.90" y="738.49" width="68.79" height="28.32" fill="#3d7fd6" stroke="#0d0d10" stroke-width="0.25"/><rect x="593.64" y="738.49" width="68.79" height="28.32" fill="#3d7fd6" stroke="#0d0d10" stroke-width="0.25"/><rect x="682.66" y="681.84" width="36.42" height="28.32" fill="#3d7fd6" stroke="#0d0d10" stroke-width="0.25"/><rect x="678.61" y="653.52" width="36.42" height="28.32" fill="#3d7fd6" stroke="#0d0d10" stroke-width="0.25"/><rect x="719.08" y="653.52" width="16.18" height="28.32" fill="#3d7fd6" stroke="#0d0d10" stroke-width="0.25"/><rect x="678.61" y="596.87" width="68.79" height="28.32" fill="#3d7fd6" stroke="#0d0d10" stroke-width="0.25"/><rect x="755.49" y="596.87" width="16.18" height="28.32" fill="#3d7fd6" stroke="#0d0d10" stroke-width="0.25"/><rect x="775.72" y="568.55" width="36.42" height="28.32" fill="#3d7fd6" stroke="#0d0d10" stroke-width="0.25"/><rect x="642.20" y="710.17" width="32.37" height="28.32" fill="#3d7fd6" stroke="#0d0d10" stroke-width="0.25"/><rect x="557.23" y="738.49" width="32.37" height="28.32" fill="#3d7fd6" stroke="#0d0d10" stroke-width="0.25"/><rect x="278.03" y="766.82" width="32.37" height="28.32" fill="#3d7fd6" stroke="#0d0d10" stroke-width="0.25"/><rect x="87.86" y="738.49" width="16.18" height="28.32" fill="#3d7fd6" stroke="#0d0d10" stroke-width="0.25"/><rect x="95.95" y="681.84" width="16.18" height="28.32" fill="#3d7fd6" stroke="#0d0d10" stroke-width="0.25"/><rect x="193.06" y="710.17" width="16.18" height="28.32" fill="#3d7fd6" stroke="#0d0d10" stroke-width="0.25"/><rect x="136.42" y="766.82" width="68.79" height="28.32" fill="#3d7fd6" stroke="#0d0d10" stroke-width="0.25"/><rect x="379.19" y="625.20" width="16.18" height="28.32" fill="#3d7fd6" stroke="#0d0d10" stroke-width="0.25"/><rect x="350.87" y="653.52" width="16.18" height="28.32" fill="#3d7fd6" stroke="#0d0d10" stroke-width="0.25"/><rect x="233.53" y="625.20" width="16.18" height="28.32" fill="#3d7fd6" stroke="#0d0d10" stroke-width="0.25"/><rect x="346.82" y="710.17" width="68.79" height="28.32" fill="#3d7fd6" stroke="#0d0d10" stroke-width="0.25"/><rect x="314.45" y="766.82" width="68.79" height="28.32" fill="#3d7fd6" stroke="#0d0d10" stroke-width="0.25"/><rect x="447.98" y="511.90" width="16.18" height="28.32" fill="#3d7fd6" stroke="#0d0d10" stroke-width="0.25"/><rect x="520.81" y="653.52" width="32.37" height="28.32" fill="#3d7fd6" stroke="#0d0d10" stroke-width="0.25"/><rect x="492.49" y="738.49" width="20.23" height="28.32" fill="#3d7fd6" stroke="#0d0d10" stroke-width="0.25"/><rect x="516.76" y="738.49" width="36.42" height="28.32" fill="#3d7fd6" stroke="#0d0d10" stroke-width="0.25"/><rect x="589.60" y="766.82" width="68.79" height="28.32" fill="#3d7fd6" stroke="#0d0d10" stroke-width="0.25"/><rect x="666.47" y="738.49" width="16.18" height="28.32" fill="#3d7fd6" stroke="#0d0d10" stroke-width="0.25"/><rect x="553.18" y="766.82" width="32.37" height="28.32" fill="#3d7fd6" stroke="#0d0d10" stroke-width="0.25"/><rect x="354.91" y="483.58" width="16.18" height="28.32" fill="#3d7fd6" stroke="#0d0d10" stroke-width="0.25"/><rect x="375.14" y="540.23" width="16.18" height="28.32" fill="#3d7fd6" stroke="#0d0d10" stroke-width="0.25"/><rect x="403.47" y="540.23" width="24.28" height="28.32" fill="#3d7fd6" stroke="#0d0d10" stroke-width="0.25"/><rect x="407.51" y="625.20" width="20.23" height="28.32" fill="#3d7fd6" stroke="#0d0d10" stroke-width="0.25"/><rect x="375.14" y="653.52" width="32.37" height="28.32" fill="#3d7fd6" stroke="#0d0d10" stroke-width="0.25"/><rect x="419.65" y="710.17" width="20.23" height="28.32" fill="#3d7fd6" stroke="#0d0d10" stroke-width="0.25"/><rect x="443.93" y="653.52" width="12.14" height="28.32" fill="#3d7fd6" stroke="#0d0d10" stroke-width="0.25"/><rect x="379.19" y="738.49" width="36.42" height="28.32" fill="#3d7fd6" stroke="#0d0d10" stroke-width="0.25"/><rect x="342.77" y="738.49" width="32.37" height="28.32" fill="#3d7fd6" stroke="#0d0d10" stroke-width="0.25"/><rect x="205.20" y="625.20" width="16.18" height="28.32" fill="#3d7fd6" stroke="#0d0d10" stroke-width="0.25"/><rect x="225.43" y="681.84" width="16.18" height="28.32" fill="#3d7fd6" stroke="#0d0d10" stroke-width="0.25"/><rect x="124.28" y="568.55" width="16.18" height="28.32" fill="#3d7fd6" stroke="#0d0d10" stroke-width="0.25"/><rect x="209.25" y="653.52" width="68.79" height="28.32" fill="#3d7fd6" stroke="#0d0d10" stroke-width="0.25"/><rect x="184.97" y="738.49" width="32.37" height="28.32" fill="#3d7fd6" stroke="#0d0d10" stroke-width="0.25"/><rect x="124.28" y="681.84" width="16.18" height="28.32" fill="#3d7fd6" stroke="#0d0d10" stroke-width="0.25"/><rect x="95.95" y="710.17" width="16.18" height="28.32" fill="#3d7fd6" stroke="#0d0d10" stroke-width="0.25"/><rect x="95.95" y="568.55" width="16.18" height="28.32" fill="#3d7fd6" stroke="#0d0d10" stroke-width="0.25"/><rect x="108.09" y="738.49" width="68.79" height="28.32" fill="#3d7fd6" stroke="#0d0d10" stroke-width="0.25"/><rect x="205.20" y="766.82" width="68.79" height="28.32" fill="#3d7fd6" stroke="#0d0d10" stroke-width="0.25"/><rect x="383.24" y="766.82" width="93.06" height="28.32" fill="#3d7fd6" stroke="#0d0d10" stroke-width="0.25"/><rect x="476.30" y="766.82" width="68.79" height="28.32" fill="#3d7fd6" stroke="#0d0d10" stroke-width="0.25"/><rect x="702.89" y="766.82" width="16.18" height="28.32" fill="#3d7fd6" stroke="#0d0d10" stroke-width="0.25"/><rect x="727.17" y="766.82" width="36.42" height="28.32" fill="#3d7fd6" stroke="#0d0d10" stroke-width="0.25"/><rect x="767.63" y="766.82" width="12.14" height="28.32" fill="#3d7fd6" stroke="#0d0d10" stroke-width="0.25"/><rect x="662.43" y="766.82" width="36.42" height="28.32" fill="#3d7fd6" stroke="#0d0d10" stroke-width="0.25"/><rect x="787.86" y="766.82" width="12.14" height="28.32" fill="#3d7fd6" stroke="#0d0d10" stroke-width="0.25"/><rect x="743.35" y="653.52" width="32.37" height="28.32" fill="#3d7fd6" stroke="#0d0d10" stroke-width="0.25"/><rect x="775.72" y="710.17" width="16.18" height="28.32" fill="#3d7fd6" stroke="#0d0d10" stroke-width="0.25"/><rect x="775.72" y="653.52" width="36.42" height="28.32" fill="#3d7fd6" stroke="#0d0d10" stroke-width="0.25"/><rect x="452.02" y="738.49" width="32.37" height="28.32" fill="#3d7fd6" stroke="#0d0d10" stroke-width="0.25"/><rect x="415.61" y="738.49" width="32.37" height="28.32" fill="#3d7fd6" stroke="#0d0d10" stroke-width="0.25"/><rect x="282.08" y="426.93" width="16.18" height="28.32" fill="#3d7fd6" stroke="#0d0d10" stroke-width="0.25"/><rect x="330.64" y="455.25" width="16.18" height="28.32" fill="#3d7fd6" stroke="#0d0d10" stroke-width="0.25"/><rect x="217.34" y="483.58" width="16.18" height="28.32" fill="#3d7fd6" stroke="#0d0d10" stroke-width="0.25"/><rect x="298.27" y="540.23" width="68.79" height="28.32" fill="#3d7fd6" stroke="#0d0d10" stroke-width="0.25"/><rect x="257.80" y="625.20" width="32.37" height="28.32" fill="#3d7fd6" stroke="#0d0d10" stroke-width="0.25"/><rect x="273.99" y="596.87" width="68.79" height="28.32" fill="#3d7fd6" stroke="#0d0d10" stroke-width="0.25"/><rect x="229.48" y="738.49" width="32.37" height="28.32" fill="#3d7fd6" stroke="#0d0d10" stroke-width="0.25"/><rect x="95.95" y="596.87" width="16.18" height="28.32" fill="#3d7fd6" stroke="#0d0d10" stroke-width="0.25"/><rect x="160.69" y="596.87" width="16.18" height="28.32" fill="#3d7fd6" stroke="#0d0d10" stroke-width="0.25"/><rect x="100.00" y="370.28" width="16.18" height="28.32" fill="#3d7fd6" stroke="#0d0d10" stroke-width="0.25"/><rect x="87.86" y="625.20" width="68.79" height="28.32" fill="#3d7fd6" stroke="#0d0d10" stroke-width="0.25"/><rect x="120.23" y="710.17" width="32.37" height="28.32" fill="#3d7fd6" stroke="#0d0d10" stroke-width="0.25"/><rect x="100.00" y="483.58" width="16.18" height="28.32" fill="#3d7fd6" stroke="#0d0d10" stroke-width="0.25"/><rect x="100.00" y="455.25" width="16.18" height="28.32" fill="#3d7fd6" stroke="#0d0d10" stroke-width="0.25"/><rect x="172.83" y="285.31" width="20.23" height="28.32" fill="#3d7fd6" stroke="#0d0d10" stroke-width="0.25"/><rect x="100.00" y="256.99" width="16.18" height="28.32" fill="#3d7fd6" stroke="#0d0d10" stroke-width="0.25"/><rect x="95.95" y="540.23" width="68.79" height="28.32" fill="#3d7fd6" stroke="#0d0d10" stroke-width="0.25"/><rect x="140.46" y="653.52" width="68.79" height="28.32" fill="#3d7fd6" stroke="#0d0d10" stroke-width="0.25"/><rect x="278.03" y="653.52" width="68.79" height="28.32" fill="#3d7fd6" stroke="#0d0d10" stroke-width="0.25"/><rect x="415.61" y="653.52" width="12.14" height="28.32" fill="#3d7fd6" stroke="#0d0d10" stroke-width="0.25"/><rect x="435.84" y="625.20" width="68.79" height="28.32" fill="#3d7fd6" stroke="#0d0d10" stroke-width="0.25"/><rect x="468.21" y="596.87" width="16.18" height="28.32" fill="#3d7fd6" stroke="#0d0d10" stroke-width="0.25"/><rect x="423.70" y="681.84" width="93.06" height="28.32" fill="#3d7fd6" stroke="#0d0d10" stroke-width="0.25"/><rect x="694.80" y="738.49" width="20.23" height="28.32" fill="#3d7fd6" stroke="#0d0d10" stroke-width="0.25"/><rect x="723.12" y="738.49" width="20.23" height="28.32" fill="#3d7fd6" stroke="#0d0d10" stroke-width="0.25"/><rect x="743.35" y="738.49" width="68.79" height="28.32" fill="#3d7fd6" stroke="#0d0d10" stroke-width="0.25"/><rect x="731.21" y="681.84" width="24.28" height="28.32" fill="#3d7fd6" stroke="#0d0d10" stroke-width="0.25"/><rect x="456.07" y="483.58" width="16.18" height="28.32" fill="#3d7fd6" stroke="#0d0d10" stroke-width="0.25"/><rect x="419.65" y="596.87" width="32.37" height="28.32" fill="#3d7fd6" stroke="#0d0d10" stroke-width="0.25"/><rect x="326.59" y="568.55" width="32.37" height="28.32" fill="#3d7fd6" stroke="#0d0d10" stroke-width="0.25"/><rect x="367.05" y="568.55" width="12.14" height="28.32" fill="#3d7fd6" stroke="#0d0d10" stroke-width="0.25"/><rect x="302.31" y="625.20" width="32.37" height="28.32" fill="#3d7fd6" stroke="#0d0d10" stroke-width="0.25"/><rect x="310.40" y="511.90" width="32.37" height="28.32" fill="#3d7fd6" stroke="#0d0d10" stroke-width="0.25"/><rect x="180.92" y="483.58" width="16.18" height="28.32" fill="#3d7fd6" stroke="#0d0d10" stroke-width="0.25"/><rect x="245.66" y="426.93" width="16.18" height="28.32" fill="#3d7fd6" stroke="#0d0d10" stroke-width="0.25"/><rect x="245.66" y="285.31" width="16.18" height="28.32" fill="#3d7fd6" stroke="#0d0d10" stroke-width="0.25"/><rect x="176.88" y="511.90" width="68.79" height="28.32" fill="#3d7fd6" stroke="#0d0d10" stroke-width="0.25"/><rect x="120.23" y="596.87" width="32.37" height="28.32" fill="#3d7fd6" stroke="#0d0d10" stroke-width="0.25"/><rect x="253.76" y="568.55" width="36.42" height="28.32" fill="#3d7fd6" stroke="#0d0d10" stroke-width="0.25"/><rect x="290.17" y="568.55" width="36.42" height="28.32" fill="#3d7fd6" stroke="#0d0d10" stroke-width="0.25"/><rect x="164.74" y="625.20" width="32.37" height="28.32" fill="#3d7fd6" stroke="#0d0d10" stroke-width="0.25"/><rect x="95.95" y="285.31" width="16.18" height="28.32" fill="#3d7fd6" stroke="#0d0d10" stroke-width="0.25"/><rect x="144.51" y="256.99" width="16.18" height="28.32" fill="#3d7fd6" stroke="#0d0d10" stroke-width="0.25"/><rect x="100.00" y="87.05" width="16.18" height="28.32" fill="#3d7fd6" stroke="#0d0d10" stroke-width="0.25"/><rect x="91.91" y="341.96" width="68.79" height="28.32" fill="#3d7fd6" stroke="#0d0d10" stroke-width="0.25"/><rect x="132.37" y="483.58" width="32.37" height="28.32" fill="#3d7fd6" stroke="#0d0d10" stroke-width="0.25"/><rect x="95.95" y="172.02" width="16.18" height="28.32" fill="#3d7fd6" stroke="#0d0d10" stroke-width="0.25"/><rect x="100.00" y="398.61" width="16.18" height="28.32" fill="#3d7fd6" stroke="#0d0d10" stroke-width="0.25"/><rect x="87.86" y="228.66" width="68.79" height="28.32" fill="#3d7fd6" stroke="#0d0d10" stroke-width="0.25"/><rect x="120.23" y="426.93" width="68.79" height="28.32" fill="#3d7fd6" stroke="#0d0d10" stroke-width="0.25"/><rect x="189.02" y="568.55" width="16.18" height="28.32" fill="#3d7fd6" stroke="#0d0d10" stroke-width="0.25"/><rect x="156.65" y="568.55" width="16.18" height="28.32" fill="#3d7fd6" stroke="#0d0d10" stroke-width="0.25"/><rect x="189.02" y="596.87" width="68.79" height="28.32" fill="#3d7fd6" stroke="#0d0d10" stroke-width="0.25"/><rect x="342.77" y="596.87" width="68.79" height="28.32" fill="#3d7fd6" stroke="#0d0d10" stroke-width="0.25"/><rect x="427.75" y="540.23" width="68.79" height="28.32" fill="#3d7fd6" stroke="#0d0d10" stroke-width="0.25"/><rect x="508.67" y="540.23" width="36.42" height="28.32" fill="#3d7fd6" stroke="#0d0d10" stroke-width="0.25"/><rect x="662.43" y="568.55" width="36.42" height="28.32" fill="#3d7fd6" stroke="#0d0d10" stroke-width="0.25"/><rect x="504.62" y="568.55" width="32.37" height="28.32" fill="#3d7fd6" stroke="#0d0d10" stroke-width="0.25"/><rect x="472.25" y="511.90" width="32.37" height="28.32" fill="#3d7fd6" stroke="#0d0d10" stroke-width="0.25"/><rect x="387.28" y="455.25" width="16.18" height="28.32" fill="#3d7fd6" stroke="#0d0d10" stroke-width="0.25"/><rect x="387.28" y="568.55" width="32.37" height="28.32" fill="#3d7fd6" stroke="#0d0d10" stroke-width="0.25"/><rect x="261.85" y="511.90" width="32.37" height="28.32" fill="#3d7fd6" stroke="#0d0d10" stroke-width="0.25"/><rect x="225.43" y="568.55" width="20.23" height="28.32" fill="#3d7fd6" stroke="#0d0d10" stroke-width="0.25"/><rect x="201.16" y="455.25" width="32.37" height="28.32" fill="#3d7fd6" stroke="#0d0d10" stroke-width="0.25"/><rect x="269.94" y="398.61" width="16.18" height="28.32" fill="#3d7fd6" stroke="#0d0d10" stroke-width="0.25"/><rect x="310.40" y="285.31" width="16.18" height="28.32" fill="#3d7fd6" stroke="#0d0d10" stroke-width="0.25"/><rect x="213.29" y="143.69" width="16.18" height="28.32" fill="#3d7fd6" stroke="#0d0d10" stroke-width="0.25"/><rect x="245.66" y="313.64" width="68.79" height="28.32" fill="#3d7fd6" stroke="#0d0d10" stroke-width="0.25"/><rect x="124.28" y="285.31" width="32.37" height="28.32" fill="#3d7fd6" stroke="#0d0d10" stroke-width="0.25"/><rect x="205.20" y="313.64" width="36.42" height="28.32" fill="#3d7fd6" stroke="#0d0d10" stroke-width="0.25"/><rect x="168.79" y="313.64" width="36.42" height="28.32" fill="#3d7fd6" stroke="#0d0d10" stroke-width="0.25"/><rect x="128.32" y="398.61" width="32.37" height="28.32" fill="#3d7fd6" stroke="#0d0d10" stroke-width="0.25"/><rect x="168.79" y="370.28" width="12.14" height="28.32" fill="#3d7fd6" stroke="#0d0d10" stroke-width="0.25"/><rect x="95.95" y="115.37" width="16.18" height="28.32" fill="#3d7fd6" stroke="#0d0d10" stroke-width="0.25"/><rect x="144.51" y="172.02" width="16.18" height="28.32" fill="#3d7fd6" stroke="#0d0d10" stroke-width="0.25"/><rect x="180.92" y="143.69" width="16.18" height="28.32" fill="#3d7fd6" stroke="#0d0d10" stroke-width="0.25"/><rect x="104.05" y="143.69" width="68.79" height="28.32" fill="#3d7fd6" stroke="#0d0d10" stroke-width="0.25"/><rect x="91.91" y="200.34" width="32.37" height="28.32" fill="#3d7fd6" stroke="#0d0d10" stroke-width="0.25"/><rect x="209.25" y="285.31" width="24.28" height="28.32" fill="#3d7fd6" stroke="#0d0d10" stroke-width="0.25"/><rect x="184.97" y="256.99" width="24.28" height="28.32" fill="#3d7fd6" stroke="#0d0d10" stroke-width="0.25"/><rect x="156.65" y="228.66" width="68.79" height="28.32" fill="#3d7fd6" stroke="#0d0d10" stroke-width="0.25"/><rect x="180.92" y="398.61" width="68.79" height="28.32" fill="#3d7fd6" stroke="#0d0d10" stroke-width="0.25"/><rect x="314.45" y="426.93" width="12.14" height="28.32" fill="#3d7fd6" stroke="#0d0d10" stroke-width="0.25"/><rect x="249.71" y="483.58" width="68.79" height="28.32" fill="#3d7fd6" stroke="#0d0d10" stroke-width="0.25"/><rect x="375.14" y="483.58" width="68.79" height="28.32" fill="#3d7fd6" stroke="#0d0d10" stroke-width="0.25"/><rect x="484.39" y="483.58" width="12.14" height="28.32" fill="#3d7fd6" stroke="#0d0d10" stroke-width="0.25"/><rect x="488.44" y="455.25" width="68.79" height="28.32" fill="#3d7fd6" stroke="#0d0d10" stroke-width="0.25"/><rect x="504.62" y="511.90" width="32.37" height="28.32" fill="#3d7fd6" stroke="#0d0d10" stroke-width="0.25"/><rect x="415.61" y="455.25" width="32.37" height="28.32" fill="#3d7fd6" stroke="#0d0d10" stroke-width="0.25"/><rect x="363.01" y="455.25" width="16.18" height="28.32" fill="#3d7fd6" stroke="#0d0d10" stroke-width="0.25"/><rect x="306.36" y="398.61" width="32.37" height="28.32" fill="#3d7fd6" stroke="#0d0d10" stroke-width="0.25"/><rect x="342.77" y="398.61" width="12.14" height="28.32" fill="#3d7fd6" stroke="#0d0d10" stroke-width="0.25"/><rect x="233.53" y="370.28" width="32.37" height="28.32" fill="#3d7fd6" stroke="#0d0d10" stroke-width="0.25"/><rect x="193.06" y="370.28" width="32.37" height="28.32" fill="#3d7fd6" stroke="#0d0d10" stroke-width="0.25"/><rect x="269.94" y="285.31" width="32.37" height="28.32" fill="#3d7fd6" stroke="#0d0d10" stroke-width="0.25"/><rect x="245.66" y="256.99" width="16.18" height="28.32" fill="#3d7fd6" stroke="#0d0d10" stroke-width="0.25"/><rect x="326.59" y="115.37" width="16.18" height="28.32" fill="#3d7fd6" stroke="#0d0d10" stroke-width="0.25"/><rect x="350.87" y="115.37" width="16.18" height="28.32" fill="#3d7fd6" stroke="#0d0d10" stroke-width="0.25"/><rect x="205.20" y="87.05" width="68.79" height="28.32" fill="#3d7fd6" stroke="#0d0d10" stroke-width="0.25"/><rect x="124.28" y="115.37" width="32.37" height="28.32" fill="#3d7fd6" stroke="#0d0d10" stroke-width="0.25"/><rect x="261.85" y="172.02" width="36.42" height="28.32" fill="#3d7fd6" stroke="#0d0d10" stroke-width="0.25"/><rect x="241.62" y="200.34" width="36.42" height="28.32" fill="#3d7fd6" stroke="#0d0d10" stroke-width="0.25"/><rect x="168.79" y="200.34" width="32.37" height="28.32" fill="#3d7fd6" stroke="#0d0d10" stroke-width="0.25"/><rect x="278.03" y="228.66" width="12.14" height="28.32" fill="#3d7fd6" stroke="#0d0d10" stroke-width="0.25"/><rect x="140.46" y="87.05" width="16.18" height="28.32" fill="#3d7fd6" stroke="#0d0d10" stroke-width="0.25"/><rect x="237.57" y="172.02" width="16.18" height="28.32" fill="#3d7fd6" stroke="#0d0d10" stroke-width="0.25"/><rect x="447.98" y="172.02" width="16.18" height="28.32" fill="#3d7fd6" stroke="#0d0d10" stroke-width="0.25"/><rect x="168.79" y="115.37" width="68.79" height="28.32" fill="#3d7fd6" stroke="#0d0d10" stroke-width="0.25"/><rect x="132.37" y="200.34" width="20.23" height="28.32" fill="#3d7fd6" stroke="#0d0d10" stroke-width="0.25"/><rect x="201.16" y="200.34" width="36.42" height="28.32" fill="#3d7fd6" stroke="#0d0d10" stroke-width="0.25"/><rect x="269.94" y="256.99" width="68.79" height="28.32" fill="#3d7fd6" stroke="#0d0d10" stroke-width="0.25"/><rect x="338.73" y="285.31" width="12.14" height="28.32" fill="#3d7fd6" stroke="#0d0d10" stroke-width="0.25"/><rect x="294.22" y="370.28" width="68.79" height="28.32" fill="#3d7fd6" stroke="#0d0d10" stroke-width="0.25"/><rect x="330.64" y="426.93" width="68.79" height="28.32" fill="#3d7fd6" stroke="#0d0d10" stroke-width="0.25"/><rect x="468.21" y="455.25" width="16.18" height="28.32" fill="#3d7fd6" stroke="#0d0d10" stroke-width="0.25"/><rect x="407.51" y="426.93" width="16.18" height="28.32" fill="#3d7fd6" stroke="#0d0d10" stroke-width="0.25"/><rect x="488.44" y="426.93" width="68.79" height="28.32" fill="#3d7fd6" stroke="#0d0d10" stroke-width="0.25"/><rect x="435.84" y="426.93" width="20.23" height="28.32" fill="#3d7fd6" stroke="#0d0d10" stroke-width="0.25"/><rect x="358.96" y="398.61" width="32.37" height="28.32" fill="#3d7fd6" stroke="#0d0d10" stroke-width="0.25"/><rect x="399.42" y="285.31" width="16.18" height="28.32" fill="#3d7fd6" stroke="#0d0d10" stroke-width="0.25"/><rect x="318.50" y="341.96" width="32.37" height="28.32" fill="#3d7fd6" stroke="#0d0d10" stroke-width="0.25"/><rect x="391.33" y="313.64" width="12.14" height="28.32" fill="#3d7fd6" stroke="#0d0d10" stroke-width="0.25"/><rect x="278.03" y="200.34" width="32.37" height="28.32" fill="#3d7fd6" stroke="#0d0d10" stroke-width="0.25"/><rect x="298.27" y="228.66" width="32.37" height="28.32" fill="#3d7fd6" stroke="#0d0d10" stroke-width="0.25"/><rect x="245.66" y="115.37" width="32.37" height="28.32" fill="#3d7fd6" stroke="#0d0d10" stroke-width="0.25"/><rect x="346.82" y="143.69" width="16.18" height="28.32" fill="#3d7fd6" stroke="#0d0d10" stroke-width="0.25"/><rect x="383.24" y="115.37" width="16.18" height="28.32" fill="#3d7fd6" stroke="#0d0d10" stroke-width="0.25"/><rect x="492.49" y="115.37" width="16.18" height="28.32" fill="#3d7fd6" stroke="#0d0d10" stroke-width="0.25"/><rect x="314.45" y="87.05" width="68.79" height="28.32" fill="#3d7fd6" stroke="#0d0d10" stroke-width="0.25"/><rect x="164.74" y="87.05" width="32.37" height="28.32" fill="#3d7fd6" stroke="#0d0d10" stroke-width="0.25"/><rect x="278.03" y="87.05" width="36.42" height="28.32" fill="#3d7fd6" stroke="#0d0d10" stroke-width="0.25"/><rect x="306.36" y="172.02" width="36.42" height="28.32" fill="#3d7fd6" stroke="#0d0d10" stroke-width="0.25"/><rect x="233.53" y="228.66" width="32.37" height="28.32" fill="#3d7fd6" stroke="#0d0d10" stroke-width="0.25"/><rect x="415.61" y="115.37" width="16.18" height="28.32" fill="#3d7fd6" stroke="#0d0d10" stroke-width="0.25"/><rect x="379.19" y="172.02" width="16.18" height="28.32" fill="#3d7fd6" stroke="#0d0d10" stroke-width="0.25"/><rect x="387.28" y="200.34" width="68.79" height="28.32" fill="#3d7fd6" stroke="#0d0d10" stroke-width="0.25"/><rect x="314.45" y="200.34" width="68.79" height="28.32" fill="#3d7fd6" stroke="#0d0d10" stroke-width="0.25"/><rect x="383.24" y="256.99" width="20.23" height="28.32" fill="#3d7fd6" stroke="#0d0d10" stroke-width="0.25"/><rect x="342.77" y="256.99" width="36.42" height="28.32" fill="#3d7fd6" stroke="#0d0d10" stroke-width="0.25"/><rect x="350.87" y="313.64" width="36.42" height="28.32" fill="#3d7fd6" stroke="#0d0d10" stroke-width="0.25"/><rect x="363.01" y="370.28" width="68.79" height="28.32" fill="#3d7fd6" stroke="#0d0d10" stroke-width="0.25"/><rect x="391.33" y="398.61" width="68.79" height="28.32" fill="#3d7fd6" stroke="#0d0d10" stroke-width="0.25"/><rect x="431.79" y="370.28" width="32.37" height="28.32" fill="#3d7fd6" stroke="#0d0d10" stroke-width="0.25"/><rect x="411.56" y="313.64" width="32.37" height="28.32" fill="#3d7fd6" stroke="#0d0d10" stroke-width="0.25"/><rect x="447.98" y="313.64" width="12.14" height="28.32" fill="#3d7fd6" stroke="#0d0d10" stroke-width="0.25"/><rect x="431.79" y="285.31" width="16.18" height="28.32" fill="#3d7fd6" stroke="#0d0d10" stroke-width="0.25"/><rect x="363.01" y="285.31" width="24.28" height="28.32" fill="#3d7fd6" stroke="#0d0d10" stroke-width="0.25"/><rect x="290.17" y="115.37" width="32.37" height="28.32" fill="#3d7fd6" stroke="#0d0d10" stroke-width="0.25"/><rect x="334.68" y="228.66" width="32.37" height="28.32" fill="#3d7fd6" stroke="#0d0d10" stroke-width="0.25"/><rect x="387.28" y="87.05" width="32.37" height="28.32" fill="#3d7fd6" stroke="#0d0d10" stroke-width="0.25"/><rect x="480.35" y="143.69" width="16.18" height="28.32" fill="#3d7fd6" stroke="#0d0d10" stroke-width="0.25"/><rect x="516.76" y="115.37" width="16.18" height="28.32" fill="#3d7fd6" stroke="#0d0d10" stroke-width="0.25"/><rect x="492.49" y="87.05" width="68.79" height="28.32" fill="#3d7fd6" stroke="#0d0d10" stroke-width="0.25"/><rect x="407.51" y="172.02" width="32.37" height="28.32" fill="#3d7fd6" stroke="#0d0d10" stroke-width="0.25"/><rect x="456.07" y="87.05" width="36.42" height="28.32" fill="#3d7fd6" stroke="#0d0d10" stroke-width="0.25"/><rect x="419.65" y="87.05" width="36.42" height="28.32" fill="#3d7fd6" stroke="#0d0d10" stroke-width="0.25"/><rect x="460.12" y="200.34" width="16.18" height="28.32" fill="#3d7fd6" stroke="#0d0d10" stroke-width="0.25"/><rect x="512.72" y="200.34" width="20.23" height="28.32" fill="#3d7fd6" stroke="#0d0d10" stroke-width="0.25"/><rect x="528.90" y="172.02" width="12.14" height="28.32" fill="#3d7fd6" stroke="#0d0d10" stroke-width="0.25"/><rect x="484.39" y="172.02" width="24.28" height="28.32" fill="#3d7fd6" stroke="#0d0d10" stroke-width="0.25"/><rect x="488.44" y="200.34" width="16.18" height="28.32" fill="#3d7fd6" stroke="#0d0d10" stroke-width="0.25"/><rect x="492.49" y="228.66" width="16.18" height="28.32" fill="#3d7fd6" stroke="#0d0d10" stroke-width="0.25"/><rect x="443.93" y="228.66" width="36.42" height="28.32" fill="#3d7fd6" stroke="#0d0d10" stroke-width="0.25"/><rect x="375.14" y="228.66" width="68.79" height="28.32" fill="#3d7fd6" stroke="#0d0d10" stroke-width="0.25"/><rect x="447.98" y="256.99" width="68.79" height="28.32" fill="#3d7fd6" stroke="#0d0d10" stroke-width="0.25"/><rect x="460.12" y="398.61" width="68.79" height="28.32" fill="#3d7fd6" stroke="#0d0d10" stroke-width="0.25"/><rect x="468.21" y="370.28" width="32.37" height="28.32" fill="#3d7fd6" stroke="#0d0d10" stroke-width="0.25"/><rect x="464.16" y="313.64" width="32.37" height="28.32" fill="#3d7fd6" stroke="#0d0d10" stroke-width="0.25"/><rect x="476.30" y="341.96" width="16.18" height="28.32" fill="#3d7fd6" stroke="#0d0d10" stroke-width="0.25"/><rect x="504.62" y="370.28" width="12.14" height="28.32" fill="#3d7fd6" stroke="#0d0d10" stroke-width="0.25"/><rect x="407.51" y="256.99" width="32.37" height="28.32" fill="#3d7fd6" stroke="#0d0d10" stroke-width="0.25"/><rect x="439.88" y="115.37" width="32.37" height="28.32" fill="#3d7fd6" stroke="#0d0d10" stroke-width="0.25"/><rect x="541.04" y="115.37" width="32.37" height="28.32" fill="#3d7fd6" stroke="#0d0d10" stroke-width="0.25"/><rect x="569.36" y="87.05" width="16.18" height="28.32" fill="#3d7fd6" stroke="#0d0d10" stroke-width="0.25"/><rect x="585.55" y="115.37" width="16.18" height="28.32" fill="#3d7fd6" stroke="#0d0d10" stroke-width="0.25"/><rect x="617.92" y="115.37" width="32.37" height="28.32" fill="#3d7fd6" stroke="#0d0d10" stroke-width="0.25"/><rect x="634.10" y="87.05" width="20.23" height="28.32" fill="#3d7fd6" stroke="#0d0d10" stroke-width="0.25"/><rect x="589.60" y="87.05" width="36.42" height="28.32" fill="#3d7fd6" stroke="#0d0d10" stroke-width="0.25"/><rect x="545.09" y="172.02" width="36.42" height="28.32" fill="#3d7fd6" stroke="#0d0d10" stroke-width="0.25"/><rect x="536.99" y="200.34" width="36.42" height="28.32" fill="#3d7fd6" stroke="#0d0d10" stroke-width="0.25"/><rect x="557.23" y="228.66" width="20.23" height="28.32" fill="#3d7fd6" stroke="#0d0d10" stroke-width="0.25"/><rect x="512.72" y="228.66" width="36.42" height="28.32" fill="#3d7fd6" stroke="#0d0d10" stroke-width="0.25"/><rect x="508.67" y="285.31" width="68.79" height="28.32" fill="#3d7fd6" stroke="#0d0d10" stroke-width="0.25"/><rect x="496.53" y="341.96" width="68.79" height="28.32" fill="#3d7fd6" stroke="#0d0d10" stroke-width="0.25"/><rect x="528.90" y="398.61" width="68.79" height="28.32" fill="#3d7fd6" stroke="#0d0d10" stroke-width="0.25"/><rect x="561.27" y="370.28" width="32.37" height="28.32" fill="#3d7fd6" stroke="#0d0d10" stroke-width="0.25"/><rect x="520.81" y="370.28" width="32.37" height="28.32" fill="#3d7fd6" stroke="#0d0d10" stroke-width="0.25"/><rect x="573.41" y="313.64" width="16.18" height="28.32" fill="#3d7fd6" stroke="#0d0d10" stroke-width="0.25"/><rect x="528.90" y="256.99" width="32.37" height="28.32" fill="#3d7fd6" stroke="#0d0d10" stroke-width="0.25"/><rect x="573.41" y="200.34" width="32.37" height="28.32" fill="#3d7fd6" stroke="#0d0d10" stroke-width="0.25"/><rect x="674.57" y="87.05" width="24.28" height="28.32" fill="#3d7fd6" stroke="#0d0d10" stroke-width="0.25"/><rect x="658.38" y="115.37" width="16.18" height="28.32" fill="#3d7fd6" stroke="#0d0d10" stroke-width="0.25"/><rect x="690.75" y="115.37" width="16.18" height="28.32" fill="#3d7fd6" stroke="#0d0d10" stroke-width="0.25"/><rect x="710.98" y="87.05" width="68.79" height="28.32" fill="#3d7fd6" stroke="#0d0d10" stroke-width="0.25"/><rect x="686.71" y="228.66" width="16.18" height="28.32" fill="#3d7fd6" stroke="#0d0d10" stroke-width="0.25"/><rect x="662.43" y="200.34" width="36.42" height="28.32" fill="#3d7fd6" stroke="#0d0d10" stroke-width="0.25"/><rect x="646.24" y="200.34" width="12.14" height="28.32" fill="#3d7fd6" stroke="#0d0d10" stroke-width="0.25"/><rect x="577.46" y="228.66" width="68.79" height="28.32" fill="#3d7fd6" stroke="#0d0d10" stroke-width="0.25"/><rect x="569.36" y="256.99" width="16.18" height="28.32" fill="#3d7fd6" stroke="#0d0d10" stroke-width="0.25"/><rect x="601.73" y="256.99" width="20.23" height="28.32" fill="#3d7fd6" stroke="#0d0d10" stroke-width="0.25"/><rect x="597.69" y="285.31" width="16.18" height="28.32" fill="#3d7fd6" stroke="#0d0d10" stroke-width="0.25"/><rect x="593.64" y="370.28" width="36.42" height="28.32" fill="#3d7fd6" stroke="#0d0d10" stroke-width="0.25"/><rect x="597.69" y="398.61" width="68.79" height="28.32" fill="#3d7fd6" stroke="#0d0d10" stroke-width="0.25"/><rect x="630.06" y="370.28" width="32.37" height="28.32" fill="#3d7fd6" stroke="#0d0d10" stroke-width="0.25"/><rect x="601.73" y="341.96" width="24.28" height="28.32" fill="#3d7fd6" stroke="#0d0d10" stroke-width="0.25"/><rect x="630.06" y="285.31" width="16.18" height="28.32" fill="#3d7fd6" stroke="#0d0d10" stroke-width="0.25"/><rect x="609.83" y="200.34" width="32.37" height="28.32" fill="#3d7fd6" stroke="#0d0d10" stroke-width="0.25"/><rect x="674.57" y="256.99" width="12.14" height="28.32" fill="#3d7fd6" stroke="#0d0d10" stroke-width="0.25"/><rect x="715.03" y="115.37" width="32.37" height="28.32" fill="#3d7fd6" stroke="#0d0d10" stroke-width="0.25"/><rect x="642.20" y="172.02" width="16.18" height="28.32" fill="#3d7fd6" stroke="#0d0d10" stroke-width="0.25"/><rect x="593.64" y="172.02" width="32.37" height="28.32" fill="#3d7fd6" stroke="#0d0d10" stroke-width="0.25"/><rect x="674.57" y="172.02" width="20.23" height="28.32" fill="#3d7fd6" stroke="#0d0d10" stroke-width="0.25"/><rect x="710.98" y="143.69" width="20.23" height="28.32" fill="#3d7fd6" stroke="#0d0d10" stroke-width="0.25"/><rect x="698.84" y="200.34" width="36.42" height="28.32" fill="#3d7fd6" stroke="#0d0d10" stroke-width="0.25"/><rect x="719.08" y="228.66" width="20.23" height="28.32" fill="#3d7fd6" stroke="#0d0d10" stroke-width="0.25"/><rect x="694.80" y="256.99" width="36.42" height="28.32" fill="#3d7fd6" stroke="#0d0d10" stroke-width="0.25"/><rect x="634.10" y="313.64" width="68.79" height="28.32" fill="#3d7fd6" stroke="#0d0d10" stroke-width="0.25"/><rect x="674.57" y="341.96" width="16.18" height="28.32" fill="#3d7fd6" stroke="#0d0d10" stroke-width="0.25"/><rect x="670.52" y="370.28" width="16.18" height="28.32" fill="#3d7fd6" stroke="#0d0d10" stroke-width="0.25"/><rect x="666.47" y="398.61" width="68.79" height="28.32" fill="#3d7fd6" stroke="#0d0d10" stroke-width="0.25"/><rect x="702.89" y="370.28" width="20.23" height="28.32" fill="#3d7fd6" stroke="#0d0d10" stroke-width="0.25"/><rect x="662.43" y="285.31" width="32.37" height="28.32" fill="#3d7fd6" stroke="#0d0d10" stroke-width="0.25"/><rect x="650.29" y="228.66" width="16.18" height="28.32" fill="#3d7fd6" stroke="#0d0d10" stroke-width="0.25"/><rect x="763.58" y="115.37" width="20.23" height="28.32" fill="#3d7fd6" stroke="#0d0d10" stroke-width="0.25"/><rect x="775.72" y="143.69" width="36.42" height="28.32" fill="#3d7fd6" stroke="#0d0d10" stroke-width="0.25"/><rect x="739.31" y="172.02" width="68.79" height="28.32" fill="#3d7fd6" stroke="#0d0d10" stroke-width="0.25"/><rect x="706.94" y="285.31" width="16.18" height="28.32" fill="#3d7fd6" stroke="#0d0d10" stroke-width="0.25"/><rect x="702.89" y="341.96" width="36.42" height="28.32" fill="#3d7fd6" stroke="#0d0d10" stroke-width="0.25"/><rect x="735.26" y="398.61" width="36.42" height="28.32" fill="#3d7fd6" stroke="#0d0d10" stroke-width="0.25"/><rect x="739.31" y="341.96" width="20.23" height="28.32" fill="#3d7fd6" stroke="#0d0d10" stroke-width="0.25"/><rect x="747.40" y="228.66" width="32.37" height="28.32" fill="#3d7fd6" stroke="#0d0d10" stroke-width="0.25"/><rect x="642.20" y="256.99" width="16.18" height="28.32" fill="#3d7fd6" stroke="#0d0d10" stroke-width="0.25"/><rect x="747.40" y="143.69" width="20.23" height="28.32" fill="#3d7fd6" stroke="#0d0d10" stroke-width="0.25"/><rect x="735.26" y="285.31" width="20.23" height="28.32" fill="#3d7fd6" stroke="#0d0d10" stroke-width="0.25"/><rect x="731.21" y="256.99" width="36.42" height="28.32" fill="#3d7fd6" stroke="#0d0d10" stroke-width="0.25"/><rect x="787.86" y="228.66" width="20.23" height="28.32" fill="#3d7fd6" stroke="#0d0d10" stroke-width="0.25"/><rect x="783.82" y="256.99" width="20.23" height="28.32" fill="#3d7fd6" stroke="#0d0d10" stroke-width="0.25"/><rect x="743.35" y="313.64" width="68.79" height="28.32" fill="#3d7fd6" stroke="#0d0d10" stroke-width="0.25"/><rect x="775.72" y="285.31" width="28.32" height="28.32" fill="#3d7fd6" stroke="#0d0d10" stroke-width="0.25"/><rect x="743.35" y="625.20" width="68.79" height="28.32" fill="#3d7fd6" stroke="#0d0d10" stroke-width="0.25"/><rect x="573.41" y="455.25" width="24.28" height="28.32" fill="#3d7fd6" stroke="#0d0d10" stroke-width="0.25"/><rect x="698.84" y="483.58" width="16.18" height="28.32" fill="#3d7fd6" stroke="#0d0d10" stroke-width="0.25"/><rect x="731.21" y="426.93" width="36.42" height="28.32" fill="#3d7fd6" stroke="#0d0d10" stroke-width="0.25"/><rect x="727.17" y="455.25" width="36.42" height="28.32" fill="#3d7fd6" stroke="#0d0d10" stroke-width="0.25"/><text x="10" y="909" fill="#e6e6e6" font-size="15" font-weight="600">mult_cd  (10×10 C·D multiplier)</text><text x="890" y="909" text-anchor="end" fill="#9a9a9a" font-size="12">112.6 × 110.3 µm  ·  343 std cells</text></svg>