<svg xmlns="http://www.w3.org/2000/svg" width="900" height="895" font-family="system-ui,sans-serif"><rect width="900" height="895" fill="#0d0d10"/><rect x="59.0" y="58.1" width="782.0" height="737.9" fill="none" stroke="#e8c15a" stroke-width="1.5"/><rect x="152.62" y="195.73" width="16.52" height="38.55" fill="#3d7fd6" stroke="#0d0d10" stroke-width="0.25"/><rect x="543.62" y="696.87" width="16.52" height="38.55" fill="#3d7fd6" stroke="#0d0d10" stroke-width="0.25"/><rect x="378.41" y="504.13" width="16.52" height="38.55" fill="#3d7fd6" stroke="#0d0d10" stroke-width="0.25"/><rect x="213.20" y="696.87" width="16.52" height="38.55" fill="#3d7fd6" stroke="#0d0d10" stroke-width="0.25"/><rect x="130.59" y="465.58" width="16.52" height="38.55" fill="#3d7fd6" stroke="#0d0d10" stroke-width="0.25"/><rect x="169.14" y="272.83" width="22.03" height="38.55" fill="#3d7fd6" stroke="#0d0d10" stroke-width="0.25"/><rect x="196.68" y="349.93" width="27.53" height="38.55" fill="#3d7fd6" stroke="#0d0d10" stroke-width="0.25"/><rect x="257.26" y="311.38" width="22.03" height="38.55" fill="#3d7fd6" stroke="#0d0d10" stroke-width="0.25"/><rect x="152.62" y="311.38" width="33.04" height="38.55" fill="#3d7fd6" stroke="#0d0d10" stroke-width="0.25"/><rect x="136.10" y="157.19" width="44.06" height="38.55" fill="#3d7fd6" stroke="#0d0d10" stroke-width="0.25"/><rect x="356.38" y="195.73" width="22.03" height="38.55" fill="#3d7fd6" stroke="#0d0d10" stroke-width="0.25"/><rect x="372.90" y="157.19" width="22.03" height="38.55" fill="#3d7fd6" stroke="#0d0d10" stroke-width="0.25"/><rect x="213.20" y="311.38" width="38.55" height="38.55" fill="#3d7fd6" stroke="#0d0d10" stroke-width="0.25"/><rect x="169.14" y="195.73" width="27.53" height="38.55" fill="#3d7fd6" stroke="#0d0d10" stroke-width="0.25"/><rect x="185.66" y="311.38" width="27.53" height="38.55" fill="#3d7fd6" stroke="#0d0d10" stroke-width="0.25"/><rect x="218.71" y="272.83" width="49.56" height="38.55" fill="#3d7fd6" stroke="#0d0d10" stroke-width="0.25"/><rect x="191.17" y="118.64" width="27.53" height="38.55" fill="#3d7fd6" stroke="#0d0d10" stroke-width="0.25"/><rect x="196.68" y="195.73" width="60.58" height="38.55" fill="#3d7fd6" stroke="#0d0d10" stroke-width="0.25"/><rect x="180.16" y="157.19" width="33.04" height="38.55" fill="#3d7fd6" stroke="#0d0d10" stroke-width="0.25"/><rect x="141.61" y="118.64" width="49.56" height="38.55" fill="#3d7fd6" stroke="#0d0d10" stroke-width="0.25"/><rect x="378.41" y="195.73" width="16.52" height="38.55" fill="#3d7fd6" stroke="#0d0d10" stroke-width="0.25"/><rect x="295.80" y="157.19" width="44.06" height="38.55" fill="#3d7fd6" stroke="#0d0d10" stroke-width="0.25"/><rect x="394.93" y="157.19" width="33.04" height="38.55" fill="#3d7fd6" stroke="#0d0d10" stroke-width="0.25"/><rect x="262.76" y="658.32" width="22.03" height="38.55" fill="#3d7fd6" stroke="#0d0d10" stroke-width="0.25"/><rect x="130.59" y="619.77" width="33.04" height="38.55" fill="#3d7fd6" stroke="#0d0d10" stroke-width="0.25"/><rect x="191.17" y="542.67" width="33.04" height="38.55" fill="#3d7fd6" stroke="#0d0d10" stroke-width="0.25"/><rect x="268.27" y="504.13" width="27.53" height="38.55" fill="#3d7fd6" stroke="#0d0d10" stroke-width="0.25"/><rect x="180.16" y="658.32" width="44.06" height="38.55" fill="#3d7fd6" stroke="#0d0d10" stroke-width="0.25"/><rect x="229.72" y="696.87" width="27.53" height="38.55" fill="#3d7fd6" stroke="#0d0d10" stroke-width="0.25"/><rect x="174.65" y="696.87" width="38.55" height="38.55" fill="#3d7fd6" stroke="#0d0d10" stroke-width="0.25"/><rect x="224.21" y="658.32" width="38.55" height="38.55" fill="#3d7fd6" stroke="#0d0d10" stroke-width="0.25"/><rect x="224.21" y="542.67" width="44.06" height="38.55" fill="#3d7fd6" stroke="#0d0d10" stroke-width="0.25"/><rect x="213.20" y="504.13" width="22.03" height="38.55" fill="#3d7fd6" stroke="#0d0d10" stroke-width="0.25"/><rect x="147.12" y="504.13" width="27.53" height="38.55" fill="#3d7fd6" stroke="#0d0d10" stroke-width="0.25"/><rect x="235.23" y="504.13" width="33.04" height="38.55" fill="#3d7fd6" stroke="#0d0d10" stroke-width="0.25"/><rect x="130.59" y="427.03" width="44.06" height="38.55" fill="#3d7fd6" stroke="#0d0d10" stroke-width="0.25"/><rect x="306.82" y="349.93" width="22.03" height="38.55" fill="#3d7fd6" stroke="#0d0d10" stroke-width="0.25"/><rect x="147.12" y="465.58" width="44.06" height="38.55" fill="#3d7fd6" stroke="#0d0d10" stroke-width="0.25"/><rect x="328.85" y="349.93" width="22.03" height="38.55" fill="#3d7fd6" stroke="#0d0d10" stroke-width="0.25"/><rect x="240.73" y="465.58" width="49.56" height="38.55" fill="#3d7fd6" stroke="#0d0d10" stroke-width="0.25"/><rect x="560.14" y="696.87" width="22.03" height="38.55" fill="#3d7fd6" stroke="#0d0d10" stroke-width="0.25"/><rect x="350.87" y="619.77" width="33.04" height="38.55" fill="#3d7fd6" stroke="#0d0d10" stroke-width="0.25"/><rect x="383.92" y="619.77" width="33.04" height="38.55" fill="#3d7fd6" stroke="#0d0d10" stroke-width="0.25"/><rect x="394.93" y="504.13" width="27.53" height="38.55" fill="#3d7fd6" stroke="#0d0d10" stroke-width="0.25"/><rect x="472.03" y="658.32" width="44.06" height="38.55" fill="#3d7fd6" stroke="#0d0d10" stroke-width="0.25"/><rect x="554.63" y="658.32" width="27.53" height="38.55" fill="#3d7fd6" stroke="#0d0d10" stroke-width="0.25"/><rect x="516.08" y="658.32" width="38.55" height="38.55" fill="#3d7fd6" stroke="#0d0d10" stroke-width="0.25"/><rect x="505.07" y="696.87" width="38.55" height="38.55" fill="#3d7fd6" stroke="#0d0d10" stroke-width="0.25"/><rect x="339.86" y="658.32" width="44.06" height="38.55" fill="#3d7fd6" stroke="#0d0d10" stroke-width="0.25"/><rect x="416.96" y="658.32" width="22.03" height="38.55" fill="#3d7fd6" stroke="#0d0d10" stroke-width="0.25"/><rect x="405.94" y="581.22" width="22.03" height="38.55" fill="#3d7fd6" stroke="#0d0d10" stroke-width="0.25"/><rect x="378.41" y="581.22" width="27.53" height="38.55" fill="#3d7fd6" stroke="#0d0d10" stroke-width="0.25"/><rect x="416.96" y="619.77" width="33.04" height="38.55" fill="#3d7fd6" stroke="#0d0d10" stroke-width="0.25"/><rect x="334.35" y="504.13" width="44.06" height="38.55" fill="#3d7fd6" stroke="#0d0d10" stroke-width="0.25"/><rect x="411.45" y="427.03" width="22.03" height="38.55" fill="#3d7fd6" stroke="#0d0d10" stroke-width="0.25"/><rect x="356.38" y="542.67" width="44.06" height="38.55" fill="#3d7fd6" stroke="#0d0d10" stroke-width="0.25"/><rect x="505.07" y="504.13" width="27.53" height="38.55" fill="#3d7fd6" stroke="#0d0d10" stroke-width="0.25"/><rect x="394.93" y="388.48" width="22.03" height="38.55" fill="#3d7fd6" stroke="#0d0d10" stroke-width="0.25"/><rect x="405.94" y="465.58" width="49.56" height="38.55" fill="#3d7fd6" stroke="#0d0d10" stroke-width="0.25"/><rect x="350.87" y="349.93" width="44.06" height="38.55" fill="#3d7fd6" stroke="#0d0d10" stroke-width="0.25"/><rect x="394.93" y="349.93" width="33.04" height="38.55" fill="#3d7fd6" stroke="#0d0d10" stroke-width="0.25"/><rect x="427.97" y="272.83" width="27.53" height="38.55" fill="#3d7fd6" stroke="#0d0d10" stroke-width="0.25"/><rect x="400.44" y="272.83" width="27.53" height="38.55" fill="#3d7fd6" stroke="#0d0d10" stroke-width="0.25"/><rect x="532.60" y="311.38" width="27.53" height="38.55" fill="#3d7fd6" stroke="#0d0d10" stroke-width="0.25"/><rect x="521.59" y="619.77" width="27.53" height="38.55" fill="#3d7fd6" stroke="#0d0d10" stroke-width="0.25"/><rect x="510.58" y="581.22" width="27.53" height="38.55" fill="#3d7fd6" stroke="#0d0d10" stroke-width="0.25"/><rect x="246.24" y="619.77" width="33.04" height="38.55" fill="#3d7fd6" stroke="#0d0d10" stroke-width="0.25"/><rect x="251.75" y="581.22" width="27.53" height="38.55" fill="#3d7fd6" stroke="#0d0d10" stroke-width="0.25"/><rect x="290.30" y="581.22" width="22.03" height="38.55" fill="#3d7fd6" stroke="#0d0d10" stroke-width="0.25"/><rect x="521.59" y="542.67" width="27.53" height="38.55" fill="#3d7fd6" stroke="#0d0d10" stroke-width="0.25"/><rect x="290.30" y="465.58" width="33.04" height="38.55" fill="#3d7fd6" stroke="#0d0d10" stroke-width="0.25"/><rect x="477.53" y="465.58" width="22.03" height="38.55" fill="#3d7fd6" stroke="#0d0d10" stroke-width="0.25"/><rect x="494.06" y="619.77" width="27.53" height="38.55" fill="#3d7fd6" stroke="#0d0d10" stroke-width="0.25"/><rect x="494.06" y="542.67" width="27.53" height="38.55" fill="#3d7fd6" stroke="#0d0d10" stroke-width="0.25"/><rect x="472.03" y="504.13" width="33.04" height="38.55" fill="#3d7fd6" stroke="#0d0d10" stroke-width="0.25"/><rect x="229.72" y="388.48" width="22.03" height="38.55" fill="#3d7fd6" stroke="#0d0d10" stroke-width="0.25"/><rect x="218.71" y="619.77" width="27.53" height="38.55" fill="#3d7fd6" stroke="#0d0d10" stroke-width="0.25"/><rect x="235.23" y="427.03" width="27.53" height="38.55" fill="#3d7fd6" stroke="#0d0d10" stroke-width="0.25"/><rect x="251.75" y="388.48" width="33.04" height="38.55" fill="#3d7fd6" stroke="#0d0d10" stroke-width="0.25"/><rect x="273.78" y="349.93" width="33.04" height="38.55" fill="#3d7fd6" stroke="#0d0d10" stroke-width="0.25"/><rect x="130.59" y="542.67" width="27.53" height="38.55" fill="#3d7fd6" stroke="#0d0d10" stroke-width="0.25"/><rect x="119.58" y="658.32" width="27.53" height="38.55" fill="#3d7fd6" stroke="#0d0d10" stroke-width="0.25"/><rect x="147.12" y="658.32" width="33.04" height="38.55" fill="#3d7fd6" stroke="#0d0d10" stroke-width="0.25"/><rect x="158.13" y="542.67" width="33.04" height="38.55" fill="#3d7fd6" stroke="#0d0d10" stroke-width="0.25"/><rect x="185.66" y="427.03" width="33.04" height="38.55" fill="#3d7fd6" stroke="#0d0d10" stroke-width="0.25"/><rect x="240.73" y="349.93" width="33.04" height="38.55" fill="#3d7fd6" stroke="#0d0d10" stroke-width="0.25"/><rect x="378.41" y="427.03" width="33.04" height="38.55" fill="#3d7fd6" stroke="#0d0d10" stroke-width="0.25"/><rect x="400.44" y="542.67" width="27.53" height="38.55" fill="#3d7fd6" stroke="#0d0d10" stroke-width="0.25"/><rect x="350.87" y="696.87" width="27.53" height="38.55" fill="#3d7fd6" stroke="#0d0d10" stroke-width="0.25"/><rect x="378.41" y="696.87" width="33.04" height="38.55" fill="#3d7fd6" stroke="#0d0d10" stroke-width="0.25"/><rect x="383.92" y="658.32" width="33.04" height="38.55" fill="#3d7fd6" stroke="#0d0d10" stroke-width="0.25"/><rect x="422.47" y="504.13" width="33.04" height="38.55" fill="#3d7fd6" stroke="#0d0d10" stroke-width="0.25"/><rect x="361.89" y="465.58" width="44.06" height="38.55" fill="#3d7fd6" stroke="#0d0d10" stroke-width="0.25"/><rect x="427.97" y="349.93" width="44.06" height="38.55" fill="#3d7fd6" stroke="#0d0d10" stroke-width="0.25"/><rect x="472.03" y="349.93" width="49.56" height="38.55" fill="#3d7fd6" stroke="#0d0d10" stroke-width="0.25"/><rect x="472.03" y="388.48" width="44.06" height="38.55" fill="#3d7fd6" stroke="#0d0d10" stroke-width="0.25"/><rect x="499.56" y="465.58" width="49.56" height="38.55" fill="#3d7fd6" stroke="#0d0d10" stroke-width="0.25"/><rect x="549.13" y="465.58" width="44.06" height="38.55" fill="#3d7fd6" stroke="#0d0d10" stroke-width="0.25"/><rect x="549.13" y="619.77" width="49.56" height="38.55" fill="#3d7fd6" stroke="#0d0d10" stroke-width="0.25"/><rect x="598.69" y="619.77" width="44.06" height="38.55" fill="#3d7fd6" stroke="#0d0d10" stroke-width="0.25"/><rect x="648.25" y="696.87" width="93.62" height="38.55" fill="#3d7fd6" stroke="#0d0d10" stroke-width="0.25"/><rect x="730.86" y="658.32" width="22.03" height="38.55" fill="#3d7fd6" stroke="#0d0d10" stroke-width="0.25"/><rect x="604.20" y="658.32" width="126.66" height="38.55" fill="#3d7fd6" stroke="#0d0d10" stroke-width="0.25"/><rect x="549.13" y="542.67" width="49.56" height="38.55" fill="#3d7fd6" stroke="#0d0d10" stroke-width="0.25"/><rect x="191.17" y="272.83" width="27.53" height="38.55" fill="#3d7fd6" stroke="#0d0d10" stroke-width="0.25"/><rect x="350.87" y="234.28" width="38.55" height="38.55" fill="#3d7fd6" stroke="#0d0d10" stroke-width="0.25"/><rect x="626.22" y="504.13" width="22.03" height="38.55" fill="#3d7fd6" stroke="#0d0d10" stroke-width="0.25"/><rect x="532.60" y="504.13" width="93.62" height="38.55" fill="#3d7fd6" stroke="#0d0d10" stroke-width="0.25"/><rect x="521.59" y="349.93" width="49.56" height="38.55" fill="#3d7fd6" stroke="#0d0d10" stroke-width="0.25"/><rect x="394.93" y="195.73" width="27.53" height="38.55" fill="#3d7fd6" stroke="#0d0d10" stroke-width="0.25"/><rect x="483.04" y="272.83" width="49.56" height="38.55" fill="#3d7fd6" stroke="#0d0d10" stroke-width="0.25"/><rect x="328.85" y="234.28" width="22.03" height="38.55" fill="#3d7fd6" stroke="#0d0d10" stroke-width="0.25"/><rect x="334.35" y="195.73" width="22.03" height="38.55" fill="#3d7fd6" stroke="#0d0d10" stroke-width="0.25"/><rect x="317.83" y="272.83" width="49.56" height="38.55" fill="#3d7fd6" stroke="#0d0d10" stroke-width="0.25"/><rect x="532.60" y="272.83" width="22.03" height="38.55" fill="#3d7fd6" stroke="#0d0d10" stroke-width="0.25"/><rect x="444.49" y="234.28" width="93.62" height="38.55" fill="#3d7fd6" stroke="#0d0d10" stroke-width="0.25"/><rect x="367.40" y="311.38" width="93.62" height="38.55" fill="#3d7fd6" stroke="#0d0d10" stroke-width="0.25"/><rect x="350.87" y="118.64" width="22.03" height="38.55" fill="#3d7fd6" stroke="#0d0d10" stroke-width="0.25"/><rect x="125.09" y="349.93" width="27.53" height="38.55" fill="#3d7fd6" stroke="#0d0d10" stroke-width="0.25"/><rect x="119.58" y="311.38" width="33.04" height="38.55" fill="#3d7fd6" stroke="#0d0d10" stroke-width="0.25"/><rect x="339.86" y="157.19" width="33.04" height="38.55" fill="#3d7fd6" stroke="#0d0d10" stroke-width="0.25"/><rect x="213.20" y="157.19" width="49.56" height="38.55" fill="#3d7fd6" stroke="#0d0d10" stroke-width="0.25"/><rect x="317.83" y="118.64" width="33.04" height="38.55" fill="#3d7fd6" stroke="#0d0d10" stroke-width="0.25"/><rect x="461.01" y="118.64" width="49.56" height="38.55" fill="#3d7fd6" stroke="#0d0d10" stroke-width="0.25"/><rect x="472.03" y="195.73" width="44.06" height="38.55" fill="#3d7fd6" stroke="#0d0d10" stroke-width="0.25"/><rect x="538.11" y="234.28" width="44.06" height="38.55" fill="#3d7fd6" stroke="#0d0d10" stroke-width="0.25"/><rect x="571.15" y="349.93" width="44.06" height="38.55" fill="#3d7fd6" stroke="#0d0d10" stroke-width="0.25"/><rect x="598.69" y="542.67" width="44.06" height="38.55" fill="#3d7fd6" stroke="#0d0d10" stroke-width="0.25"/><rect x="736.36" y="619.77" width="44.06" height="38.55" fill="#3d7fd6" stroke="#0d0d10" stroke-width="0.25"/><rect x="642.74" y="619.77" width="44.06" height="38.55" fill="#3d7fd6" stroke="#0d0d10" stroke-width="0.25"/><rect x="714.34" y="388.48" width="22.03" height="38.55" fill="#3d7fd6" stroke="#0d0d10" stroke-width="0.25"/><rect x="516.08" y="388.48" width="93.62" height="38.55" fill="#3d7fd6" stroke="#0d0d10" stroke-width="0.25"/><rect x="565.65" y="195.73" width="22.03" height="38.55" fill="#3d7fd6" stroke="#0d0d10" stroke-width="0.25"/><rect x="615.21" y="349.93" width="33.04" height="38.55" fill="#3d7fd6" stroke="#0d0d10" stroke-width="0.25"/><rect x="681.29" y="504.13" width="22.03" height="38.55" fill="#3d7fd6" stroke="#0d0d10" stroke-width="0.25"/><rect x="714.34" y="465.58" width="27.53" height="38.55" fill="#3d7fd6" stroke="#0d0d10" stroke-width="0.25"/><rect x="466.52" y="157.19" width="44.06" height="38.55" fill="#3d7fd6" stroke="#0d0d10" stroke-width="0.25"/><rect x="538.11" y="195.73" width="27.53" height="38.55" fill="#3d7fd6" stroke="#0d0d10" stroke-width="0.25"/><rect x="604.20" y="311.38" width="27.53" height="38.55" fill="#3d7fd6" stroke="#0d0d10" stroke-width="0.25"/><rect x="560.14" y="311.38" width="44.06" height="38.55" fill="#3d7fd6" stroke="#0d0d10" stroke-width="0.25"/><rect x="598.69" y="427.03" width="33.04" height="38.55" fill="#3d7fd6" stroke="#0d0d10" stroke-width="0.25"/><rect x="631.73" y="427.03" width="27.53" height="38.55" fill="#3d7fd6" stroke="#0d0d10" stroke-width="0.25"/><rect x="659.27" y="427.03" width="27.53" height="38.55" fill="#3d7fd6" stroke="#0d0d10" stroke-width="0.25"/><rect x="664.77" y="542.67" width="27.53" height="38.55" fill="#3d7fd6" stroke="#0d0d10" stroke-width="0.25"/><rect x="692.31" y="542.67" width="27.53" height="38.55" fill="#3d7fd6" stroke="#0d0d10" stroke-width="0.25"/><rect x="719.84" y="542.67" width="33.04" height="38.55" fill="#3d7fd6" stroke="#0d0d10" stroke-width="0.25"/><rect x="659.27" y="465.58" width="55.07" height="38.55" fill="#3d7fd6" stroke="#0d0d10" stroke-width="0.25"/><rect x="703.32" y="581.22" width="27.53" height="38.55" fill="#3d7fd6" stroke="#0d0d10" stroke-width="0.25"/><rect x="609.70" y="465.58" width="49.56" height="38.55" fill="#3d7fd6" stroke="#0d0d10" stroke-width="0.25"/><rect x="741.87" y="465.58" width="33.04" height="38.55" fill="#3d7fd6" stroke="#0d0d10" stroke-width="0.25"/><rect x="686.80" y="619.77" width="49.56" height="38.55" fill="#3d7fd6" stroke="#0d0d10" stroke-width="0.25"/><rect x="730.86" y="581.22" width="33.04" height="38.55" fill="#3d7fd6" stroke="#0d0d10" stroke-width="0.25"/><rect x="752.88" y="427.03" width="22.03" height="38.55" fill="#3d7fd6" stroke="#0d0d10" stroke-width="0.25"/><rect x="719.84" y="427.03" width="27.53" height="38.55" fill="#3d7fd6" stroke="#0d0d10" stroke-width="0.25"/><rect x="510.58" y="157.19" width="49.56" height="38.55" fill="#3d7fd6" stroke="#0d0d10" stroke-width="0.25"/><rect x="675.79" y="195.73" width="27.53" height="38.55" fill="#3d7fd6" stroke="#0d0d10" stroke-width="0.25"/><rect x="560.14" y="157.19" width="49.56" height="38.55" fill="#3d7fd6" stroke="#0d0d10" stroke-width="0.25"/><rect x="626.22" y="157.19" width="44.06" height="38.55" fill="#3d7fd6" stroke="#0d0d10" stroke-width="0.25"/><rect x="560.14" y="118.64" width="49.56" height="38.55" fill="#3d7fd6" stroke="#0d0d10" stroke-width="0.25"/><rect x="510.58" y="118.64" width="49.56" height="38.55" fill="#3d7fd6" stroke="#0d0d10" stroke-width="0.25"/><rect x="631.73" y="118.64" width="49.56" height="38.55" fill="#3d7fd6" stroke="#0d0d10" stroke-width="0.25"/><rect x="582.17" y="272.83" width="49.56" height="38.55" fill="#3d7fd6" stroke="#0d0d10" stroke-width="0.25"/><rect x="554.63" y="272.83" width="27.53" height="38.55" fill="#3d7fd6" stroke="#0d0d10" stroke-width="0.25"/><rect x="631.73" y="272.83" width="49.56" height="38.55" fill="#3d7fd6" stroke="#0d0d10" stroke-width="0.25"/><rect x="681.29" y="272.83" width="44.06" height="38.55" fill="#3d7fd6" stroke="#0d0d10" stroke-width="0.25"/><rect x="708.83" y="157.19" width="16.52" height="38.55" fill="#3d7fd6" stroke="#0d0d10" stroke-width="0.25"/><rect x="708.83" y="118.64" width="44.06" height="38.55" fill="#3d7fd6" stroke="#0d0d10" stroke-width="0.25"/><rect x="703.32" y="311.38" width="27.53" height="38.55" fill="#3d7fd6" stroke="#0d0d10" stroke-width="0.25"/><rect x="653.76" y="311.38" width="49.56" height="38.55" fill="#3d7fd6" stroke="#0d0d10" stroke-width="0.25"/><rect x="681.29" y="118.64" width="27.53" height="38.55" fill="#3d7fd6" stroke="#0d0d10" stroke-width="0.25"/><rect x="725.35" y="157.19" width="27.53" height="38.55" fill="#3d7fd6" stroke="#0d0d10" stroke-width="0.25"/><rect x="703.32" y="195.73" width="38.55" height="38.55" fill="#3d7fd6" stroke="#0d0d10" stroke-width="0.25"/><rect x="675.79" y="234.28" width="93.62" height="38.55" fill="#3d7fd6" stroke="#0d0d10" stroke-width="0.25"/><rect x="725.35" y="272.83" width="44.06" height="38.55" fill="#3d7fd6" stroke="#0d0d10" stroke-width="0.25"/><rect x="670.28" y="157.19" width="38.55" height="38.55" fill="#3d7fd6" stroke="#0d0d10" stroke-width="0.25"/><rect x="730.86" y="311.38" width="49.56" height="38.55" fill="#3d7fd6" stroke="#0d0d10" stroke-width="0.25"/><rect x="719.84" y="349.93" width="38.55" height="38.55" fill="#3d7fd6" stroke="#0d0d10" stroke-width="0.25"/><rect x="675.79" y="349.93" width="44.06" height="38.55" fill="#3d7fd6" stroke="#0d0d10" stroke-width="0.25"/><rect x="758.39" y="349.93" width="22.03" height="38.55" fill="#3d7fd6" stroke="#0d0d10" stroke-width="0.25"/><text x="10" y="881" fill="#e6e6e6" font-size="15" font-weight="600">vth_prime  (log-domain Vth′ block)</text><text x="890" y="881" text-anchor="end" fill="#9a9a9a" font-size="12">79.5 × 75.0 µm  ·  179 std cells</text></svg>